<ttFont>
<head>
    <!-- Most of this table will be recalculated by the compiler -->
    <tableVersion value="1.0"/>
    <fontRevision value="1.106"/>
    <checkSumAdjustment value="0xf848db50"/>
    <magicNumber value="0x5f0f3cf5"/>
    <flags value="00000000 00000001"/>
    <unitsPerEm value="1000"/>
    <created value="Mon Sep 16 15:14:30 2019"/>
    <modified value="Mon Sep 16 15:22:46 2019"/>
    <xMin value="-276"/>
    <yMin value="-306"/>
    <xMax value="1971"/>
    <yMax value="1287"/>
    <macStyle value="00000000 00000010"/>
    <lowestRecPPEM value="6"/>
    <fontDirectionHint value="2"/>
    <indexToLocFormat value="0"/>
    <glyphDataFormat value="0"/>
  </head>
    <TTGlyph name=".notdef" xMin="115" yMin="-200" xMax="615" yMax="800">
      <contour>
        <pt x="115" y="-200" on="1"/>
        <pt x="115" y="800" on="1"/>
        <pt x="615" y="800" on="1"/>
        <pt x="615" y="-200" on="1"/>
      </contour>
      <contour>
        <pt x="186" y="750" on="1"/>
        <pt x="365" y="360" on="1"/>
        <pt x="544" y="750" on="1"/>
      </contour>
      <contour>
        <pt x="165" y="-76" on="1"/>
        <pt x="337" y="300" on="1"/>
        <pt x="165" y="676" on="1"/>
      </contour>
      <contour>
        <pt x="565" y="676" on="1"/>
        <pt x="393" y="300" on="1"/>
        <pt x="565" y="-76" on="1"/>
      </contour>
      <contour>
        <pt x="365" y="240" on="1"/>
        <pt x="186" y="-150" on="1"/>
        <pt x="544" y="-150" on="1"/>
      </contour>
    </TTGlyph>
    <TTGlyph name="A" xMin="-25" yMin="0" xMax="715" yMax="700">
      <contour>
        <pt x="-25" y="0" on="1"/>
        <pt x="376" y="700" on="1"/>
        <pt x="615" y="700" on="1"/>
        <pt x="715" y="0" on="1"/>
        <pt x="564" y="0" on="1"/>
        <pt x="542" y="166" on="1"/>
        <pt x="236" y="166" on="1"/>
        <pt x="143" y="0" on="1"/>
      </contour>
      <contour>
        <pt x="454" y="558" on="1"/>
        <pt x="311" y="301" on="1"/>
        <pt x="524" y="301" on="1"/>
        <pt x="491" y="558" on="1"/>
      </contour>
    </TTGlyph>
    <TTGlyph name="A.sc" xMin="-15" yMin="0" xMax="654" yMax="597">
      <component glyphName="a.sc" x="0" y="0" flags="0x204"/>
    </TTGlyph>
    <TTGlyph name="AE" xMin="-43" yMin="0" xMax="1186" yMax="700">
      <contour>
        <pt x="777" y="565" on="1"/>
        <pt x="748" y="430" on="1"/>
        <pt x="1060" y="430" on="1"/>
        <pt x="1030" y="297" on="1"/>
        <pt x="720" y="297" on="1"/>
        <pt x="686" y="135" on="1"/>
        <pt x="1098" y="135" on="1"/>
        <pt x="1060" y="0" on="1"/>
        <pt x="506" y="0" on="1"/>
        <pt x="541" y="166" on="1"/>
        <pt x="259" y="166" on="1"/>
        <pt x="137" y="0" on="1"/>
        <pt x="-43" y="0" on="1"/>
        <pt x="480" y="700" on="1"/>
        <pt x="1186" y="700" on="1"/>
        <pt x="1171" y="565" on="1"/>
      </contour>
      <contour>
        <pt x="547" y="558" on="1"/>
        <pt x="358" y="301" on="1"/>
        <pt x="570" y="301" on="1"/>
        <pt x="625" y="558" on="1"/>
      </contour>
    </TTGlyph>
    <TTGlyph name="AE.sc" xMin="-38" yMin="0" xMax="1063" yMax="596">
      <component glyphName="ae.sc" x="0" y="0" flags="0x204"/>
    </TTGlyph>
    <TTGlyph name="AEacute" xMin="-43" yMin="0" xMax="1186" yMax="942">
      <component glyphName="AE" x="0" y="0" flags="0x204"/>
      <component glyphName="acute" x="507" y="160" flags="0x4"/>
    </TTGlyph>
    <TTGlyph name="AEacute.sc" xMin="-38" yMin="0" xMax="1063" yMax="838">
      <component glyphName="aeacute.sc" x="0" y="0" flags="0x204"/>
    </TTGlyph>
    <TTGlyph name="Aacute" xMin="-25" yMin="0" xMax="778" yMax="942">
      <component glyphName="A" x="0" y="0" flags="0x204"/>
      <component glyphName="acute" x="238" y="160" flags="0x4"/>
    </TTGlyph>
    <TTGlyph name="Aacute.sc" xMin="-15" yMin="0" xMax="725" yMax="839">
      <component glyphName="aacute.sc" x="0" y="0" flags="0x204"/>
    </TTGlyph>
    <TTGlyph name="Abreve" xMin="-25" yMin="0" xMax="721" yMax="962">
      <component glyphName="A" x="0" y="0" flags="0x204"/>
      <component glyphName="breve" x="185" y="160" flags="0x4"/>
    </TTGlyph>
    <TTGlyph name="Abreve.sc" xMin="-15" yMin="0" xMax="668" yMax="859">
      <component glyphName="abreve.sc" x="0" y="0" flags="0x204"/>
    </TTGlyph>
    <TTGlyph name="Acircumflex" xMin="-25" yMin="0" xMax="736" yMax="958">
      <component glyphName="A" x="0" y="0" flags="0x204"/>
      <component glyphName="circumflex" x="185" y="160" flags="0x4"/>
    </TTGlyph>
    <TTGlyph name="Acircumflex.sc" xMin="-15" yMin="0" xMax="683" yMax="855">
      <component glyphName="acircumflex.sc" x="0" y="0" flags="0x204"/>
    </TTGlyph>
    <TTGlyph name="Adieresis" xMin="-25" yMin="0" xMax="742" yMax="929">
      <component glyphName="A" x="0" y="0" flags="0x204"/>
      <component glyphName="dieresis" x="185" y="160" flags="0x4"/>
    </TTGlyph>
    <TTGlyph name="Adieresis.sc" xMin="-15" yMin="0" xMax="688" yMax="826">
      <component glyphName="adieresis.sc" x="0" y="0" flags="0x204"/>
    </TTGlyph>
    <TTGlyph name="Agrave" xMin="-25" yMin="0" xMax="715" yMax="942">
      <component glyphName="A" x="0" y="0" flags="0x204"/>
      <component glyphName="grave" x="129" y="160" flags="0x4"/>
    </TTGlyph>
    <TTGlyph name="Agrave.sc" xMin="-15" yMin="0" xMax="654" yMax="839">
      <component glyphName="agrave.sc" x="0" y="0" flags="0x204"/>
    </TTGlyph>
    <TTGlyph name="Amacron" xMin="-25" yMin="0" xMax="726" yMax="904">
      <component glyphName="A" x="0" y="0" flags="0x204"/>
      <component glyphName="macron" x="184" y="160" flags="0x4"/>
    </TTGlyph>
    <TTGlyph name="Amacron.sc" xMin="-15" yMin="0" xMax="673" yMax="801">
      <component glyphName="amacron.sc" x="0" y="0" flags="0x204"/>
    </TTGlyph>
    <TTGlyph name="Aogonek" xMin="-25" yMin="-289" xMax="715" yMax="700">
      <contour>
        <pt x="-25" y="0" on="1"/>
        <pt x="376" y="700" on="1"/>
        <pt x="615" y="700" on="1"/>
        <pt x="715" y="0" on="1"/>
        <pt x="649" y="-52" on="1"/>
        <pt x="600" y="-90" on="0"/>
        <pt x="561" y="-133" on="0"/>
        <pt x="561" y="-151" on="1"/>
        <pt x="561" y="-164" on="0"/>
        <pt x="582" y="-180" on="0"/>
        <pt x="608" y="-180" on="1"/>
        <pt x="625" y="-180" on="0"/>
        <pt x="666" y="-172" on="0"/>
        <pt x="692" y="-162" on="1"/>
        <pt x="669" y="-267" on="1"/>
        <pt x="645" y="-278" on="0"/>
        <pt x="595" y="-289" on="0"/>
        <pt x="567" y="-289" on="1"/>
        <pt x="499" y="-289" on="0"/>
        <pt x="425" y="-226" on="0"/>
        <pt x="425" y="-181" on="1"/>
        <pt x="425" y="-131" on="0"/>
        <pt x="505" y="-43" on="0"/>
        <pt x="564" y="0" on="1"/>
        <pt x="542" y="166" on="1"/>
        <pt x="236" y="166" on="1"/>
        <pt x="143" y="0" on="1"/>
      </contour>
      <contour>
        <pt x="454" y="558" on="1"/>
        <pt x="311" y="301" on="1"/>
        <pt x="524" y="301" on="1"/>
        <pt x="491" y="558" on="1"/>
      </contour>
    </TTGlyph>
    <TTGlyph name="Aogonek.sc" xMin="-15" yMin="-289" xMax="654" yMax="597">
      <component glyphName="aogonek.sc" x="0" y="0" flags="0x204"/>
    </TTGlyph>
    <TTGlyph name="Aring" xMin="-25" yMin="0" xMax="715" yMax="1071">
      <component glyphName="A" x="0" y="0" flags="0x204"/>
      <component glyphName="ring" x="129" y="160" flags="0x4"/>
    </TTGlyph>
    <TTGlyph name="Aring.sc" xMin="-15" yMin="0" xMax="656" yMax="968">
      <component glyphName="aring.sc" x="0" y="0" flags="0x204"/>
    </TTGlyph>
    <TTGlyph name="Aringacute" xMin="-25" yMin="0" xMax="851" yMax="1287">
      <component glyphName="A" x="0" y="0" flags="0x204"/>
      <component glyphName="ring" x="129" y="160" flags="0x4"/>
      <component glyphName="acute" x="311" y="505" flags="0x4"/>
    </TTGlyph>
    <TTGlyph name="Aringacute.sc" xMin="-15" yMin="0" xMax="798" yMax="1184">
      <component glyphName="aringacute.sc" x="0" y="0" flags="0x204"/>
    </TTGlyph>
    <TTGlyph name="Atilde" xMin="-25" yMin="0" xMax="727" yMax="939">
      <component glyphName="A" x="0" y="0" flags="0x204"/>
      <component glyphName="tilde" x="185" y="160" flags="0x4"/>
    </TTGlyph>
    <TTGlyph name="Atilde.sc" xMin="-15" yMin="0" xMax="674" yMax="836">
      <component glyphName="atilde.sc" x="0" y="0" flags="0x204"/>
    </TTGlyph>
    <TTGlyph name="B" xMin="41" yMin="0" xMax="742" yMax="700">
      <contour>
        <pt x="41" y="0" on="1"/>
        <pt x="190" y="700" on="1"/>
        <pt x="516" y="700" on="1"/>
        <pt x="632" y="700" on="0"/>
        <pt x="742" y="606" on="0"/>
        <pt x="742" y="534" on="1"/>
        <pt x="742" y="476" on="0"/>
        <pt x="670" y="382" on="0"/>
        <pt x="596" y="358" on="1"/>
        <pt x="645" y="340" on="0"/>
        <pt x="701" y="268" on="0"/>
        <pt x="701" y="216" on="1"/>
        <pt x="701" y="168" on="0"/>
        <pt x="657" y="88" on="0"/>
        <pt x="581" y="31" on="0"/>
        <pt x="474" y="0" on="0"/>
        <pt x="411" y="0" on="1"/>
      </contour>
      <contour>
        <pt x="280" y="417" on="1"/>
        <pt x="481" y="417" on="1"/>
        <pt x="537" y="417" on="0"/>
        <pt x="594" y="471" on="0"/>
        <pt x="594" y="506" on="1"/>
        <pt x="594" y="536" on="0"/>
        <pt x="552" y="568" on="0"/>
        <pt x="506" y="568" on="1"/>
        <pt x="312" y="568" on="1"/>
      </contour>
      <contour>
        <pt x="254" y="297" on="1"/>
        <pt x="219" y="132" on="1"/>
        <pt x="429" y="132" on="1"/>
        <pt x="492" y="132" on="0"/>
        <pt x="551" y="192" on="0"/>
        <pt x="551" y="229" on="1"/>
        <pt x="551" y="260" on="0"/>
        <pt x="508" y="297" on="0"/>
        <pt x="453" y="297" on="1"/>
      </contour>
    </TTGlyph>
    <TTGlyph name="B.sc" xMin="43" yMin="0" xMax="668" yMax="596">
      <component glyphName="b.sc" x="0" y="0" flags="0x204"/>
    </TTGlyph>
    <TTGlyph name="C" xMin="73" yMin="-15" xMax="740" yMax="714">
      <contour>
        <pt x="484" y="714" on="1"/>
        <pt x="566" y="714" on="0"/>
        <pt x="698" y="666" on="0"/>
        <pt x="740" y="632" on="1"/>
        <pt x="710" y="489" on="1"/>
        <pt x="709" y="489" on="1"/>
        <pt x="669" y="523" on="0"/>
        <pt x="550" y="578" on="0"/>
        <pt x="481" y="578" on="1"/>
        <pt x="417" y="578" on="0"/>
        <pt x="321" y="533" on="0"/>
        <pt x="258" y="459" on="0"/>
        <pt x="227" y="362" on="0"/>
        <pt x="227" y="312" on="1"/>
        <pt x="227" y="219" on="0"/>
        <pt x="339" y="121" on="0"/>
        <pt x="433" y="121" on="1"/>
        <pt x="499" y="121" on="0"/>
        <pt x="618" y="158" on="0"/>
        <pt x="658" y="180" on="1"/>
        <pt x="659" y="180" on="1"/>
        <pt x="627" y="33" on="1"/>
        <pt x="592" y="11" on="0"/>
        <pt x="471" y="-15" on="0"/>
        <pt x="411" y="-15" on="1"/>
        <pt x="253" y="-15" on="0"/>
        <pt x="73" y="159" on="0"/>
        <pt x="73" y="305" on="1"/>
        <pt x="73" y="386" on="0"/>
        <pt x="129" y="534" on="0"/>
        <pt x="234" y="647" on="0"/>
        <pt x="387" y="714" on="0"/>
      </contour>
    </TTGlyph>
    <TTGlyph name="C.sc" xMin="66" yMin="-16" xMax="649" yMax="611">
      <component glyphName="c.sc" x="0" y="0" flags="0x204"/>
    </TTGlyph>
    <TTGlyph name="Cacute" xMin="73" yMin="-15" xMax="767" yMax="956">
      <component glyphName="C" x="0" y="0" flags="0x204"/>
      <component glyphName="acute" x="227" y="174" flags="0x4"/>
    </TTGlyph>
    <TTGlyph name="Cacute.sc" xMin="66" yMin="-16" xMax="704" yMax="853">
      <component glyphName="cacute.sc" x="0" y="0" flags="0x204"/>
    </TTGlyph>
    <TTGlyph name="Ccaron" xMin="73" yMin="-15" xMax="763" yMax="972">
      <component glyphName="C" x="0" y="0" flags="0x204"/>
      <component glyphName="caron" x="174" y="174" flags="0x4"/>
    </TTGlyph>
    <TTGlyph name="Ccaron.sc" xMin="66" yMin="-16" xMax="700" yMax="869">
      <component glyphName="ccaron.sc" x="0" y="0" flags="0x204"/>
    </TTGlyph>
    <TTGlyph name="Ccedilla" xMin="73" yMin="-182" xMax="740" yMax="714">
      <contour>
        <pt x="484" y="714" on="1"/>
        <pt x="566" y="714" on="0"/>
        <pt x="698" y="666" on="0"/>
        <pt x="740" y="632" on="1"/>
        <pt x="710" y="489" on="1"/>
        <pt x="709" y="489" on="1"/>
        <pt x="669" y="523" on="0"/>
        <pt x="550" y="578" on="0"/>
        <pt x="481" y="578" on="1"/>
        <pt x="417" y="578" on="0"/>
        <pt x="321" y="533" on="0"/>
        <pt x="258" y="459" on="0"/>
        <pt x="227" y="362" on="0"/>
        <pt x="227" y="312" on="1"/>
        <pt x="227" y="219" on="0"/>
        <pt x="339" y="121" on="0"/>
        <pt x="433" y="121" on="1"/>
        <pt x="499" y="121" on="0"/>
        <pt x="618" y="158" on="0"/>
        <pt x="658" y="180" on="1"/>
        <pt x="659" y="180" on="1"/>
        <pt x="627" y="33" on="1"/>
        <pt x="593" y="11" on="0"/>
        <pt x="479" y="-14" on="0"/>
        <pt x="422" y="-15" on="1"/>
        <pt x="311" y="-182" on="1"/>
        <pt x="131" y="-182" on="1"/>
        <pt x="133" y="-174" on="1"/>
        <pt x="307" y="-4" on="1"/>
        <pt x="197" y="22" on="0"/>
        <pt x="73" y="185" on="0"/>
        <pt x="73" y="305" on="1"/>
        <pt x="73" y="386" on="0"/>
        <pt x="129" y="534" on="0"/>
        <pt x="234" y="647" on="0"/>
        <pt x="387" y="714" on="0"/>
      </contour>
    </TTGlyph>
    <TTGlyph name="Ccedilla.sc" xMin="66" yMin="-182" xMax="649" yMax="611">
      <component glyphName="ccedilla.sc" x="0" y="0" flags="0x204"/>
    </TTGlyph>
    <TTGlyph name="Cdotaccent" xMin="73" yMin="-15" xMax="740" yMax="949">
      <component glyphName="C" x="0" y="0" flags="0x204"/>
      <component glyphName="dotaccent" x="173" y="174" flags="0x4"/>
    </TTGlyph>
    <TTGlyph name="Cdotaccent.sc" xMin="66" yMin="-16" xMax="649" yMax="846">
      <component glyphName="cdotaccent.sc" x="0" y="0" flags="0x204"/>
    </TTGlyph>
    <TTGlyph name="D" xMin="41" yMin="0" xMax="776" yMax="700">
      <contour>
        <pt x="41" y="0" on="1"/>
        <pt x="190" y="700" on="1"/>
        <pt x="443" y="700" on="1"/>
        <pt x="613" y="700" on="0"/>
        <pt x="776" y="542" on="0"/>
        <pt x="776" y="411" on="1"/>
        <pt x="776" y="333" on="0"/>
        <pt x="727" y="184" on="0"/>
        <pt x="620" y="70" on="0"/>
        <pt x="446" y="0" on="0"/>
        <pt x="323" y="0" on="1"/>
      </contour>
      <contour>
        <pt x="622" y="405" on="1"/>
        <pt x="622" y="477" on="0"/>
        <pt x="532" y="564" on="0"/>
        <pt x="422" y="564" on="1"/>
        <pt x="312" y="564" on="1"/>
        <pt x="221" y="136" on="1"/>
        <pt x="342" y="136" on="1"/>
        <pt x="420" y="136" on="0"/>
        <pt x="528" y="181" on="0"/>
        <pt x="593" y="255" on="0"/>
        <pt x="622" y="352" on="0"/>
      </contour>
    </TTGlyph>
    <TTGlyph name="D.sc" xMin="43" yMin="0" xMax="695" yMax="596">
      <component glyphName="d.sc" x="0" y="0" flags="0x204"/>
    </TTGlyph>
    <TTGlyph name="Dcaron" xMin="41" yMin="0" xMax="776" yMax="958">
      <component glyphName="D" x="0" y="0" flags="0x204"/>
      <component glyphName="caron" x="151" y="160" flags="0x4"/>
    </TTGlyph>
    <TTGlyph name="Dcaron.sc" xMin="43" yMin="0" xMax="695" yMax="854">
      <component glyphName="dcaron.sc" x="0" y="0" flags="0x204"/>
    </TTGlyph>
    <TTGlyph name="Dcroat" xMin="41" yMin="0" xMax="802" yMax="700">
      <component glyphName="Eth" x="0" y="0" flags="0x204"/>
    </TTGlyph>
    <TTGlyph name="Dcroat.sc" xMin="35" yMin="0" xMax="725" yMax="596">
      <component glyphName="dcroat.sc" x="0" y="0" flags="0x204"/>
    </TTGlyph>
    <TTGlyph name="E" xMin="41" yMin="0" xMax="721" yMax="700">
      <contour>
        <pt x="312" y="565" on="1"/>
        <pt x="283" y="430" on="1"/>
        <pt x="595" y="430" on="1"/>
        <pt x="565" y="297" on="1"/>
        <pt x="255" y="297" on="1"/>
        <pt x="221" y="135" on="1"/>
        <pt x="633" y="135" on="1"/>
        <pt x="595" y="0" on="1"/>
        <pt x="41" y="0" on="1"/>
        <pt x="190" y="700" on="1"/>
        <pt x="721" y="700" on="1"/>
        <pt x="706" y="565" on="1"/>
      </contour>
    </TTGlyph>
    <TTGlyph name="E.sc" xMin="43" yMin="0" xMax="643" yMax="596">
      <component glyphName="e.sc" x="0" y="0" flags="0x204"/>
    </TTGlyph>
    <TTGlyph name="Eacute" xMin="41" yMin="0" xMax="744" yMax="942">
      <component glyphName="E" x="0" y="0" flags="0x204"/>
      <component glyphName="acute" x="204" y="160" flags="0x4"/>
    </TTGlyph>
    <TTGlyph name="Eacute.sc" xMin="43" yMin="0" xMax="689" yMax="838">
      <component glyphName="eacute.sc" x="0" y="0" flags="0x204"/>
    </TTGlyph>
    <TTGlyph name="Ebreve" xMin="41" yMin="0" xMax="721" yMax="962">
      <component glyphName="E" x="0" y="0" flags="0x204"/>
      <component glyphName="breve" x="151" y="160" flags="0x4"/>
    </TTGlyph>
    <TTGlyph name="Ebreve.sc" xMin="43" yMin="0" xMax="643" yMax="858">
      <component glyphName="ebreve.sc" x="0" y="0" flags="0x204"/>
    </TTGlyph>
    <TTGlyph name="Ecaron" xMin="41" yMin="0" xMax="740" yMax="958">
      <component glyphName="E" x="0" y="0" flags="0x204"/>
      <component glyphName="caron" x="151" y="160" flags="0x4"/>
    </TTGlyph>
    <TTGlyph name="Ecaron.sc" xMin="43" yMin="0" xMax="685" yMax="854">
      <component glyphName="ecaron.sc" x="0" y="0" flags="0x204"/>
    </TTGlyph>
    <TTGlyph name="Ecircumflex" xMin="41" yMin="0" xMax="721" yMax="958">
      <component glyphName="E" x="0" y="0" flags="0x204"/>
      <component glyphName="circumflex" x="151" y="160" flags="0x4"/>
    </TTGlyph>
    <TTGlyph name="Ecircumflex.sc" xMin="43" yMin="0" xMax="647" yMax="854">
      <component glyphName="ecircumflex.sc" x="0" y="0" flags="0x204"/>
    </TTGlyph>
    <TTGlyph name="Edieresis" xMin="41" yMin="0" xMax="721" yMax="929">
      <component glyphName="E" x="0" y="0" flags="0x204"/>
      <component glyphName="dieresis" x="151" y="160" flags="0x4"/>
    </TTGlyph>
    <TTGlyph name="Edieresis.sc" xMin="43" yMin="0" xMax="653" yMax="825">
      <component glyphName="edieresis.sc" x="0" y="0" flags="0x204"/>
    </TTGlyph>
    <TTGlyph name="Edotaccent" xMin="41" yMin="0" xMax="721" yMax="935">
      <component glyphName="E" x="0" y="0" flags="0x204"/>
      <component glyphName="dotaccent" x="150" y="160" flags="0x4"/>
    </TTGlyph>
    <TTGlyph name="Edotaccent.sc" xMin="43" yMin="0" xMax="643" yMax="831">
      <component glyphName="edotaccent.sc" x="0" y="0" flags="0x204"/>
    </TTGlyph>
    <TTGlyph name="Egrave" xMin="41" yMin="0" xMax="721" yMax="942">
      <component glyphName="E" x="0" y="0" flags="0x204"/>
      <component glyphName="grave" x="95" y="160" flags="0x4"/>
    </TTGlyph>
    <TTGlyph name="Egrave.sc" xMin="43" yMin="0" xMax="643" yMax="838">
      <component glyphName="egrave.sc" x="0" y="0" flags="0x204"/>
    </TTGlyph>
    <TTGlyph name="Emacron" xMin="41" yMin="0" xMax="721" yMax="904">
      <component glyphName="E" x="0" y="0" flags="0x204"/>
      <component glyphName="macron" x="151" y="160" flags="0x4"/>
    </TTGlyph>
    <TTGlyph name="Emacron.sc" xMin="43" yMin="0" xMax="643" yMax="800">
      <component glyphName="emacron.sc" x="0" y="0" flags="0x204"/>
    </TTGlyph>
    <TTGlyph name="Eogonek" xMin="41" yMin="-289" xMax="721" yMax="700">
      <contour>
        <pt x="312" y="565" on="1"/>
        <pt x="283" y="430" on="1"/>
        <pt x="595" y="430" on="1"/>
        <pt x="565" y="297" on="1"/>
        <pt x="255" y="297" on="1"/>
        <pt x="221" y="135" on="1"/>
        <pt x="633" y="135" on="1"/>
        <pt x="595" y="0" on="1"/>
        <pt x="529" y="-52" on="1"/>
        <pt x="480" y="-90" on="0"/>
        <pt x="441" y="-133" on="0"/>
        <pt x="441" y="-151" on="1"/>
        <pt x="441" y="-164" on="0"/>
        <pt x="462" y="-180" on="0"/>
        <pt x="488" y="-180" on="1"/>
        <pt x="505" y="-180" on="0"/>
        <pt x="546" y="-172" on="0"/>
        <pt x="572" y="-162" on="1"/>
        <pt x="549" y="-267" on="1"/>
        <pt x="525" y="-278" on="0"/>
        <pt x="475" y="-289" on="0"/>
        <pt x="447" y="-289" on="1"/>
        <pt x="379" y="-289" on="0"/>
        <pt x="305" y="-226" on="0"/>
        <pt x="305" y="-181" on="1"/>
        <pt x="305" y="-132" on="0"/>
        <pt x="383" y="-45" on="0"/>
        <pt x="444" y="0" on="1"/>
        <pt x="41" y="0" on="1"/>
        <pt x="190" y="700" on="1"/>
        <pt x="721" y="700" on="1"/>
        <pt x="706" y="565" on="1"/>
      </contour>
    </TTGlyph>
    <TTGlyph name="Eogonek.sc" xMin="43" yMin="-289" xMax="643" yMax="596">
      <component glyphName="eogonek.sc" x="0" y="0" flags="0x204"/>
    </TTGlyph>
    <TTGlyph name="Eth" xMin="41" yMin="0" xMax="802" yMax="700">
      <contour>
        <pt x="67" y="0" on="1"/>
        <pt x="130" y="295" on="1"/>
        <pt x="41" y="295" on="1"/>
        <pt x="72" y="407" on="1"/>
        <pt x="154" y="407" on="1"/>
        <pt x="216" y="700" on="1"/>
        <pt x="469" y="700" on="1"/>
        <pt x="639" y="700" on="0"/>
        <pt x="802" y="542" on="0"/>
        <pt x="802" y="411" on="1"/>
        <pt x="802" y="333" on="0"/>
        <pt x="753" y="184" on="0"/>
        <pt x="646" y="70" on="0"/>
        <pt x="472" y="0" on="0"/>
        <pt x="349" y="0" on="1"/>
      </contour>
      <contour>
        <pt x="648" y="405" on="1"/>
        <pt x="648" y="478" on="0"/>
        <pt x="558" y="564" on="0"/>
        <pt x="448" y="564" on="1"/>
        <pt x="338" y="564" on="1"/>
        <pt x="305" y="407" on="1"/>
        <pt x="500" y="407" on="1"/>
        <pt x="476" y="295" on="1"/>
        <pt x="281" y="295" on="1"/>
        <pt x="247" y="136" on="1"/>
        <pt x="368" y="136" on="1"/>
        <pt x="446" y="136" on="0"/>
        <pt x="554" y="181" on="0"/>
        <pt x="619" y="255" on="0"/>
        <pt x="648" y="352" on="0"/>
      </contour>
    </TTGlyph>
    <TTGlyph name="Eth.sc" xMin="35" yMin="0" xMax="725" yMax="596">
      <component glyphName="eth.sc" x="0" y="0" flags="0x204"/>
    </TTGlyph>
    <TTGlyph name="Euro" xMin="24" yMin="-12" xMax="736" yMax="712">
      <contour>
        <pt x="24" y="221" on="1"/>
        <pt x="51" y="318" on="1"/>
        <pt x="143" y="318" on="1"/>
        <pt x="144" y="336" on="0"/>
        <pt x="148" y="371" on="0"/>
        <pt x="151" y="388" on="1"/>
        <pt x="69" y="388" on="1"/>
        <pt x="96" y="485" on="1"/>
        <pt x="182" y="485" on="1"/>
        <pt x="204" y="534" on="0"/>
        <pt x="271" y="618" on="0"/>
        <pt x="356" y="678" on="0"/>
        <pt x="461" y="712" on="0"/>
        <pt x="521" y="712" on="1"/>
        <pt x="599" y="712" on="0"/>
        <pt x="705" y="667" on="0"/>
        <pt x="736" y="641" on="1"/>
        <pt x="709" y="516" on="1"/>
        <pt x="708" y="516" on="1"/>
        <pt x="673" y="542" on="0"/>
        <pt x="580" y="586" on="0"/>
        <pt x="521" y="586" on="1"/>
        <pt x="458" y="586" on="0"/>
        <pt x="364" y="531" on="0"/>
        <pt x="334" y="485" on="1"/>
        <pt x="572" y="485" on="1"/>
        <pt x="552" y="388" on="1"/>
        <pt x="293" y="388" on="1"/>
        <pt x="289" y="371" on="0"/>
        <pt x="284" y="336" on="0"/>
        <pt x="283" y="318" on="1"/>
        <pt x="536" y="318" on="1"/>
        <pt x="515" y="221" on="1"/>
        <pt x="292" y="221" on="1"/>
        <pt x="309" y="166" on="0"/>
        <pt x="398" y="114" on="0"/>
        <pt x="463" y="114" on="1"/>
        <pt x="515" y="114" on="0"/>
        <pt x="614" y="143" on="0"/>
        <pt x="647" y="158" on="1"/>
        <pt x="648" y="158" on="1"/>
        <pt x="619" y="24" on="1"/>
        <pt x="590" y="10" on="0"/>
        <pt x="497" y="-12" on="0"/>
        <pt x="445" y="-12" on="1"/>
        <pt x="323" y="-12" on="0"/>
        <pt x="167" y="110" on="0"/>
        <pt x="148" y="221" on="1"/>
      </contour>
    </TTGlyph>
    <TTGlyph name="Euro.tab" xMin="34" yMin="-12" xMax="726" yMax="712">
      <contour>
        <pt x="34" y="221" on="1"/>
        <pt x="61" y="318" on="1"/>
        <pt x="152" y="318" on="1"/>
        <pt x="153" y="336" on="0"/>
        <pt x="157" y="371" on="0"/>
        <pt x="161" y="388" on="1"/>
        <pt x="79" y="388" on="1"/>
        <pt x="106" y="485" on="1"/>
        <pt x="190" y="485" on="1"/>
        <pt x="211" y="534" on="0"/>
        <pt x="276" y="618" on="0"/>
        <pt x="360" y="678" on="0"/>
        <pt x="463" y="712" on="0"/>
        <pt x="521" y="712" on="1"/>
        <pt x="596" y="712" on="0"/>
        <pt x="697" y="666" on="0"/>
        <pt x="726" y="639" on="1"/>
        <pt x="699" y="514" on="1"/>
        <pt x="698" y="514" on="1"/>
        <pt x="665" y="541" on="0"/>
        <pt x="577" y="586" on="0"/>
        <pt x="521" y="586" on="1"/>
        <pt x="461" y="586" on="0"/>
        <pt x="370" y="530" on="0"/>
        <pt x="341" y="485" on="1"/>
        <pt x="572" y="485" on="1"/>
        <pt x="552" y="388" on="1"/>
        <pt x="302" y="388" on="1"/>
        <pt x="298" y="371" on="0"/>
        <pt x="293" y="336" on="0"/>
        <pt x="292" y="318" on="1"/>
        <pt x="536" y="318" on="1"/>
        <pt x="515" y="221" on="1"/>
        <pt x="302" y="221" on="1"/>
        <pt x="318" y="166" on="0"/>
        <pt x="402" y="114" on="0"/>
        <pt x="463" y="114" on="1"/>
        <pt x="512" y="114" on="0"/>
        <pt x="606" y="142" on="0"/>
        <pt x="637" y="156" on="1"/>
        <pt x="638" y="156" on="1"/>
        <pt x="609" y="22" on="1"/>
        <pt x="581" y="9" on="0"/>
        <pt x="494" y="-12" on="0"/>
        <pt x="445" y="-12" on="1"/>
        <pt x="327" y="-12" on="0"/>
        <pt x="177" y="110" on="0"/>
        <pt x="158" y="221" on="1"/>
      </contour>
    </TTGlyph>
    <TTGlyph name="F" xMin="41" yMin="0" xMax="708" yMax="700">
      <contour>
        <pt x="312" y="565" on="1"/>
        <pt x="277" y="398" on="1"/>
        <pt x="592" y="398" on="1"/>
        <pt x="563" y="265" on="1"/>
        <pt x="248" y="265" on="1"/>
        <pt x="192" y="0" on="1"/>
        <pt x="41" y="0" on="1"/>
        <pt x="190" y="700" on="1"/>
        <pt x="708" y="700" on="1"/>
        <pt x="693" y="565" on="1"/>
      </contour>
    </TTGlyph>
    <TTGlyph name="F.sc" xMin="43" yMin="0" xMax="625" yMax="596">
      <component glyphName="f.sc" x="0" y="0" flags="0x204"/>
    </TTGlyph>
    <TTGlyph name="G" xMin="73" yMin="-16" xMax="799" yMax="714">
      <contour>
        <pt x="487" y="578" on="1"/>
        <pt x="424" y="578" on="0"/>
        <pt x="326" y="535" on="0"/>
        <pt x="261" y="462" on="0"/>
        <pt x="227" y="365" on="0"/>
        <pt x="227" y="312" on="1"/>
        <pt x="227" y="220" on="0"/>
        <pt x="334" y="118" on="0"/>
        <pt x="425" y="118" on="1"/>
        <pt x="514" y="118" on="0"/>
        <pt x="617" y="207" on="0"/>
        <pt x="631" y="280" on="1"/>
        <pt x="404" y="280" on="1"/>
        <pt x="431" y="407" on="1"/>
        <pt x="799" y="407" on="1"/>
        <pt x="792" y="297" on="0"/>
        <pt x="730" y="134" on="0"/>
        <pt x="678" y="82" on="1"/>
        <pt x="629" y="33" on="0"/>
        <pt x="494" y="-16" on="0"/>
        <pt x="413" y="-16" on="1"/>
        <pt x="336" y="-16" on="0"/>
        <pt x="210" y="27" on="0"/>
        <pt x="122" y="109" on="0"/>
        <pt x="73" y="227" on="0"/>
        <pt x="73" y="302" on="1"/>
        <pt x="73" y="383" on="0"/>
        <pt x="128" y="533" on="0"/>
        <pt x="234" y="646" on="0"/>
        <pt x="391" y="714" on="0"/>
        <pt x="492" y="714" on="1"/>
        <pt x="576" y="714" on="0"/>
        <pt x="718" y="657" on="0"/>
        <pt x="758" y="620" on="1"/>
        <pt x="728" y="479" on="1"/>
        <pt x="727" y="479" on="1"/>
        <pt x="689" y="515" on="0"/>
        <pt x="565" y="578" on="0"/>
      </contour>
    </TTGlyph>
    <TTGlyph name="G.sc" xMin="65" yMin="-16" xMax="702" yMax="610">
      <component glyphName="g.sc" x="0" y="0" flags="0x204"/>
    </TTGlyph>
    <TTGlyph name="Gbreve" xMin="73" yMin="-16" xMax="799" yMax="976">
      <component glyphName="G" x="0" y="0" flags="0x204"/>
      <component glyphName="breve" x="188" y="174" flags="0x4"/>
    </TTGlyph>
    <TTGlyph name="Gbreve.sc" xMin="65" yMin="-16" xMax="702" yMax="872">
      <component glyphName="gbreve.sc" x="0" y="0" flags="0x204"/>
    </TTGlyph>
    <TTGlyph name="Gdotaccent" xMin="73" yMin="-16" xMax="799" yMax="949">
      <component glyphName="G" x="0" y="0" flags="0x204"/>
      <component glyphName="dotaccent" x="187" y="174" flags="0x4"/>
    </TTGlyph>
    <TTGlyph name="Gdotaccent.sc" xMin="65" yMin="-16" xMax="702" yMax="845">
      <component glyphName="gdotaccent.sc" x="0" y="0" flags="0x204"/>
    </TTGlyph>
    <TTGlyph name="H" xMin="41" yMin="0" xMax="829" yMax="700">
      <contour>
        <pt x="529" y="0" on="1"/>
        <pt x="592" y="294" on="1"/>
        <pt x="255" y="294" on="1"/>
        <pt x="192" y="0" on="1"/>
        <pt x="41" y="0" on="1"/>
        <pt x="190" y="700" on="1"/>
        <pt x="341" y="700" on="1"/>
        <pt x="284" y="430" on="1"/>
        <pt x="621" y="430" on="1"/>
        <pt x="678" y="700" on="1"/>
        <pt x="829" y="700" on="1"/>
        <pt x="680" y="0" on="1"/>
      </contour>
    </TTGlyph>
    <TTGlyph name="H.sc" xMin="43" yMin="0" xMax="748" yMax="596">
      <component glyphName="h.sc" x="0" y="0" flags="0x204"/>
    </TTGlyph>
    <TTGlyph name="Hbar" xMin="67" yMin="0" xMax="911" yMax="700">
      <contour>
        <pt x="83" y="494" on="1"/>
        <pt x="114" y="606" on="1"/>
        <pt x="196" y="606" on="1"/>
        <pt x="216" y="700" on="1"/>
        <pt x="367" y="700" on="1"/>
        <pt x="346" y="602" on="1"/>
        <pt x="683" y="602" on="1"/>
        <pt x="704" y="700" on="1"/>
        <pt x="855" y="700" on="1"/>
        <pt x="835" y="606" on="1"/>
        <pt x="911" y="606" on="1"/>
        <pt x="902" y="494" on="1"/>
        <pt x="811" y="494" on="1"/>
        <pt x="706" y="0" on="1"/>
        <pt x="555" y="0" on="1"/>
        <pt x="610" y="260" on="1"/>
        <pt x="273" y="260" on="1"/>
        <pt x="218" y="0" on="1"/>
        <pt x="67" y="0" on="1"/>
        <pt x="172" y="494" on="1"/>
      </contour>
      <contour>
        <pt x="302" y="396" on="1"/>
        <pt x="639" y="396" on="1"/>
        <pt x="661" y="500" on="1"/>
        <pt x="324" y="500" on="1"/>
      </contour>
    </TTGlyph>
    <TTGlyph name="Hbar.sc" xMin="63" yMin="0" xMax="847" yMax="596">
      <component glyphName="hbar.sc" x="0" y="0" flags="0x204"/>
    </TTGlyph>
    <TTGlyph name="I" xMin="41" yMin="0" xMax="341" yMax="700">
      <contour>
        <pt x="192" y="0" on="1"/>
        <pt x="41" y="0" on="1"/>
        <pt x="190" y="700" on="1"/>
        <pt x="341" y="700" on="1"/>
      </contour>
    </TTGlyph>
    <TTGlyph name="I.sc" xMin="43" yMin="0" xMax="314" yMax="596">
      <component glyphName="i.sc" x="0" y="0" flags="0x204"/>
    </TTGlyph>
    <TTGlyph name="Iacute" xMin="41" yMin="0" xMax="563" yMax="942">
      <component glyphName="I" x="0" y="0" flags="0x204"/>
      <component glyphName="acute" x="23" y="160" flags="0x4"/>
    </TTGlyph>
    <TTGlyph name="Iacute.sc" xMin="43" yMin="0" xMax="536" yMax="838">
      <component glyphName="iacute.sc" x="0" y="0" flags="0x204"/>
    </TTGlyph>
    <TTGlyph name="Ibreve" xMin="41" yMin="0" xMax="492" yMax="962">
      <component glyphName="I" x="0" y="0" flags="0x204"/>
      <component glyphName="breve" x="-44" y="160" flags="0x4"/>
    </TTGlyph>
    <TTGlyph name="Ibreve.sc" xMin="43" yMin="0" xMax="468" yMax="858">
      <component glyphName="ibreve.sc" x="0" y="0" flags="0x204"/>
    </TTGlyph>
    <TTGlyph name="Icircumflex" xMin="41" yMin="0" xMax="507" yMax="958">
      <component glyphName="I" x="0" y="0" flags="0x204"/>
      <component glyphName="circumflex" x="-44" y="160" flags="0x4"/>
    </TTGlyph>
    <TTGlyph name="Icircumflex.sc" xMin="35" yMin="0" xMax="483" yMax="854">
      <component glyphName="icircumflex.sc" x="0" y="0" flags="0x204"/>
    </TTGlyph>
    <TTGlyph name="Idieresis" xMin="41" yMin="0" xMax="512" yMax="929">
      <component glyphName="I" x="0" y="0" flags="0x204"/>
      <component glyphName="dieresis" x="-45" y="160" flags="0x4"/>
    </TTGlyph>
    <TTGlyph name="Idieresis.sc" xMin="43" yMin="0" xMax="489" yMax="825">
      <component glyphName="idieresis.sc" x="0" y="0" flags="0x204"/>
    </TTGlyph>
    <TTGlyph name="Idotaccent" xMin="41" yMin="0" xMax="389" yMax="935">
      <component glyphName="I" x="0" y="0" flags="0x204"/>
      <component glyphName="dotaccent" x="-45" y="160" flags="0x4"/>
    </TTGlyph>
    <TTGlyph name="Idotaccent.sc" xMin="43" yMin="0" xMax="366" yMax="831">
      <component glyphName="idotaccent.sc" x="0" y="0" flags="0x204"/>
    </TTGlyph>
    <TTGlyph name="Igrave" xMin="41" yMin="0" xMax="343" yMax="942">
      <component glyphName="I" x="0" y="0" flags="0x204"/>
      <component glyphName="grave" x="-114" y="160" flags="0x4"/>
    </TTGlyph>
    <TTGlyph name="Igrave.sc" xMin="43" yMin="0" xMax="316" yMax="838">
      <component glyphName="igrave.sc" x="0" y="0" flags="0x204"/>
    </TTGlyph>
    <TTGlyph name="Imacron" xMin="41" yMin="0" xMax="497" yMax="904">
      <component glyphName="I" x="0" y="0" flags="0x204"/>
      <component glyphName="macron" x="-45" y="160" flags="0x4"/>
    </TTGlyph>
    <TTGlyph name="Imacron.sc" xMin="43" yMin="0" xMax="474" yMax="800">
      <component glyphName="imacron.sc" x="0" y="0" flags="0x204"/>
    </TTGlyph>
    <TTGlyph name="Iogonek" xMin="-98" yMin="-289" xMax="341" yMax="700">
      <contour>
        <pt x="192" y="0" on="1"/>
        <pt x="126" y="-52" on="1"/>
        <pt x="77" y="-90" on="0"/>
        <pt x="38" y="-133" on="0"/>
        <pt x="38" y="-151" on="1"/>
        <pt x="38" y="-164" on="0"/>
        <pt x="59" y="-180" on="0"/>
        <pt x="85" y="-180" on="1"/>
        <pt x="102" y="-180" on="0"/>
        <pt x="143" y="-172" on="0"/>
        <pt x="169" y="-162" on="1"/>
        <pt x="146" y="-267" on="1"/>
        <pt x="122" y="-278" on="0"/>
        <pt x="72" y="-289" on="0"/>
        <pt x="44" y="-289" on="1"/>
        <pt x="-24" y="-289" on="0"/>
        <pt x="-98" y="-226" on="0"/>
        <pt x="-98" y="-181" on="1"/>
        <pt x="-98" y="-131" on="0"/>
        <pt x="-18" y="-43" on="0"/>
        <pt x="41" y="0" on="1"/>
        <pt x="190" y="700" on="1"/>
        <pt x="341" y="700" on="1"/>
      </contour>
    </TTGlyph>
    <TTGlyph name="Iogonek.sc" xMin="-103" yMin="-289" xMax="314" yMax="596">
      <component glyphName="iogonek.sc" x="0" y="0" flags="0x204"/>
    </TTGlyph>
    <TTGlyph name="J" xMin="33" yMin="-16" xMax="671" yMax="700">
      <contour>
        <pt x="289" y="-16" on="1"/>
        <pt x="219" y="-16" on="0"/>
        <pt x="79" y="25" on="0"/>
        <pt x="33" y="65" on="1"/>
        <pt x="64" y="212" on="1"/>
        <pt x="65" y="212" on="1"/>
        <pt x="113" y="166" on="0"/>
        <pt x="231" y="123" on="0"/>
        <pt x="283" y="123" on="1"/>
        <pt x="343" y="123" on="0"/>
        <pt x="412" y="188" on="0"/>
        <pt x="428" y="263" on="1"/>
        <pt x="492" y="565" on="1"/>
        <pt x="238" y="565" on="1"/>
        <pt x="275" y="700" on="1"/>
        <pt x="671" y="700" on="1"/>
        <pt x="575" y="244" on="1"/>
        <pt x="547" y="110" on="0"/>
        <pt x="407" y="-16" on="0"/>
      </contour>
    </TTGlyph>
    <TTGlyph name="J.sc" xMin="29" yMin="-15" xMax="587" yMax="596">
      <component glyphName="j.sc" x="0" y="0" flags="0x204"/>
    </TTGlyph>
    <TTGlyph name="K" xMin="41" yMin="0" xMax="824" yMax="700">
      <contour>
        <pt x="41" y="0" on="1"/>
        <pt x="190" y="700" on="1"/>
        <pt x="341" y="700" on="1"/>
        <pt x="283" y="427" on="1"/>
        <pt x="367" y="427" on="1"/>
        <pt x="633" y="700" on="1"/>
        <pt x="824" y="700" on="1"/>
        <pt x="824" y="699" on="1"/>
        <pt x="479" y="351" on="1"/>
        <pt x="691" y="1" on="1"/>
        <pt x="691" y="0" on="1"/>
        <pt x="524" y="0" on="1"/>
        <pt x="349" y="289" on="1"/>
        <pt x="254" y="289" on="1"/>
        <pt x="192" y="0" on="1"/>
      </contour>
    </TTGlyph>
    <TTGlyph name="K.sc" xMin="43" yMin="0" xMax="748" yMax="596">
      <component glyphName="k.sc" x="0" y="0" flags="0x204"/>
    </TTGlyph>
    <TTGlyph name="L" xMin="41" yMin="0" xMax="593" yMax="700">
      <contour>
        <pt x="41" y="0" on="1"/>
        <pt x="190" y="700" on="1"/>
        <pt x="341" y="700" on="1"/>
        <pt x="221" y="139" on="1"/>
        <pt x="593" y="139" on="1"/>
        <pt x="555" y="0" on="1"/>
      </contour>
    </TTGlyph>
    <TTGlyph name="L.sc" xMin="43" yMin="0" xMax="530" yMax="596">
      <component glyphName="l.sc" x="0" y="0" flags="0x204"/>
    </TTGlyph>
    <TTGlyph name="Lacute" xMin="41" yMin="0" xMax="593" yMax="942">
      <component glyphName="L" x="0" y="0" flags="0x204"/>
      <component glyphName="acute" x="21" y="160" flags="0x4"/>
    </TTGlyph>
    <TTGlyph name="Lacute.sc" xMin="43" yMin="0" xMax="530" yMax="838">
      <component glyphName="lacute.sc" x="0" y="0" flags="0x204"/>
    </TTGlyph>
    <TTGlyph name="Lcaron" xMin="41" yMin="0" xMax="593" yMax="758">
      <component glyphName="L" x="0" y="0" flags="0x204"/>
      <component glyphName="caron.alt" x="129" y="0" flags="0x4"/>
    </TTGlyph>
    <TTGlyph name="Lcaron.sc" xMin="43" yMin="0" xMax="541" yMax="596">
      <component glyphName="lcaron.sc" x="0" y="0" flags="0x204"/>
    </TTGlyph>
    <TTGlyph name="Ldot" xMin="41" yMin="0" xMax="622" yMax="700">
      <contour>
        <pt x="41" y="0" on="1"/>
        <pt x="190" y="700" on="1"/>
        <pt x="341" y="700" on="1"/>
        <pt x="221" y="139" on="1"/>
        <pt x="593" y="139" on="1"/>
        <pt x="555" y="0" on="1"/>
      </contour>
      <contour>
        <pt x="437" y="420" on="1"/>
        <pt x="437" y="455" on="0"/>
        <pt x="489" y="509" on="0"/>
        <pt x="537" y="509" on="1"/>
        <pt x="579" y="509" on="0"/>
        <pt x="622" y="466" on="0"/>
        <pt x="622" y="435" on="1"/>
        <pt x="622" y="400" on="0"/>
        <pt x="568" y="346" on="0"/>
        <pt x="522" y="346" on="1"/>
        <pt x="479" y="346" on="0"/>
        <pt x="437" y="389" on="0"/>
      </contour>
    </TTGlyph>
    <TTGlyph name="Ldot.sc" xMin="43" yMin="0" xMax="584" yMax="596">
      <component glyphName="ldot.sc" x="0" y="0" flags="0x204"/>
    </TTGlyph>
    <TTGlyph name="Lslash" xMin="3" yMin="0" xMax="616" yMax="700">
      <contour>
        <pt x="64" y="0" on="1"/>
        <pt x="112" y="226" on="1"/>
        <pt x="3" y="175" on="1"/>
        <pt x="33" y="318" on="1"/>
        <pt x="143" y="369" on="1"/>
        <pt x="213" y="700" on="1"/>
        <pt x="364" y="700" on="1"/>
        <pt x="310" y="447" on="1"/>
        <pt x="525" y="547" on="1"/>
        <pt x="495" y="404" on="1"/>
        <pt x="279" y="304" on="1"/>
        <pt x="244" y="139" on="1"/>
        <pt x="616" y="139" on="1"/>
        <pt x="578" y="0" on="1"/>
      </contour>
    </TTGlyph>
    <TTGlyph name="Lslash.sc" xMin="24" yMin="0" xMax="563" yMax="596">
      <component glyphName="lslash.sc" x="0" y="0" flags="0x204"/>
    </TTGlyph>
    <TTGlyph name="M" xMin="41" yMin="0" xMax="961" yMax="700">
      <contour>
        <pt x="41" y="0" on="1"/>
        <pt x="190" y="700" on="1"/>
        <pt x="357" y="700" on="1"/>
        <pt x="488" y="304" on="1"/>
        <pt x="772" y="700" on="1"/>
        <pt x="961" y="700" on="1"/>
        <pt x="812" y="0" on="1"/>
        <pt x="664" y="0" on="1"/>
        <pt x="766" y="482" on="1"/>
        <pt x="447" y="43" on="1"/>
        <pt x="435" y="43" on="1"/>
        <pt x="290" y="474" on="1"/>
        <pt x="189" y="0" on="1"/>
      </contour>
    </TTGlyph>
    <TTGlyph name="M.sc" xMin="43" yMin="0" xMax="850" yMax="596">
      <component glyphName="m.sc" x="0" y="0" flags="0x204"/>
    </TTGlyph>
    <TTGlyph name="N" xMin="41" yMin="0" xMax="834" yMax="700">
      <contour>
        <pt x="41" y="0" on="1"/>
        <pt x="190" y="700" on="1"/>
        <pt x="361" y="700" on="1"/>
        <pt x="574" y="222" on="1"/>
        <pt x="584" y="222" on="1"/>
        <pt x="686" y="700" on="1"/>
        <pt x="834" y="700" on="1"/>
        <pt x="685" y="0" on="1"/>
        <pt x="525" y="0" on="1"/>
        <pt x="304" y="493" on="1"/>
        <pt x="294" y="493" on="1"/>
        <pt x="189" y="0" on="1"/>
      </contour>
    </TTGlyph>
    <TTGlyph name="N.sc" xMin="43" yMin="0" xMax="741" yMax="596">
      <component glyphName="n.sc" x="0" y="0" flags="0x204"/>
    </TTGlyph>
    <TTGlyph name="Nacute" xMin="41" yMin="0" xMax="834" yMax="917">
      <component glyphName="N" x="0" y="0" flags="0x204"/>
      <component glyphName="acute" x="250" y="135" flags="0x4"/>
    </TTGlyph>
    <TTGlyph name="Nacute.sc" xMin="43" yMin="0" xMax="742" yMax="813">
      <component glyphName="nacute.sc" x="0" y="0" flags="0x204"/>
    </TTGlyph>
    <TTGlyph name="Ncaron" xMin="41" yMin="0" xMax="834" yMax="933">
      <component glyphName="N" x="0" y="0" flags="0x204"/>
      <component glyphName="caron" x="197" y="135" flags="0x4"/>
    </TTGlyph>
    <TTGlyph name="Ncaron.sc" xMin="43" yMin="0" xMax="741" yMax="829">
      <component glyphName="ncaron.sc" x="0" y="0" flags="0x204"/>
    </TTGlyph>
    <TTGlyph name="Ntilde" xMin="41" yMin="0" xMax="834" yMax="939">
      <component glyphName="N" x="0" y="0" flags="0x204"/>
      <component glyphName="tilde" x="202" y="160" flags="0x4"/>
    </TTGlyph>
    <TTGlyph name="Ntilde.sc" xMin="43" yMin="0" xMax="741" yMax="835">
      <component glyphName="ntilde.sc" x="0" y="0" flags="0x204"/>
    </TTGlyph>
    <TTGlyph name="O" xMin="73" yMin="-16" xMax="814" yMax="715">
      <contour>
        <pt x="405" y="-16" on="1"/>
        <pt x="331" y="-16" on="0"/>
        <pt x="208" y="29" on="0"/>
        <pt x="121" y="111" on="0"/>
        <pt x="73" y="230" on="0"/>
        <pt x="73" y="302" on="1"/>
        <pt x="73" y="381" on="0"/>
        <pt x="127" y="530" on="0"/>
        <pt x="231" y="645" on="0"/>
        <pt x="384" y="715" on="0"/>
        <pt x="482" y="715" on="1"/>
        <pt x="556" y="715" on="0"/>
        <pt x="679" y="670" on="0"/>
        <pt x="766" y="588" on="0"/>
        <pt x="814" y="469" on="0"/>
        <pt x="814" y="397" on="1"/>
        <pt x="814" y="318" on="0"/>
        <pt x="760" y="169" on="0"/>
        <pt x="656" y="54" on="0"/>
        <pt x="503" y="-16" on="0"/>
      </contour>
      <contour>
        <pt x="417" y="120" on="1"/>
        <pt x="474" y="120" on="0"/>
        <pt x="565" y="163" on="0"/>
        <pt x="628" y="237" on="0"/>
        <pt x="661" y="334" on="0"/>
        <pt x="661" y="388" on="1"/>
        <pt x="661" y="475" on="0"/>
        <pt x="563" y="579" on="0"/>
        <pt x="470" y="579" on="1"/>
        <pt x="413" y="579" on="0"/>
        <pt x="322" y="536" on="0"/>
        <pt x="259" y="462" on="0"/>
        <pt x="226" y="365" on="0"/>
        <pt x="226" y="311" on="1"/>
        <pt x="226" y="224" on="0"/>
        <pt x="324" y="120" on="0"/>
      </contour>
    </TTGlyph>
    <TTGlyph name="O.sc" xMin="65" yMin="-17" xMax="718" yMax="614">
      <component glyphName="o.sc" x="0" y="0" flags="0x204"/>
    </TTGlyph>
    <TTGlyph name="OE" xMin="71" yMin="0" xMax="1186" yMax="700">
      <contour>
        <pt x="777" y="565" on="1"/>
        <pt x="748" y="430" on="1"/>
        <pt x="1060" y="430" on="1"/>
        <pt x="1030" y="297" on="1"/>
        <pt x="720" y="297" on="1"/>
        <pt x="686" y="135" on="1"/>
        <pt x="1098" y="135" on="1"/>
        <pt x="1060" y="0" on="1"/>
        <pt x="404" y="0" on="1"/>
        <pt x="234" y="0" on="0"/>
        <pt x="71" y="158" on="0"/>
        <pt x="71" y="289" on="1"/>
        <pt x="71" y="367" on="0"/>
        <pt x="120" y="516" on="0"/>
        <pt x="227" y="630" on="0"/>
        <pt x="401" y="700" on="0"/>
        <pt x="524" y="700" on="1"/>
        <pt x="1186" y="700" on="1"/>
        <pt x="1171" y="565" on="1"/>
      </contour>
      <contour>
        <pt x="225" y="295" on="1"/>
        <pt x="225" y="222" on="0"/>
        <pt x="315" y="136" on="0"/>
        <pt x="425" y="136" on="1"/>
        <pt x="535" y="136" on="1"/>
        <pt x="626" y="564" on="1"/>
        <pt x="505" y="564" on="1"/>
        <pt x="427" y="564" on="0"/>
        <pt x="319" y="519" on="0"/>
        <pt x="254" y="445" on="0"/>
        <pt x="225" y="348" on="0"/>
      </contour>
    </TTGlyph>
    <TTGlyph name="OE.sc" xMin="63" yMin="0" xMax="1044" yMax="596">
      <component glyphName="oe.sc" x="0" y="0" flags="0x204"/>
    </TTGlyph>
    <TTGlyph name="Oacute" xMin="73" yMin="-16" xMax="814" yMax="957">
      <component glyphName="O" x="0" y="0" flags="0x204"/>
      <component glyphName="acute" x="246" y="175" flags="0x4"/>
    </TTGlyph>
    <TTGlyph name="Oacute.sc" xMin="65" yMin="-17" xMax="718" yMax="856">
      <component glyphName="oacute.sc" x="0" y="0" flags="0x204"/>
    </TTGlyph>
    <TTGlyph name="Obreve" xMin="73" yMin="-16" xMax="814" yMax="977">
      <component glyphName="O" x="0" y="0" flags="0x204"/>
      <component glyphName="breve" x="193" y="175" flags="0x4"/>
    </TTGlyph>
    <TTGlyph name="Obreve.sc" xMin="65" yMin="-17" xMax="718" yMax="876">
      <component glyphName="obreve.sc" x="0" y="0" flags="0x204"/>
    </TTGlyph>
    <TTGlyph name="Ocircumflex" xMin="73" yMin="-16" xMax="814" yMax="973">
      <component glyphName="O" x="0" y="0" flags="0x204"/>
      <component glyphName="circumflex" x="193" y="175" flags="0x4"/>
    </TTGlyph>
    <TTGlyph name="Ocircumflex.sc" xMin="65" yMin="-17" xMax="718" yMax="872">
      <component glyphName="ocircumflex.sc" x="0" y="0" flags="0x204"/>
    </TTGlyph>
    <TTGlyph name="Odieresis" xMin="73" yMin="-16" xMax="814" yMax="944">
      <component glyphName="O" x="0" y="0" flags="0x204"/>
      <component glyphName="dieresis" x="193" y="175" flags="0x4"/>
    </TTGlyph>
    <TTGlyph name="Odieresis.sc" xMin="65" yMin="-17" xMax="718" yMax="843">
      <component glyphName="odieresis.sc" x="0" y="0" flags="0x204"/>
    </TTGlyph>
    <TTGlyph name="Ograve" xMin="73" yMin="-16" xMax="814" yMax="957">
      <component glyphName="O" x="0" y="0" flags="0x204"/>
      <component glyphName="grave" x="137" y="175" flags="0x4"/>
    </TTGlyph>
    <TTGlyph name="Ograve.sc" xMin="65" yMin="-17" xMax="718" yMax="856">
      <component glyphName="ograve.sc" x="0" y="0" flags="0x204"/>
    </TTGlyph>
    <TTGlyph name="Ohungarumlaut" xMin="73" yMin="-16" xMax="879" yMax="957">
      <component glyphName="O" x="0" y="0" flags="0x204"/>
      <component glyphName="hungarumlaut" x="253" y="175" flags="0x4"/>
    </TTGlyph>
    <TTGlyph name="Ohungarumlaut.sc" xMin="65" yMin="-17" xMax="799" yMax="856">
      <component glyphName="ohungarumlaut.sc" x="0" y="0" flags="0x204"/>
    </TTGlyph>
    <TTGlyph name="Omacron" xMin="73" yMin="-16" xMax="814" yMax="919">
      <component glyphName="O" x="0" y="0" flags="0x204"/>
      <component glyphName="macron" x="192" y="175" flags="0x4"/>
    </TTGlyph>
    <TTGlyph name="Omacron.sc" xMin="65" yMin="-17" xMax="718" yMax="818">
      <component glyphName="omacron.sc" x="0" y="0" flags="0x204"/>
    </TTGlyph>
    <TTGlyph name="Oslash" xMin="-10" yMin="-60" xMax="897" yMax="760">
      <contour>
        <pt x="-10" y="-60" on="1"/>
        <pt x="137" y="103" on="1"/>
        <pt x="106" y="142" on="0"/>
        <pt x="73" y="244" on="0"/>
        <pt x="73" y="304" on="1"/>
        <pt x="73" y="382" on="0"/>
        <pt x="127" y="531" on="0"/>
        <pt x="231" y="645" on="0"/>
        <pt x="383" y="715" on="0"/>
        <pt x="480" y="715" on="1"/>
        <pt x="529" y="715" on="0"/>
        <pt x="618" y="695" on="0"/>
        <pt x="655" y="676" on="1"/>
        <pt x="730" y="760" on="1"/>
        <pt x="897" y="760" on="1"/>
        <pt x="750" y="597" on="1"/>
        <pt x="781" y="558" on="0"/>
        <pt x="814" y="456" on="0"/>
        <pt x="814" y="396" on="1"/>
        <pt x="814" y="318" on="0"/>
        <pt x="760" y="169" on="0"/>
        <pt x="656" y="55" on="0"/>
        <pt x="504" y="-15" on="0"/>
        <pt x="407" y="-15" on="1"/>
        <pt x="358" y="-15" on="0"/>
        <pt x="269" y="5" on="0"/>
        <pt x="232" y="24" on="1"/>
        <pt x="157" y="-60" on="1"/>
      </contour>
      <contour>
        <pt x="222" y="308" on="1"/>
        <pt x="222" y="280" on="0"/>
        <pt x="234" y="229" on="0"/>
        <pt x="245" y="207" on="1"/>
        <pt x="564" y="566" on="1"/>
        <pt x="545" y="575" on="0"/>
        <pt x="497" y="584" on="0"/>
        <pt x="470" y="584" on="1"/>
        <pt x="411" y="584" on="0"/>
        <pt x="318" y="539" on="0"/>
        <pt x="255" y="464" on="0"/>
        <pt x="222" y="364" on="0"/>
      </contour>
      <contour>
        <pt x="417" y="116" on="1"/>
        <pt x="476" y="116" on="0"/>
        <pt x="569" y="161" on="0"/>
        <pt x="632" y="236" on="0"/>
        <pt x="665" y="336" on="0"/>
        <pt x="665" y="392" on="1"/>
        <pt x="665" y="420" on="0"/>
        <pt x="653" y="471" on="0"/>
        <pt x="642" y="493" on="1"/>
        <pt x="323" y="134" on="1"/>
        <pt x="342" y="125" on="0"/>
        <pt x="390" y="116" on="0"/>
      </contour>
    </TTGlyph>
    <TTGlyph name="Oslash.sc" xMin="-12" yMin="-60" xMax="794" yMax="654">
      <component glyphName="oslash.sc" x="0" y="0" flags="0x204"/>
    </TTGlyph>
    <TTGlyph name="Oslashacute" xMin="-10" yMin="-60" xMax="897" yMax="958">
      <component glyphName="Oslash" x="0" y="0" flags="0x204"/>
      <component glyphName="acute" x="246" y="176" flags="0x4"/>
    </TTGlyph>
    <TTGlyph name="Oslashacute.sc" xMin="-12" yMin="-60" xMax="794" yMax="856">
      <component glyphName="oslashacute.sc" x="0" y="0" flags="0x204"/>
    </TTGlyph>
    <TTGlyph name="Otilde" xMin="73" yMin="-16" xMax="814" yMax="954">
      <component glyphName="O" x="0" y="0" flags="0x204"/>
      <component glyphName="tilde" x="193" y="175" flags="0x4"/>
    </TTGlyph>
    <TTGlyph name="Otilde.sc" xMin="65" yMin="-17" xMax="718" yMax="853">
      <component glyphName="otilde.sc" x="0" y="0" flags="0x204"/>
    </TTGlyph>
    <TTGlyph name="P" xMin="41" yMin="0" xMax="738" yMax="700">
      <contour>
        <pt x="446" y="189" on="1"/>
        <pt x="232" y="189" on="1"/>
        <pt x="192" y="0" on="1"/>
        <pt x="41" y="0" on="1"/>
        <pt x="190" y="700" on="1"/>
        <pt x="488" y="700" on="1"/>
        <pt x="556" y="700" on="0"/>
        <pt x="651" y="665" on="0"/>
        <pt x="711" y="605" on="0"/>
        <pt x="738" y="523" on="0"/>
        <pt x="738" y="477" on="1"/>
        <pt x="738" y="421" on="0"/>
        <pt x="701" y="316" on="0"/>
        <pt x="627" y="237" on="0"/>
        <pt x="518" y="189" on="0"/>
      </contour>
      <contour>
        <pt x="441" y="328" on="1"/>
        <pt x="478" y="328" on="0"/>
        <pt x="533" y="353" on="0"/>
        <pt x="567" y="392" on="0"/>
        <pt x="584" y="443" on="0"/>
        <pt x="584" y="468" on="1"/>
        <pt x="584" y="509" on="0"/>
        <pt x="539" y="564" on="0"/>
        <pt x="482" y="564" on="1"/>
        <pt x="312" y="564" on="1"/>
        <pt x="262" y="328" on="1"/>
      </contour>
    </TTGlyph>
    <TTGlyph name="P.sc" xMin="43" yMin="0" xMax="651" yMax="596">
      <component glyphName="p.sc" x="0" y="0" flags="0x204"/>
    </TTGlyph>
    <TTGlyph name="Q" xMin="73" yMin="-43" xMax="814" yMax="715">
      <contour>
        <pt x="407" y="-16" on="1"/>
        <pt x="332" y="-16" on="0"/>
        <pt x="208" y="29" on="0"/>
        <pt x="121" y="112" on="0"/>
        <pt x="73" y="230" on="0"/>
        <pt x="73" y="302" on="1"/>
        <pt x="73" y="381" on="0"/>
        <pt x="127" y="531" on="0"/>
        <pt x="231" y="645" on="0"/>
        <pt x="384" y="715" on="0"/>
        <pt x="482" y="715" on="1"/>
        <pt x="556" y="715" on="0"/>
        <pt x="679" y="670" on="0"/>
        <pt x="766" y="587" on="0"/>
        <pt x="814" y="468" on="0"/>
        <pt x="814" y="396" on="1"/>
        <pt x="814" y="332" on="0"/>
        <pt x="776" y="206" on="0"/>
        <pt x="739" y="153" on="1"/>
        <pt x="794" y="106" on="1"/>
        <pt x="761" y="-43" on="1"/>
        <pt x="646" y="58" on="1"/>
        <pt x="599" y="24" on="0"/>
        <pt x="478" y="-16" on="0"/>
      </contour>
      <contour>
        <pt x="418" y="118" on="1"/>
        <pt x="456" y="118" on="0"/>
        <pt x="522" y="135" on="0"/>
        <pt x="548" y="150" on="1"/>
        <pt x="395" y="281" on="1"/>
        <pt x="476" y="379" on="1"/>
        <pt x="633" y="244" on="1"/>
        <pt x="648" y="275" on="0"/>
        <pt x="663" y="348" on="0"/>
        <pt x="663" y="388" on="1"/>
        <pt x="663" y="475" on="0"/>
        <pt x="563" y="579" on="0"/>
        <pt x="471" y="579" on="1"/>
        <pt x="414" y="579" on="0"/>
        <pt x="322" y="536" on="0"/>
        <pt x="259" y="462" on="0"/>
        <pt x="226" y="365" on="0"/>
        <pt x="226" y="311" on="1"/>
        <pt x="226" y="223" on="0"/>
        <pt x="326" y="118" on="0"/>
      </contour>
    </TTGlyph>
    <TTGlyph name="Q.sc" xMin="65" yMin="-43" xMax="718" yMax="614">
      <component glyphName="q.sc" x="0" y="0" flags="0x204"/>
    </TTGlyph>
    <TTGlyph name="R" xMin="41" yMin="0" xMax="737" yMax="700">
      <contour>
        <pt x="664" y="0" on="1"/>
        <pt x="495" y="0" on="1"/>
        <pt x="388" y="214" on="1"/>
        <pt x="238" y="214" on="1"/>
        <pt x="192" y="0" on="1"/>
        <pt x="41" y="0" on="1"/>
        <pt x="190" y="700" on="1"/>
        <pt x="496" y="700" on="1"/>
        <pt x="561" y="700" on="0"/>
        <pt x="653" y="667" on="0"/>
        <pt x="711" y="610" on="0"/>
        <pt x="737" y="531" on="0"/>
        <pt x="737" y="486" on="1"/>
        <pt x="737" y="444" on="0"/>
        <pt x="713" y="364" on="0"/>
        <pt x="664" y="296" on="0"/>
        <pt x="590" y="244" on="0"/>
        <pt x="541" y="230" on="1"/>
      </contour>
      <contour>
        <pt x="448" y="347" on="1"/>
        <pt x="483" y="347" on="0"/>
        <pt x="535" y="370" on="0"/>
        <pt x="567" y="407" on="0"/>
        <pt x="583" y="454" on="0"/>
        <pt x="583" y="478" on="1"/>
        <pt x="583" y="515" on="0"/>
        <pt x="542" y="564" on="0"/>
        <pt x="484" y="564" on="1"/>
        <pt x="312" y="564" on="1"/>
        <pt x="266" y="347" on="1"/>
      </contour>
    </TTGlyph>
    <TTGlyph name="R.sc" xMin="43" yMin="0" xMax="663" yMax="596">
      <component glyphName="r.sc" x="0" y="0" flags="0x204"/>
    </TTGlyph>
    <TTGlyph name="R_p" xMin="68" yMin="-198" xMax="1346" yMax="700">
      <contour>
        <pt x="258" y="208" on="1"/>
        <pt x="213" y="0" on="1"/>
        <pt x="68" y="0" on="1"/>
        <pt x="217" y="700" on="1"/>
        <pt x="491" y="700" on="1"/>
        <pt x="556" y="700" on="0"/>
        <pt x="650" y="667" on="0"/>
        <pt x="709" y="608" on="0"/>
        <pt x="737" y="528" on="0"/>
        <pt x="737" y="482" on="1"/>
        <pt x="737" y="395" on="0"/>
        <pt x="641" y="253" on="0"/>
        <pt x="543" y="224" on="1"/>
        <pt x="664" y="0" on="1"/>
        <pt x="495" y="0" on="1"/>
        <pt x="391" y="208" on="1"/>
      </contour>
      <contour>
        <pt x="451" y="337" on="1"/>
        <pt x="487" y="337" on="0"/>
        <pt x="539" y="361" on="0"/>
        <pt x="572" y="399" on="0"/>
        <pt x="588" y="448" on="0"/>
        <pt x="588" y="474" on="1"/>
        <pt x="588" y="515" on="0"/>
        <pt x="542" y="569" on="0"/>
        <pt x="485" y="569" on="1"/>
        <pt x="334" y="569" on="1"/>
        <pt x="285" y="337" on="1"/>
      </contour>
      <contour>
        <pt x="1156" y="551" on="1"/>
        <pt x="1195" y="551" on="0"/>
        <pt x="1265" y="524" on="0"/>
        <pt x="1316" y="471" on="0"/>
        <pt x="1346" y="388" on="0"/>
        <pt x="1346" y="333" on="1"/>
        <pt x="1346" y="261" on="0"/>
        <pt x="1299" y="134" on="0"/>
        <pt x="1216" y="39" on="0"/>
        <pt x="1104" y="-16" on="0"/>
        <pt x="1039" y="-16" on="1"/>
        <pt x="999" y="-16" on="0"/>
        <pt x="935" y="2" on="0"/>
        <pt x="910" y="17" on="1"/>
        <pt x="864" y="-198" on="1"/>
        <pt x="718" y="-198" on="1"/>
        <pt x="875" y="540" on="1"/>
        <pt x="1019" y="540" on="1"/>
        <pt x="1007" y="485" on="1"/>
        <pt x="1035" y="513" on="0"/>
        <pt x="1108" y="551" on="0"/>
      </contour>
      <contour>
        <pt x="1101" y="431" on="1"/>
        <pt x="1070" y="431" on="0"/>
        <pt x="1011" y="407" on="0"/>
        <pt x="989" y="388" on="1"/>
        <pt x="936" y="139" on="1"/>
        <pt x="954" y="125" on="0"/>
        <pt x="1004" y="106" on="0"/>
        <pt x="1034" y="106" on="1"/>
        <pt x="1074" y="106" on="0"/>
        <pt x="1137" y="142" on="0"/>
        <pt x="1180" y="201" on="0"/>
        <pt x="1202" y="278" on="0"/>
        <pt x="1202" y="319" on="1"/>
        <pt x="1202" y="381" on="0"/>
        <pt x="1146" y="431" on="0"/>
      </contour>
    </TTGlyph>
    <TTGlyph name="Racute" xMin="41" yMin="0" xMax="749" yMax="942">
      <component glyphName="R" x="0" y="0" flags="0x204"/>
      <component glyphName="acute" x="209" y="160" flags="0x4"/>
    </TTGlyph>
    <TTGlyph name="Racute.sc" xMin="43" yMin="0" xMax="691" yMax="838">
      <component glyphName="racute.sc" x="0" y="0" flags="0x204"/>
    </TTGlyph>
    <TTGlyph name="Rcaron" xMin="41" yMin="0" xMax="745" yMax="958">
      <component glyphName="R" x="0" y="0" flags="0x204"/>
      <component glyphName="caron" x="156" y="160" flags="0x4"/>
    </TTGlyph>
    <TTGlyph name="Rcaron.sc" xMin="43" yMin="0" xMax="687" yMax="854">
      <component glyphName="rcaron.sc" x="0" y="0" flags="0x204"/>
    </TTGlyph>
    <TTGlyph name="S" xMin="39" yMin="-15" xMax="703" yMax="715">
      <contour>
        <pt x="71" y="220" on="1"/>
        <pt x="97" y="201" on="0"/>
        <pt x="167" y="164" on="0"/>
        <pt x="245" y="136" on="0"/>
        <pt x="329" y="119" on="0"/>
        <pt x="370" y="119" on="1"/>
        <pt x="439" y="119" on="0"/>
        <pt x="504" y="165" on="0"/>
        <pt x="504" y="200" on="1"/>
        <pt x="504" y="235" on="0"/>
        <pt x="437" y="266" on="0"/>
        <pt x="344" y="294" on="1"/>
        <pt x="302" y="306" on="0"/>
        <pt x="222" y="335" on="0"/>
        <pt x="160" y="377" on="0"/>
        <pt x="122" y="439" on="0"/>
        <pt x="122" y="485" on="1"/>
        <pt x="122" y="589" on="0"/>
        <pt x="276" y="715" on="0"/>
        <pt x="416" y="715" on="1"/>
        <pt x="506" y="715" on="0"/>
        <pt x="654" y="666" on="0"/>
        <pt x="703" y="637" on="1"/>
        <pt x="673" y="495" on="1"/>
        <pt x="672" y="495" on="1"/>
        <pt x="621" y="530" on="0"/>
        <pt x="481" y="581" on="0"/>
        <pt x="406" y="581" on="1"/>
        <pt x="335" y="581" on="0"/>
        <pt x="272" y="535" on="0"/>
        <pt x="272" y="504" on="1"/>
        <pt x="272" y="470" on="0"/>
        <pt x="338" y="442" on="0"/>
        <pt x="423" y="417" on="1"/>
        <pt x="470" y="403" on="0"/>
        <pt x="554" y="372" on="0"/>
        <pt x="617" y="327" on="0"/>
        <pt x="654" y="261" on="0"/>
        <pt x="654" y="212" on="1"/>
        <pt x="654" y="166" on="0"/>
        <pt x="619" y="84" on="0"/>
        <pt x="548" y="22" on="0"/>
        <pt x="438" y="-15" on="0"/>
        <pt x="364" y="-15" on="1"/>
        <pt x="260" y="-15" on="0"/>
        <pt x="95" y="40" on="0"/>
        <pt x="39" y="74" on="1"/>
        <pt x="70" y="220" on="1"/>
      </contour>
    </TTGlyph>
    <TTGlyph name="S.sc" xMin="36" yMin="-16" xMax="623" yMax="613">
      <component glyphName="s.sc" x="0" y="0" flags="0x204"/>
    </TTGlyph>
    <TTGlyph name="Sacute" xMin="39" yMin="-15" xMax="723" yMax="957">
      <component glyphName="S" x="0" y="0" flags="0x204"/>
      <component glyphName="acute" x="183" y="175" flags="0x4"/>
    </TTGlyph>
    <TTGlyph name="Sacute.sc" xMin="36" yMin="-16" xMax="668" yMax="855">
      <component glyphName="sacute.sc" x="0" y="0" flags="0x204"/>
    </TTGlyph>
    <TTGlyph name="Scaron" xMin="39" yMin="-15" xMax="719" yMax="973">
      <component glyphName="S" x="0" y="0" flags="0x204"/>
      <component glyphName="caron" x="130" y="175" flags="0x4"/>
    </TTGlyph>
    <TTGlyph name="Scaron.sc" xMin="36" yMin="-16" xMax="664" yMax="871">
      <component glyphName="scaron.sc" x="0" y="0" flags="0x204"/>
    </TTGlyph>
    <TTGlyph name="Scedilla" xMin="39" yMin="-182" xMax="703" yMax="715">
      <contour>
        <pt x="71" y="220" on="1"/>
        <pt x="97" y="201" on="0"/>
        <pt x="167" y="164" on="0"/>
        <pt x="245" y="136" on="0"/>
        <pt x="329" y="119" on="0"/>
        <pt x="370" y="119" on="1"/>
        <pt x="439" y="119" on="0"/>
        <pt x="504" y="165" on="0"/>
        <pt x="504" y="200" on="1"/>
        <pt x="504" y="235" on="0"/>
        <pt x="437" y="266" on="0"/>
        <pt x="344" y="294" on="1"/>
        <pt x="302" y="306" on="0"/>
        <pt x="222" y="335" on="0"/>
        <pt x="160" y="377" on="0"/>
        <pt x="122" y="439" on="0"/>
        <pt x="122" y="485" on="1"/>
        <pt x="122" y="589" on="0"/>
        <pt x="276" y="715" on="0"/>
        <pt x="416" y="715" on="1"/>
        <pt x="506" y="715" on="0"/>
        <pt x="654" y="666" on="0"/>
        <pt x="703" y="637" on="1"/>
        <pt x="673" y="495" on="1"/>
        <pt x="672" y="495" on="1"/>
        <pt x="621" y="530" on="0"/>
        <pt x="481" y="581" on="0"/>
        <pt x="406" y="581" on="1"/>
        <pt x="335" y="581" on="0"/>
        <pt x="272" y="535" on="0"/>
        <pt x="272" y="504" on="1"/>
        <pt x="272" y="470" on="0"/>
        <pt x="338" y="442" on="0"/>
        <pt x="423" y="417" on="1"/>
        <pt x="470" y="403" on="0"/>
        <pt x="554" y="372" on="0"/>
        <pt x="617" y="327" on="0"/>
        <pt x="654" y="261" on="0"/>
        <pt x="654" y="212" on="1"/>
        <pt x="654" y="170" on="0"/>
        <pt x="625" y="93" on="0"/>
        <pt x="564" y="33" on="0"/>
        <pt x="472" y="-7" on="0"/>
        <pt x="409" y="-13" on="1"/>
        <pt x="297" y="-182" on="1"/>
        <pt x="117" y="-182" on="1"/>
        <pt x="119" y="-174" on="1"/>
        <pt x="286" y="-10" on="1"/>
        <pt x="209" y="-1" on="0"/>
        <pt x="84" y="46" on="0"/>
        <pt x="39" y="74" on="1"/>
        <pt x="70" y="220" on="1"/>
      </contour>
    </TTGlyph>
    <TTGlyph name="Scedilla.sc" xMin="36" yMin="-182" xMax="623" yMax="613">
      <component glyphName="scedilla.sc" x="0" y="0" flags="0x204"/>
    </TTGlyph>
    <TTGlyph name="T" xMin="100" yMin="0" xMax="747" yMax="700">
      <contour>
        <pt x="731" y="561" on="1"/>
        <pt x="495" y="561" on="1"/>
        <pt x="376" y="0" on="1"/>
        <pt x="225" y="0" on="1"/>
        <pt x="344" y="561" on="1"/>
        <pt x="100" y="561" on="1"/>
        <pt x="138" y="700" on="1"/>
        <pt x="747" y="700" on="1"/>
      </contour>
    </TTGlyph>
    <TTGlyph name="T.sc" xMin="91" yMin="0" xMax="684" yMax="596">
      <component glyphName="t.sc" x="0" y="0" flags="0x204"/>
    </TTGlyph>
    <TTGlyph name="Tcaron" xMin="100" yMin="0" xMax="747" yMax="958">
      <component glyphName="T" x="0" y="0" flags="0x204"/>
      <component glyphName="caron" x="139" y="160" flags="0x4"/>
    </TTGlyph>
    <TTGlyph name="Tcaron.sc" xMin="91" yMin="0" xMax="690" yMax="854">
      <component glyphName="tcaron.sc" x="0" y="0" flags="0x204"/>
    </TTGlyph>
    <TTGlyph name="Thorn" xMin="41" yMin="0" xMax="728" yMax="700">
      <contour>
        <pt x="190" y="700" on="1"/>
        <pt x="341" y="700" on="1"/>
        <pt x="320" y="602" on="1"/>
        <pt x="472" y="602" on="1"/>
        <pt x="542" y="602" on="0"/>
        <pt x="640" y="568" on="0"/>
        <pt x="700" y="509" on="0"/>
        <pt x="728" y="429" on="0"/>
        <pt x="728" y="383" on="1"/>
        <pt x="728" y="327" on="0"/>
        <pt x="691" y="225" on="0"/>
        <pt x="617" y="148" on="0"/>
        <pt x="508" y="102" on="0"/>
        <pt x="436" y="102" on="1"/>
        <pt x="214" y="102" on="1"/>
        <pt x="192" y="0" on="1"/>
        <pt x="41" y="0" on="1"/>
      </contour>
      <contour>
        <pt x="291" y="463" on="1"/>
        <pt x="243" y="241" on="1"/>
        <pt x="431" y="241" on="1"/>
        <pt x="468" y="241" on="0"/>
        <pt x="523" y="264" on="0"/>
        <pt x="557" y="301" on="0"/>
        <pt x="574" y="349" on="0"/>
        <pt x="574" y="374" on="1"/>
        <pt x="574" y="414" on="0"/>
        <pt x="528" y="463" on="0"/>
        <pt x="466" y="463" on="1"/>
      </contour>
    </TTGlyph>
    <TTGlyph name="Thorn.sc" xMin="43" yMin="0" xMax="643" yMax="596">
      <component glyphName="thorn.sc" x="0" y="0" flags="0x204"/>
    </TTGlyph>
    <TTGlyph name="U" xMin="88" yMin="-16" xMax="807" yMax="700">
      <contour>
        <pt x="373" y="-16" on="1"/>
        <pt x="312" y="-16" on="0"/>
        <pt x="207" y="10" on="0"/>
        <pt x="131" y="64" on="0"/>
        <pt x="88" y="149" on="0"/>
        <pt x="88" y="208" on="1"/>
        <pt x="88" y="230" on="0"/>
        <pt x="94" y="277" on="0"/>
        <pt x="99" y="302" on="1"/>
        <pt x="184" y="700" on="1"/>
        <pt x="335" y="700" on="1"/>
        <pt x="248" y="291" on="1"/>
        <pt x="244" y="273" on="0"/>
        <pt x="241" y="244" on="0"/>
        <pt x="241" y="228" on="1"/>
        <pt x="241" y="171" on="0"/>
        <pt x="320" y="123" on="0"/>
        <pt x="377" y="123" on="1"/>
        <pt x="449" y="123" on="0"/>
        <pt x="549" y="189" on="0"/>
        <pt x="568" y="282" on="1"/>
        <pt x="656" y="700" on="1"/>
        <pt x="807" y="700" on="1"/>
        <pt x="715" y="266" on="1"/>
        <pt x="682" y="110" on="0"/>
        <pt x="503" y="-16" on="0"/>
      </contour>
    </TTGlyph>
    <TTGlyph name="U.sc" xMin="82" yMin="-16" xMax="726" yMax="596">
      <component glyphName="u.sc" x="0" y="0" flags="0x204"/>
    </TTGlyph>
    <TTGlyph name="Uacute" xMin="88" yMin="-16" xMax="807" yMax="918">
      <component glyphName="U" x="0" y="0" flags="0x204"/>
      <component glyphName="acute" x="230" y="136" flags="0x4"/>
    </TTGlyph>
    <TTGlyph name="Uacute.sc" xMin="82" yMin="-16" xMax="726" yMax="814">
      <component glyphName="uacute.sc" x="0" y="0" flags="0x204"/>
    </TTGlyph>
    <TTGlyph name="Ubreve" xMin="88" yMin="-16" xMax="807" yMax="938">
      <component glyphName="U" x="0" y="0" flags="0x204"/>
      <component glyphName="breve" x="177" y="136" flags="0x4"/>
    </TTGlyph>
    <TTGlyph name="Ubreve.sc" xMin="82" yMin="-16" xMax="726" yMax="834">
      <component glyphName="ubreve.sc" x="0" y="0" flags="0x204"/>
    </TTGlyph>
    <TTGlyph name="Ucircumflex" xMin="88" yMin="-16" xMax="807" yMax="958">
      <component glyphName="U" x="0" y="0" flags="0x204"/>
      <component glyphName="circumflex" x="182" y="160" flags="0x4"/>
    </TTGlyph>
    <TTGlyph name="Ucircumflex.sc" xMin="82" yMin="-16" xMax="726" yMax="854">
      <component glyphName="ucircumflex.sc" x="0" y="0" flags="0x204"/>
    </TTGlyph>
    <TTGlyph name="Udieresis" xMin="88" yMin="-16" xMax="807" yMax="929">
      <component glyphName="U" x="0" y="0" flags="0x204"/>
      <component glyphName="dieresis" x="182" y="160" flags="0x4"/>
    </TTGlyph>
    <TTGlyph name="Udieresis.sc" xMin="82" yMin="-16" xMax="726" yMax="825">
      <component glyphName="udieresis.sc" x="0" y="0" flags="0x204"/>
    </TTGlyph>
    <TTGlyph name="Ugrave" xMin="88" yMin="-16" xMax="807" yMax="918">
      <component glyphName="U" x="0" y="0" flags="0x204"/>
      <component glyphName="grave" x="121" y="136" flags="0x4"/>
    </TTGlyph>
    <TTGlyph name="Ugrave.sc" xMin="82" yMin="-16" xMax="726" yMax="814">
      <component glyphName="ugrave.sc" x="0" y="0" flags="0x204"/>
    </TTGlyph>
    <TTGlyph name="Uhungarumlaut" xMin="88" yMin="-16" xMax="853" yMax="942">
      <component glyphName="U" x="0" y="0" flags="0x204"/>
      <component glyphName="hungarumlaut" x="227" y="160" flags="0x4"/>
    </TTGlyph>
    <TTGlyph name="Uhungarumlaut.sc" xMin="82" yMin="-16" xMax="776" yMax="838">
      <component glyphName="uhungarumlaut.sc" x="0" y="0" flags="0x204"/>
    </TTGlyph>
    <TTGlyph name="Umacron" xMin="88" yMin="-16" xMax="807" yMax="904">
      <component glyphName="U" x="0" y="0" flags="0x204"/>
      <component glyphName="macron" x="181" y="160" flags="0x4"/>
    </TTGlyph>
    <TTGlyph name="Umacron.sc" xMin="82" yMin="-16" xMax="726" yMax="800">
      <component glyphName="umacron.sc" x="0" y="0" flags="0x204"/>
    </TTGlyph>
    <TTGlyph name="Uogonek" xMin="88" yMin="-293" xMax="807" yMax="700">
      <contour>
        <pt x="421" y="-271" on="1"/>
        <pt x="397" y="-282" on="0"/>
        <pt x="347" y="-293" on="0"/>
        <pt x="319" y="-293" on="1"/>
        <pt x="251" y="-293" on="0"/>
        <pt x="177" y="-230" on="0"/>
        <pt x="177" y="-185" on="1"/>
        <pt x="177" y="-138" on="0"/>
        <pt x="249" y="-54" on="0"/>
        <pt x="305" y="-12" on="1"/>
        <pt x="209" y="1" on="0"/>
        <pt x="88" y="108" on="0"/>
        <pt x="88" y="208" on="1"/>
        <pt x="88" y="230" on="0"/>
        <pt x="94" y="277" on="0"/>
        <pt x="99" y="302" on="1"/>
        <pt x="184" y="700" on="1"/>
        <pt x="335" y="700" on="1"/>
        <pt x="248" y="291" on="1"/>
        <pt x="244" y="273" on="0"/>
        <pt x="241" y="244" on="0"/>
        <pt x="241" y="228" on="1"/>
        <pt x="241" y="171" on="0"/>
        <pt x="320" y="123" on="0"/>
        <pt x="377" y="123" on="1"/>
        <pt x="449" y="123" on="0"/>
        <pt x="549" y="189" on="0"/>
        <pt x="568" y="282" on="1"/>
        <pt x="656" y="700" on="1"/>
        <pt x="807" y="700" on="1"/>
        <pt x="715" y="266" on="1"/>
        <pt x="688" y="138" on="0"/>
        <pt x="557" y="8" on="0"/>
        <pt x="461" y="-9" on="1"/>
        <pt x="401" y="-56" on="1"/>
        <pt x="352" y="-94" on="0"/>
        <pt x="313" y="-137" on="0"/>
        <pt x="313" y="-155" on="1"/>
        <pt x="313" y="-168" on="0"/>
        <pt x="334" y="-184" on="0"/>
        <pt x="360" y="-184" on="1"/>
        <pt x="377" y="-184" on="0"/>
        <pt x="418" y="-176" on="0"/>
        <pt x="444" y="-166" on="1"/>
      </contour>
    </TTGlyph>
    <TTGlyph name="Uogonek.sc" xMin="82" yMin="-284" xMax="726" yMax="596">
      <component glyphName="uogonek.sc" x="0" y="0" flags="0x204"/>
    </TTGlyph>
    <TTGlyph name="Uring" xMin="88" yMin="-16" xMax="807" yMax="1047">
      <component glyphName="U" x="0" y="0" flags="0x204"/>
      <component glyphName="ring" x="121" y="136" flags="0x4"/>
    </TTGlyph>
    <TTGlyph name="Uring.sc" xMin="82" yMin="-16" xMax="726" yMax="943">
      <component glyphName="uring.sc" x="0" y="0" flags="0x204"/>
    </TTGlyph>
    <TTGlyph name="V" xMin="116" yMin="0" xMax="828" yMax="700">
      <contour>
        <pt x="200" y="0" on="1"/>
        <pt x="116" y="700" on="1"/>
        <pt x="275" y="700" on="1"/>
        <pt x="334" y="145" on="1"/>
        <pt x="366" y="145" on="1"/>
        <pt x="657" y="700" on="1"/>
        <pt x="828" y="700" on="1"/>
        <pt x="450" y="0" on="1"/>
      </contour>
    </TTGlyph>
    <TTGlyph name="V.sc" xMin="104" yMin="0" xMax="738" yMax="596">
      <component glyphName="v.sc" x="0" y="0" flags="0x204"/>
    </TTGlyph>
    <TTGlyph name="W" xMin="129" yMin="0" xMax="1186" yMax="700">
      <contour>
        <pt x="170" y="0" on="1"/>
        <pt x="129" y="700" on="1"/>
        <pt x="281" y="700" on="1"/>
        <pt x="307" y="157" on="1"/>
        <pt x="317" y="157" on="1"/>
        <pt x="580" y="700" on="1"/>
        <pt x="726" y="700" on="1"/>
        <pt x="780" y="157" on="1"/>
        <pt x="790" y="157" on="1"/>
        <pt x="1025" y="700" on="1"/>
        <pt x="1186" y="700" on="1"/>
        <pt x="862" y="0" on="1"/>
        <pt x="657" y="0" on="1"/>
        <pt x="615" y="481" on="1"/>
        <pt x="609" y="481" on="1"/>
        <pt x="377" y="0" on="1"/>
      </contour>
    </TTGlyph>
    <TTGlyph name="W.sc" xMin="112" yMin="0" xMax="1054" yMax="596">
      <component glyphName="w.sc" x="0" y="0" flags="0x204"/>
    </TTGlyph>
    <TTGlyph name="Wacute" xMin="129" yMin="0" xMax="1186" yMax="942">
      <component glyphName="W" x="0" y="0" flags="0x204"/>
      <component glyphName="acute" x="401" y="160" flags="0x4"/>
    </TTGlyph>
    <TTGlyph name="Wacute.sc" xMin="112" yMin="0" xMax="1054" yMax="838">
      <component glyphName="wacute.sc" x="0" y="0" flags="0x204"/>
    </TTGlyph>
    <TTGlyph name="Wcircumflex" xMin="129" yMin="0" xMax="1186" yMax="958">
      <component glyphName="W" x="0" y="0" flags="0x204"/>
      <component glyphName="circumflex" x="329" y="160" flags="0x4"/>
    </TTGlyph>
    <TTGlyph name="Wcircumflex.sc" xMin="112" yMin="0" xMax="1054" yMax="854">
      <component glyphName="wcircumflex.sc" x="0" y="0" flags="0x204"/>
    </TTGlyph>
    <TTGlyph name="Wdieresis" xMin="129" yMin="0" xMax="1186" yMax="929">
      <component glyphName="W" x="0" y="0" flags="0x204"/>
      <component glyphName="dieresis" x="329" y="160" flags="0x4"/>
    </TTGlyph>
    <TTGlyph name="Wdieresis.sc" xMin="112" yMin="0" xMax="1054" yMax="825">
      <component glyphName="wdieresis.sc" x="0" y="0" flags="0x204"/>
    </TTGlyph>
    <TTGlyph name="Wgrave" xMin="129" yMin="0" xMax="1186" yMax="942">
      <component glyphName="W" x="0" y="0" flags="0x204"/>
      <component glyphName="grave" x="264" y="160" flags="0x4"/>
    </TTGlyph>
    <TTGlyph name="Wgrave.sc" xMin="112" yMin="0" xMax="1054" yMax="838">
      <component glyphName="wgrave.sc" x="0" y="0" flags="0x204"/>
    </TTGlyph>
    <TTGlyph name="X" xMin="-25" yMin="0" xMax="824" yMax="700">
      <contour>
        <pt x="-25" y="1" on="1"/>
        <pt x="320" y="377" on="1"/>
        <pt x="142" y="699" on="1"/>
        <pt x="142" y="700" on="1"/>
        <pt x="307" y="700" on="1"/>
        <pt x="432" y="467" on="1"/>
        <pt x="639" y="700" on="1"/>
        <pt x="824" y="700" on="1"/>
        <pt x="824" y="699" on="1"/>
        <pt x="504" y="349" on="1"/>
        <pt x="696" y="1" on="1"/>
        <pt x="696" y="0" on="1"/>
        <pt x="531" y="0" on="1"/>
        <pt x="392" y="261" on="1"/>
        <pt x="160" y="0" on="1"/>
        <pt x="-25" y="0" on="1"/>
      </contour>
    </TTGlyph>
    <TTGlyph name="X.sc" xMin="-20" yMin="0" xMax="739" yMax="596">
      <component glyphName="x.sc" x="0" y="0" flags="0x204"/>
    </TTGlyph>
    <TTGlyph name="Y" xMin="98" yMin="0" xMax="825" yMax="700">
      <contour>
        <pt x="642" y="700" on="1"/>
        <pt x="825" y="700" on="1"/>
        <pt x="442" y="225" on="1"/>
        <pt x="394" y="0" on="1"/>
        <pt x="243" y="0" on="1"/>
        <pt x="291" y="226" on="1"/>
        <pt x="98" y="700" on="1"/>
        <pt x="255" y="700" on="1"/>
        <pt x="382" y="380" on="1"/>
        <pt x="394" y="380" on="1"/>
      </contour>
    </TTGlyph>
    <TTGlyph name="Y.sc" xMin="86" yMin="0" xMax="747" yMax="596">
      <component glyphName="y.sc" x="0" y="0" flags="0x204"/>
    </TTGlyph>
    <TTGlyph name="Yacute" xMin="98" yMin="0" xMax="825" yMax="918">
      <component glyphName="Y" x="0" y="0" flags="0x204"/>
      <component glyphName="acute" x="192" y="136" flags="0x4"/>
    </TTGlyph>
    <TTGlyph name="Yacute.sc" xMin="86" yMin="0" xMax="747" yMax="814">
      <component glyphName="yacute.sc" x="0" y="0" flags="0x204"/>
    </TTGlyph>
    <TTGlyph name="Ycircumflex" xMin="98" yMin="0" xMax="825" yMax="958">
      <component glyphName="Y" x="0" y="0" flags="0x204"/>
      <component glyphName="circumflex" x="144" y="160" flags="0x4"/>
    </TTGlyph>
    <TTGlyph name="Ycircumflex.sc" xMin="86" yMin="0" xMax="747" yMax="854">
      <component glyphName="ycircumflex.sc" x="0" y="0" flags="0x204"/>
    </TTGlyph>
    <TTGlyph name="Ydieresis" xMin="98" yMin="0" xMax="825" yMax="929">
      <component glyphName="Y" x="0" y="0" flags="0x204"/>
      <component glyphName="dieresis" x="143" y="160" flags="0x4"/>
    </TTGlyph>
    <TTGlyph name="Ydieresis.sc" xMin="86" yMin="0" xMax="747" yMax="825">
      <component glyphName="ydieresis.sc" x="0" y="0" flags="0x204"/>
    </TTGlyph>
    <TTGlyph name="Ygrave" xMin="98" yMin="0" xMax="825" yMax="918">
      <component glyphName="Y" x="0" y="0" flags="0x204"/>
      <component glyphName="grave" x="83" y="136" flags="0x4"/>
    </TTGlyph>
    <TTGlyph name="Ygrave.sc" xMin="86" yMin="0" xMax="747" yMax="814">
      <component glyphName="ygrave.sc" x="0" y="0" flags="0x204"/>
    </TTGlyph>
    <TTGlyph name="Z" xMin="10" yMin="0" xMax="762" yMax="700">
      <contour>
        <pt x="10" y="0" on="1"/>
        <pt x="41" y="149" on="1"/>
        <pt x="529" y="565" on="1"/>
        <pt x="141" y="565" on="1"/>
        <pt x="178" y="700" on="1"/>
        <pt x="762" y="700" on="1"/>
        <pt x="734" y="566" on="1"/>
        <pt x="229" y="135" on="1"/>
        <pt x="643" y="135" on="1"/>
        <pt x="614" y="0" on="1"/>
      </contour>
    </TTGlyph>
    <TTGlyph name="Z.sc" xMin="22" yMin="0" xMax="690" yMax="596">
      <component glyphName="z.sc" x="0" y="0" flags="0x204"/>
    </TTGlyph>
    <TTGlyph name="Zacute" xMin="10" yMin="0" xMax="762" yMax="942">
      <component glyphName="Z" x="0" y="0" flags="0x204"/>
      <component glyphName="acute" x="193" y="160" flags="0x4"/>
    </TTGlyph>
    <TTGlyph name="Zacute.sc" xMin="22" yMin="0" xMax="690" yMax="838">
      <component glyphName="zacute.sc" x="0" y="0" flags="0x204"/>
    </TTGlyph>
    <TTGlyph name="Zcaron" xMin="10" yMin="0" xMax="762" yMax="958">
      <component glyphName="Z" x="0" y="0" flags="0x204"/>
      <component glyphName="caron" x="140" y="160" flags="0x4"/>
    </TTGlyph>
    <TTGlyph name="Zcaron.sc" xMin="22" yMin="0" xMax="690" yMax="854">
      <component glyphName="zcaron.sc" x="0" y="0" flags="0x204"/>
    </TTGlyph>
    <TTGlyph name="Zdotaccent" xMin="10" yMin="0" xMax="762" yMax="935">
      <component glyphName="Z" x="0" y="0" flags="0x204"/>
      <component glyphName="dotaccent" x="140" y="160" flags="0x4"/>
    </TTGlyph>
    <TTGlyph name="Zdotaccent.sc" xMin="22" yMin="0" xMax="690" yMax="831">
      <component glyphName="zdotaccent.sc" x="0" y="0" flags="0x204"/>
    </TTGlyph>
    <TTGlyph name="a" xMin="26" yMin="-14" xMax="545" yMax="556">
      <contour>
        <pt x="302" y="432" on="1"/>
        <pt x="264" y="432" on="0"/>
        <pt x="161" y="409" on="0"/>
        <pt x="115" y="384" on="1"/>
        <pt x="114" y="384" on="1"/>
        <pt x="141" y="519" on="1"/>
        <pt x="186" y="537" on="0"/>
        <pt x="285" y="556" on="0"/>
        <pt x="336" y="556" on="1"/>
        <pt x="441" y="556" on="0"/>
        <pt x="545" y="467" on="0"/>
        <pt x="545" y="386" on="1"/>
        <pt x="545" y="367" on="0"/>
        <pt x="539" y="325" on="0"/>
        <pt x="533" y="298" on="1"/>
        <pt x="470" y="0" on="1"/>
        <pt x="342" y="0" on="1"/>
        <pt x="349" y="52" on="1"/>
        <pt x="318" y="19" on="0"/>
        <pt x="234" y="-14" on="0"/>
        <pt x="189" y="-14" on="1"/>
        <pt x="114" y="-14" on="0"/>
        <pt x="26" y="65" on="0"/>
        <pt x="26" y="128" on="1"/>
        <pt x="26" y="154" on="0"/>
        <pt x="46" y="221" on="0"/>
        <pt x="74" y="250" on="1"/>
        <pt x="108" y="284" on="0"/>
        <pt x="244" y="328" on="0"/>
        <pt x="363" y="328" on="1"/>
        <pt x="371" y="328" on="0"/>
        <pt x="388" y="328" on="0"/>
        <pt x="396" y="328" on="1"/>
        <pt x="399" y="341" on="0"/>
        <pt x="402" y="361" on="0"/>
        <pt x="402" y="370" on="1"/>
        <pt x="402" y="397" on="0"/>
        <pt x="354" y="432" on="0"/>
      </contour>
      <contour>
        <pt x="169" y="147" on="1"/>
        <pt x="169" y="127" on="0"/>
        <pt x="199" y="96" on="0"/>
        <pt x="236" y="96" on="1"/>
        <pt x="267" y="96" on="0"/>
        <pt x="336" y="122" on="0"/>
        <pt x="356" y="137" on="1"/>
        <pt x="377" y="235" on="1"/>
        <pt x="290" y="236" on="0"/>
        <pt x="205" y="212" on="0"/>
        <pt x="188" y="195" on="1"/>
        <pt x="176" y="183" on="0"/>
        <pt x="169" y="157" on="0"/>
      </contour>
    </TTGlyph>
    <TTGlyph name="a.sc" xMin="-15" yMin="0" xMax="654" yMax="597">
      <contour>
        <pt x="510" y="0" on="1"/>
        <pt x="496" y="124" on="1"/>
        <pt x="213" y="124" on="1"/>
        <pt x="143" y="0" on="1"/>
        <pt x="-15" y="0" on="1"/>
        <pt x="327" y="597" on="1"/>
        <pt x="567" y="597" on="1"/>
        <pt x="654" y="0" on="1"/>
      </contour>
      <contour>
        <pt x="407" y="469" on="1"/>
        <pt x="281" y="245" on="1"/>
        <pt x="481" y="245" on="1"/>
        <pt x="455" y="469" on="1"/>
      </contour>
    </TTGlyph>
    <TTGlyph name="aacute" xMin="26" yMin="-14" xMax="628" yMax="798">
      <component glyphName="a" x="0" y="0" flags="0x204"/>
      <component glyphName="acute" x="88" y="16" flags="0x4"/>
    </TTGlyph>
    <TTGlyph name="aacute.sc" xMin="-15" yMin="0" xMax="725" yMax="839">
      <component glyphName="a.sc" x="0" y="0" flags="0x204"/>
      <component glyphName="acute" x="185" y="57" flags="0x4"/>
    </TTGlyph>
    <TTGlyph name="abreve" xMin="26" yMin="-14" xMax="571" yMax="818">
      <component glyphName="a" x="0" y="0" flags="0x204"/>
      <component glyphName="breve" x="35" y="16" flags="0x4"/>
    </TTGlyph>
    <TTGlyph name="abreve.sc" xMin="-15" yMin="0" xMax="668" yMax="859">
      <component glyphName="a.sc" x="0" y="0" flags="0x204"/>
      <component glyphName="breve" x="132" y="57" flags="0x4"/>
    </TTGlyph>
    <TTGlyph name="acircumflex" xMin="26" yMin="-14" xMax="585" yMax="814">
      <component glyphName="a" x="0" y="0" flags="0x204"/>
      <component glyphName="circumflex" x="34" y="16" flags="0x4"/>
    </TTGlyph>
    <TTGlyph name="acircumflex.sc" xMin="-15" yMin="0" xMax="683" yMax="855">
      <component glyphName="a.sc" x="0" y="0" flags="0x204"/>
      <component glyphName="circumflex" x="132" y="57" flags="0x4"/>
    </TTGlyph>
    <TTGlyph name="acute" xMin="192" yMin="618" xMax="540" yMax="782">
      <contour>
        <pt x="330" y="618" on="1"/>
        <pt x="192" y="618" on="1"/>
        <pt x="348" y="782" on="1"/>
        <pt x="540" y="782" on="1"/>
        <pt x="538" y="774" on="1"/>
      </contour>
    </TTGlyph>
    <TTGlyph name="adieresis" xMin="26" yMin="-14" xMax="591" yMax="785">
      <component glyphName="a" x="0" y="0" flags="0x204"/>
      <component glyphName="dieresis" x="34" y="16" flags="0x4"/>
    </TTGlyph>
    <TTGlyph name="adieresis.sc" xMin="-15" yMin="0" xMax="688" yMax="826">
      <component glyphName="a.sc" x="0" y="0" flags="0x204"/>
      <component glyphName="dieresis" x="131" y="57" flags="0x4"/>
    </TTGlyph>
    <TTGlyph name="ae" xMin="24" yMin="-16" xMax="897" yMax="556">
      <contour>
        <pt x="685" y="556" on="1"/>
        <pt x="779" y="556" on="0"/>
        <pt x="897" y="443" on="0"/>
        <pt x="897" y="343" on="1"/>
        <pt x="897" y="318" on="0"/>
        <pt x="888" y="261" on="0"/>
        <pt x="879" y="230" on="1"/>
        <pt x="519" y="230" on="1"/>
        <pt x="520" y="158" on="0"/>
        <pt x="601" y="104" on="0"/>
        <pt x="661" y="104" on="1"/>
        <pt x="719" y="104" on="0"/>
        <pt x="814" y="138" on="0"/>
        <pt x="851" y="162" on="1"/>
        <pt x="852" y="162" on="1"/>
        <pt x="825" y="32" on="1"/>
        <pt x="797" y="15" on="0"/>
        <pt x="706" y="-16" on="0"/>
        <pt x="642" y="-16" on="1"/>
        <pt x="568" y="-16" on="0"/>
        <pt x="456" y="35" on="0"/>
        <pt x="423" y="81" on="1"/>
        <pt x="374" y="37" on="0"/>
        <pt x="259" y="-14" on="0"/>
        <pt x="195" y="-14" on="1"/>
        <pt x="113" y="-14" on="0"/>
        <pt x="24" y="65" on="0"/>
        <pt x="24" y="128" on="1"/>
        <pt x="24" y="154" on="0"/>
        <pt x="44" y="221" on="0"/>
        <pt x="72" y="250" on="1"/>
        <pt x="106" y="284" on="0"/>
        <pt x="242" y="328" on="0"/>
        <pt x="361" y="328" on="1"/>
        <pt x="369" y="328" on="0"/>
        <pt x="386" y="328" on="0"/>
        <pt x="394" y="328" on="1"/>
        <pt x="397" y="340" on="0"/>
        <pt x="400" y="360" on="0"/>
        <pt x="400" y="370" on="1"/>
        <pt x="400" y="397" on="0"/>
        <pt x="352" y="432" on="0"/>
        <pt x="300" y="432" on="1"/>
        <pt x="262" y="432" on="0"/>
        <pt x="159" y="409" on="0"/>
        <pt x="113" y="384" on="1"/>
        <pt x="112" y="384" on="1"/>
        <pt x="139" y="519" on="1"/>
        <pt x="184" y="537" on="0"/>
        <pt x="283" y="556" on="0"/>
        <pt x="334" y="556" on="1"/>
        <pt x="395" y="556" on="0"/>
        <pt x="479" y="521" on="0"/>
        <pt x="503" y="488" on="1"/>
        <pt x="540" y="520" on="0"/>
        <pt x="633" y="556" on="0"/>
      </contour>
      <contour>
        <pt x="672" y="438" on="1"/>
        <pt x="623" y="437" on="0"/>
        <pt x="548" y="374" on="0"/>
        <pt x="532" y="323" on="1"/>
        <pt x="764" y="323" on="1"/>
        <pt x="765" y="330" on="0"/>
        <pt x="766" y="343" on="0"/>
        <pt x="766" y="349" on="1"/>
        <pt x="766" y="391" on="0"/>
        <pt x="720" y="439" on="0"/>
      </contour>
      <contour>
        <pt x="167" y="147" on="1"/>
        <pt x="167" y="125" on="0"/>
        <pt x="200" y="96" on="0"/>
        <pt x="236" y="96" on="1"/>
        <pt x="278" y="96" on="0"/>
        <pt x="355" y="133" on="0"/>
        <pt x="389" y="157" on="1"/>
        <pt x="385" y="174" on="0"/>
        <pt x="380" y="212" on="0"/>
        <pt x="380" y="231" on="1"/>
        <pt x="380" y="232" on="0"/>
        <pt x="380" y="234" on="0"/>
        <pt x="380" y="235" on="1"/>
        <pt x="289" y="236" on="0"/>
        <pt x="203" y="212" on="0"/>
        <pt x="186" y="195" on="1"/>
        <pt x="174" y="183" on="0"/>
        <pt x="167" y="157" on="0"/>
      </contour>
    </TTGlyph>
    <TTGlyph name="ae.sc" xMin="-38" yMin="0" xMax="1063" yMax="596">
      <contour>
        <pt x="991" y="123" on="1"/>
        <pt x="956" y="0" on="1"/>
        <pt x="463" y="0" on="1"/>
        <pt x="492" y="134" on="1"/>
        <pt x="240" y="134" on="1"/>
        <pt x="135" y="0" on="1"/>
        <pt x="-38" y="0" on="1"/>
        <pt x="441" y="596" on="1"/>
        <pt x="1063" y="596" on="1"/>
        <pt x="1051" y="474" on="1"/>
        <pt x="705" y="474" on="1"/>
        <pt x="681" y="360" on="1"/>
        <pt x="957" y="360" on="1"/>
        <pt x="931" y="242" on="1"/>
        <pt x="656" y="242" on="1"/>
        <pt x="631" y="123" on="1"/>
      </contour>
      <contour>
        <pt x="504" y="471" on="1"/>
        <pt x="334" y="254" on="1"/>
        <pt x="517" y="254" on="1"/>
        <pt x="563" y="471" on="1"/>
      </contour>
    </TTGlyph>
    <TTGlyph name="aeacute" xMin="24" yMin="-16" xMax="897" yMax="782">
      <component glyphName="ae" x="0" y="0" flags="0x204"/>
      <component glyphName="acute" x="253" y="0" flags="0x4"/>
    </TTGlyph>
    <TTGlyph name="aeacute.sc" xMin="-38" yMin="0" xMax="1063" yMax="838">
      <component glyphName="ae.sc" x="0" y="0" flags="0x204"/>
      <component glyphName="acute" x="413" y="56" flags="0x4"/>
    </TTGlyph>
    <TTGlyph name="agrave" xMin="26" yMin="-14" xMax="545" yMax="798">
      <component glyphName="a" x="0" y="0" flags="0x204"/>
      <component glyphName="grave" x="-21" y="16" flags="0x4"/>
    </TTGlyph>
    <TTGlyph name="agrave.sc" xMin="-15" yMin="0" xMax="654" yMax="839">
      <component glyphName="a.sc" x="0" y="0" flags="0x204"/>
      <component glyphName="grave" x="76" y="57" flags="0x4"/>
    </TTGlyph>
    <TTGlyph name="amacron" xMin="26" yMin="-14" xMax="576" yMax="760">
      <component glyphName="a" x="0" y="0" flags="0x204"/>
      <component glyphName="macron" x="34" y="16" flags="0x4"/>
    </TTGlyph>
    <TTGlyph name="amacron.sc" xMin="-15" yMin="0" xMax="673" yMax="801">
      <component glyphName="a.sc" x="0" y="0" flags="0x204"/>
      <component glyphName="macron" x="131" y="57" flags="0x4"/>
    </TTGlyph>
    <TTGlyph name="ampersand" xMin="31" yMin="-16" xMax="787" yMax="700">
      <contour>
        <pt x="241" y="-16" on="1"/>
        <pt x="142" y="-16" on="0"/>
        <pt x="31" y="81" on="0"/>
        <pt x="31" y="160" on="1"/>
        <pt x="31" y="206" on="0"/>
        <pt x="69" y="283" on="0"/>
        <pt x="137" y="349" on="0"/>
        <pt x="230" y="410" on="0"/>
        <pt x="284" y="440" on="1"/>
        <pt x="194" y="564" on="1"/>
        <pt x="222" y="700" on="1"/>
        <pt x="707" y="700" on="1"/>
        <pt x="695" y="576" on="1"/>
        <pt x="354" y="576" on="1"/>
        <pt x="564" y="282" on="1"/>
        <pt x="614" y="320" on="0"/>
        <pt x="726" y="413" on="0"/>
        <pt x="786" y="463" on="1"/>
        <pt x="787" y="463" on="1"/>
        <pt x="748" y="278" on="1"/>
        <pt x="720" y="255" on="0"/>
        <pt x="662" y="207" on="0"/>
        <pt x="632" y="183" on="1"/>
        <pt x="760" y="0" on="1"/>
        <pt x="600" y="0" on="1"/>
        <pt x="528" y="100" on="1"/>
        <pt x="460" y="51" on="0"/>
        <pt x="319" y="-16" on="0"/>
      </contour>
      <contour>
        <pt x="179" y="178" on="1"/>
        <pt x="179" y="150" on="0"/>
        <pt x="216" y="112" on="0"/>
        <pt x="257" y="112" on="1"/>
        <pt x="299" y="112" on="0"/>
        <pt x="399" y="161" on="0"/>
        <pt x="457" y="201" on="1"/>
        <pt x="355" y="342" on="1"/>
        <pt x="277" y="297" on="0"/>
        <pt x="179" y="221" on="0"/>
      </contour>
    </TTGlyph>
    <TTGlyph name="ampersand.sc" xMin="35" yMin="-16" xMax="729" yMax="596">
      <contour>
        <pt x="655" y="596" on="1"/>
        <pt x="645" y="483" on="1"/>
        <pt x="334" y="483" on="1"/>
        <pt x="522" y="244" on="1"/>
        <pt x="570" y="276" on="0"/>
        <pt x="675" y="350" on="0"/>
        <pt x="728" y="391" on="1"/>
        <pt x="729" y="391" on="1"/>
        <pt x="694" y="223" on="1"/>
        <pt x="674" y="209" on="0"/>
        <pt x="619" y="170" on="0"/>
        <pt x="592" y="151" on="1"/>
        <pt x="712" y="0" on="1"/>
        <pt x="557" y="0" on="1"/>
        <pt x="491" y="80" on="1"/>
        <pt x="427" y="42" on="0"/>
        <pt x="294" y="-16" on="0"/>
        <pt x="225" y="-16" on="1"/>
        <pt x="136" y="-16" on="0"/>
        <pt x="35" y="66" on="0"/>
        <pt x="35" y="135" on="1"/>
        <pt x="35" y="216" on="0"/>
        <pt x="162" y="320" on="0"/>
        <pt x="261" y="371" on="1"/>
        <pt x="180" y="472" on="1"/>
        <pt x="206" y="596" on="1"/>
      </contour>
      <contour>
        <pt x="177" y="152" on="1"/>
        <pt x="177" y="127" on="0"/>
        <pt x="208" y="103" on="0"/>
        <pt x="238" y="103" on="1"/>
        <pt x="275" y="103" on="0"/>
        <pt x="367" y="141" on="0"/>
        <pt x="419" y="174" on="1"/>
        <pt x="331" y="284" on="1"/>
        <pt x="257" y="244" on="0"/>
        <pt x="177" y="186" on="0"/>
      </contour>
    </TTGlyph>
    <TTGlyph name="aogonek" xMin="26" yMin="-289" xMax="545" yMax="556">
      <contour>
        <pt x="302" y="432" on="1"/>
        <pt x="264" y="432" on="0"/>
        <pt x="161" y="409" on="0"/>
        <pt x="115" y="384" on="1"/>
        <pt x="114" y="384" on="1"/>
        <pt x="141" y="519" on="1"/>
        <pt x="186" y="537" on="0"/>
        <pt x="285" y="556" on="0"/>
        <pt x="336" y="556" on="1"/>
        <pt x="441" y="556" on="0"/>
        <pt x="545" y="467" on="0"/>
        <pt x="545" y="386" on="1"/>
        <pt x="545" y="367" on="0"/>
        <pt x="539" y="325" on="0"/>
        <pt x="533" y="298" on="1"/>
        <pt x="470" y="0" on="1"/>
        <pt x="404" y="-52" on="1"/>
        <pt x="355" y="-90" on="0"/>
        <pt x="316" y="-133" on="0"/>
        <pt x="316" y="-151" on="1"/>
        <pt x="316" y="-164" on="0"/>
        <pt x="337" y="-180" on="0"/>
        <pt x="363" y="-180" on="1"/>
        <pt x="380" y="-180" on="0"/>
        <pt x="421" y="-172" on="0"/>
        <pt x="447" y="-162" on="1"/>
        <pt x="424" y="-267" on="1"/>
        <pt x="400" y="-278" on="0"/>
        <pt x="350" y="-289" on="0"/>
        <pt x="322" y="-289" on="1"/>
        <pt x="254" y="-289" on="0"/>
        <pt x="180" y="-226" on="0"/>
        <pt x="180" y="-181" on="1"/>
        <pt x="180" y="-131" on="0"/>
        <pt x="261" y="-42" on="0"/>
        <pt x="324" y="4" on="1"/>
        <pt x="345" y="19" on="1"/>
        <pt x="349" y="52" on="1"/>
        <pt x="318" y="19" on="0"/>
        <pt x="234" y="-14" on="0"/>
        <pt x="189" y="-14" on="1"/>
        <pt x="114" y="-14" on="0"/>
        <pt x="26" y="65" on="0"/>
        <pt x="26" y="128" on="1"/>
        <pt x="26" y="154" on="0"/>
        <pt x="46" y="221" on="0"/>
        <pt x="74" y="250" on="1"/>
        <pt x="108" y="284" on="0"/>
        <pt x="244" y="328" on="0"/>
        <pt x="363" y="328" on="1"/>
        <pt x="371" y="328" on="0"/>
        <pt x="388" y="328" on="0"/>
        <pt x="396" y="328" on="1"/>
        <pt x="399" y="341" on="0"/>
        <pt x="402" y="361" on="0"/>
        <pt x="402" y="370" on="1"/>
        <pt x="402" y="397" on="0"/>
        <pt x="354" y="432" on="0"/>
      </contour>
      <contour>
        <pt x="169" y="147" on="1"/>
        <pt x="169" y="127" on="0"/>
        <pt x="199" y="96" on="0"/>
        <pt x="236" y="96" on="1"/>
        <pt x="267" y="96" on="0"/>
        <pt x="336" y="122" on="0"/>
        <pt x="356" y="137" on="1"/>
        <pt x="377" y="235" on="1"/>
        <pt x="290" y="236" on="0"/>
        <pt x="205" y="212" on="0"/>
        <pt x="188" y="195" on="1"/>
        <pt x="176" y="183" on="0"/>
        <pt x="169" y="157" on="0"/>
      </contour>
    </TTGlyph>
    <TTGlyph name="aogonek.sc" xMin="-15" yMin="-289" xMax="654" yMax="597">
      <contour>
        <pt x="608" y="-267" on="1"/>
        <pt x="584" y="-278" on="0"/>
        <pt x="534" y="-289" on="0"/>
        <pt x="506" y="-289" on="1"/>
        <pt x="438" y="-289" on="0"/>
        <pt x="364" y="-226" on="0"/>
        <pt x="364" y="-181" on="1"/>
        <pt x="364" y="-131" on="0"/>
        <pt x="445" y="-42" on="0"/>
        <pt x="508" y="4" on="1"/>
        <pt x="509" y="5" on="1"/>
        <pt x="496" y="124" on="1"/>
        <pt x="213" y="124" on="1"/>
        <pt x="143" y="0" on="1"/>
        <pt x="-15" y="0" on="1"/>
        <pt x="327" y="597" on="1"/>
        <pt x="567" y="597" on="1"/>
        <pt x="654" y="0" on="1"/>
        <pt x="588" y="-52" on="1"/>
        <pt x="539" y="-90" on="0"/>
        <pt x="500" y="-133" on="0"/>
        <pt x="500" y="-151" on="1"/>
        <pt x="500" y="-164" on="0"/>
        <pt x="521" y="-180" on="0"/>
        <pt x="547" y="-180" on="1"/>
        <pt x="564" y="-180" on="0"/>
        <pt x="605" y="-172" on="0"/>
        <pt x="631" y="-162" on="1"/>
      </contour>
      <contour>
        <pt x="407" y="469" on="1"/>
        <pt x="281" y="245" on="1"/>
        <pt x="481" y="245" on="1"/>
        <pt x="455" y="469" on="1"/>
      </contour>
    </TTGlyph>
    <TTGlyph name="aring" xMin="26" yMin="-14" xMax="559" yMax="927">
      <component glyphName="a" x="0" y="0" flags="0x204"/>
      <component glyphName="ring" x="-21" y="16" flags="0x4"/>
    </TTGlyph>
    <TTGlyph name="aring.sc" xMin="-15" yMin="0" xMax="656" yMax="968">
      <component glyphName="a.sc" x="0" y="0" flags="0x204"/>
      <component glyphName="ring" x="76" y="57" flags="0x4"/>
    </TTGlyph>
    <TTGlyph name="aringacute" xMin="26" yMin="-14" xMax="701" yMax="1143">
      <component glyphName="a" x="0" y="0" flags="0x204"/>
      <component glyphName="ring" x="-21" y="16" flags="0x4"/>
      <component glyphName="acute" x="161" y="361" flags="0x4"/>
    </TTGlyph>
    <TTGlyph name="aringacute.sc" xMin="-15" yMin="0" xMax="798" yMax="1184">
      <component glyphName="a.sc" x="0" y="0" flags="0x204"/>
      <component glyphName="ring" x="76" y="57" flags="0x4"/>
      <component glyphName="acute" x="258" y="402" flags="0x4"/>
    </TTGlyph>
    <TTGlyph name="asciicircum" xMin="86" yMin="354" xMax="660" yMax="700">
      <contour>
        <pt x="541" y="700" on="1"/>
        <pt x="660" y="354" on="1"/>
        <pt x="517" y="354" on="1"/>
        <pt x="453" y="563" on="1"/>
        <pt x="406" y="563" on="1"/>
        <pt x="254" y="354" on="1"/>
        <pt x="86" y="354" on="1"/>
        <pt x="347" y="700" on="1"/>
      </contour>
    </TTGlyph>
    <TTGlyph name="asciicircum.tab" xMin="95" yMin="354" xMax="669" yMax="700">
      <component glyphName="asciicircum" x="9" y="0" flags="0x4"/>
    </TTGlyph>
    <TTGlyph name="asciitilde" xMin="88" yMin="222" xMax="687" yMax="478">
      <contour>
        <pt x="501" y="231" on="1"/>
        <pt x="467" y="231" on="0"/>
        <pt x="403" y="259" on="0"/>
        <pt x="364" y="283" on="1"/>
        <pt x="327" y="305" on="0"/>
        <pt x="285" y="327" on="0"/>
        <pt x="259" y="327" on="1"/>
        <pt x="218" y="327" on="0"/>
        <pt x="135" y="271" on="0"/>
        <pt x="89" y="222" on="1"/>
        <pt x="88" y="222" on="1"/>
        <pt x="126" y="399" on="1"/>
        <pt x="157" y="430" on="0"/>
        <pt x="228" y="469" on="0"/>
        <pt x="274" y="469" on="1"/>
        <pt x="308" y="469" on="0"/>
        <pt x="372" y="441" on="0"/>
        <pt x="411" y="417" on="1"/>
        <pt x="448" y="395" on="0"/>
        <pt x="490" y="373" on="0"/>
        <pt x="516" y="373" on="1"/>
        <pt x="557" y="373" on="0"/>
        <pt x="640" y="429" on="0"/>
        <pt x="686" y="478" on="1"/>
        <pt x="687" y="478" on="1"/>
        <pt x="649" y="301" on="1"/>
        <pt x="618" y="270" on="0"/>
        <pt x="547" y="231" on="0"/>
      </contour>
    </TTGlyph>
    <TTGlyph name="asciitilde.tab" xMin="83" yMin="222" xMax="682" yMax="478">
      <component glyphName="asciitilde" x="-5" y="0" flags="0x4"/>
    </TTGlyph>
    <TTGlyph name="asterisk" xMin="123" yMin="316" xMax="508" yMax="704">
      <contour>
        <pt x="359" y="320" on="1"/>
        <pt x="331" y="316" on="1"/>
        <pt x="282" y="399" on="1"/>
        <pt x="196" y="361" on="1"/>
        <pt x="173" y="380" on="1"/>
        <pt x="207" y="470" on="1"/>
        <pt x="123" y="514" on="1"/>
        <pt x="125" y="544" on="1"/>
        <pt x="218" y="574" on="1"/>
        <pt x="200" y="668" on="1"/>
        <pt x="224" y="683" on="1"/>
        <pt x="302" y="632" on="1"/>
        <pt x="365" y="704" on="1"/>
        <pt x="395" y="694" on="1"/>
        <pt x="403" y="598" on="1"/>
        <pt x="498" y="594" on="1"/>
        <pt x="508" y="567" on="1"/>
        <pt x="438" y="501" on="1"/>
        <pt x="495" y="423" on="1"/>
        <pt x="479" y="399" on="1"/>
        <pt x="383" y="412" on="1"/>
      </contour>
    </TTGlyph>
    <TTGlyph name="at" xMin="96" yMin="-111" xMax="982" yMax="774">
      <contour>
        <pt x="757" y="116" on="1"/>
        <pt x="700" y="116" on="0"/>
        <pt x="633" y="155" on="0"/>
        <pt x="618" y="186" on="1"/>
        <pt x="593" y="157" on="0"/>
        <pt x="516" y="120" on="0"/>
        <pt x="470" y="120" on="1"/>
        <pt x="411" y="120" on="0"/>
        <pt x="344" y="182" on="0"/>
        <pt x="344" y="231" on="1"/>
        <pt x="344" y="251" on="0"/>
        <pt x="358" y="302" on="0"/>
        <pt x="381" y="325" on="1"/>
        <pt x="409" y="353" on="0"/>
        <pt x="522" y="388" on="0"/>
        <pt x="629" y="390" on="1"/>
        <pt x="630" y="396" on="0"/>
        <pt x="632" y="407" on="0"/>
        <pt x="632" y="413" on="1"/>
        <pt x="632" y="438" on="0"/>
        <pt x="593" y="462" on="0"/>
        <pt x="559" y="462" on="1"/>
        <pt x="528" y="462" on="0"/>
        <pt x="448" y="442" on="0"/>
        <pt x="411" y="423" on="1"/>
        <pt x="410" y="423" on="1"/>
        <pt x="433" y="532" on="1"/>
        <pt x="467" y="547" on="0"/>
        <pt x="539" y="562" on="0"/>
        <pt x="579" y="562" on="1"/>
        <pt x="660" y="562" on="0"/>
        <pt x="746" y="490" on="0"/>
        <pt x="746" y="424" on="1"/>
        <pt x="746" y="411" on="0"/>
        <pt x="742" y="379" on="0"/>
        <pt x="738" y="363" on="1"/>
        <pt x="721" y="283" on="1"/>
        <pt x="720" y="276" on="0"/>
        <pt x="717" y="257" on="0"/>
        <pt x="717" y="250" on="1"/>
        <pt x="718" y="228" on="0"/>
        <pt x="745" y="209" on="0"/>
        <pt x="765" y="209" on="1"/>
        <pt x="791" y="209" on="0"/>
        <pt x="831" y="244" on="0"/>
        <pt x="857" y="304" on="0"/>
        <pt x="872" y="386" on="0"/>
        <pt x="872" y="432" on="1"/>
        <pt x="873" y="542" on="0"/>
        <pt x="722" y="670" on="0"/>
        <pt x="591" y="670" on="1"/>
        <pt x="491" y="670" on="0"/>
        <pt x="346" y="596" on="0"/>
        <pt x="255" y="479" on="0"/>
        <pt x="212" y="332" on="0"/>
        <pt x="212" y="258" on="1"/>
        <pt x="212" y="188" on="0"/>
        <pt x="257" y="87" on="0"/>
        <pt x="336" y="23" on="0"/>
        <pt x="448" y="-7" on="0"/>
        <pt x="515" y="-7" on="1"/>
        <pt x="591" y="-7" on="0"/>
        <pt x="712" y="24" on="0"/>
        <pt x="772" y="47" on="1"/>
        <pt x="748" y="-66" on="1"/>
        <pt x="692" y="-86" on="0"/>
        <pt x="564" y="-111" on="0"/>
        <pt x="510" y="-111" on="1"/>
        <pt x="416" y="-111" on="0"/>
        <pt x="263" y="-64" on="0"/>
        <pt x="155" y="27" on="0"/>
        <pt x="96" y="163" on="0"/>
        <pt x="96" y="251" on="1"/>
        <pt x="96" y="344" on="0"/>
        <pt x="155" y="532" on="0"/>
        <pt x="277" y="680" on="0"/>
        <pt x="467" y="774" on="0"/>
        <pt x="597" y="774" on="1"/>
        <pt x="687" y="774" on="0"/>
        <pt x="830" y="725" on="0"/>
        <pt x="929" y="635" on="0"/>
        <pt x="982" y="505" on="0"/>
        <pt x="982" y="426" on="1"/>
        <pt x="982" y="373" on="0"/>
        <pt x="958" y="262" on="0"/>
        <pt x="905" y="173" on="0"/>
        <pt x="819" y="116" on="0"/>
      </contour>
      <contour>
        <pt x="511" y="210" on="1"/>
        <pt x="536" y="210" on="0"/>
        <pt x="582" y="230" on="0"/>
        <pt x="597" y="241" on="1"/>
        <pt x="613" y="314" on="1"/>
        <pt x="553" y="311" on="0"/>
        <pt x="488" y="293" on="0"/>
        <pt x="475" y="280" on="1"/>
        <pt x="466" y="271" on="0"/>
        <pt x="461" y="252" on="0"/>
        <pt x="461" y="244" on="1"/>
        <pt x="461" y="228" on="0"/>
        <pt x="486" y="210" on="0"/>
      </contour>
    </TTGlyph>
    <TTGlyph name="at.cap" xMin="100" yMin="-93" xMax="986" yMax="792">
      <component glyphName="at" x="4" y="18" flags="0x4"/>
    </TTGlyph>
    <TTGlyph name="atilde" xMin="26" yMin="-14" xMax="576" yMax="795">
      <component glyphName="a" x="0" y="0" flags="0x204"/>
      <component glyphName="tilde" x="34" y="16" flags="0x4"/>
    </TTGlyph>
    <TTGlyph name="atilde.sc" xMin="-15" yMin="0" xMax="674" yMax="836">
      <component glyphName="a.sc" x="0" y="0" flags="0x204"/>
      <component glyphName="tilde" x="132" y="57" flags="0x4"/>
    </TTGlyph>
    <TTGlyph name="b" xMin="29" yMin="-15" xMax="610" yMax="758">
      <contour>
        <pt x="330" y="758" on="1"/>
        <pt x="275" y="498" on="1"/>
        <pt x="300" y="520" on="0"/>
        <pt x="370" y="552" on="0"/>
        <pt x="415" y="552" on="1"/>
        <pt x="454" y="552" on="0"/>
        <pt x="525" y="525" on="0"/>
        <pt x="578" y="472" on="0"/>
        <pt x="610" y="389" on="0"/>
        <pt x="610" y="334" on="1"/>
        <pt x="610" y="262" on="0"/>
        <pt x="563" y="135" on="0"/>
        <pt x="479" y="40" on="0"/>
        <pt x="360" y="-15" on="0"/>
        <pt x="289" y="-15" on="1"/>
        <pt x="252" y="-15" on="0"/>
        <pt x="178" y="2" on="0"/>
        <pt x="144" y="17" on="1"/>
        <pt x="29" y="17" on="1"/>
        <pt x="186" y="758" on="1"/>
      </contour>
      <contour>
        <pt x="292" y="107" on="1"/>
        <pt x="333" y="107" on="0"/>
        <pt x="398" y="143" on="0"/>
        <pt x="443" y="202" on="0"/>
        <pt x="467" y="279" on="0"/>
        <pt x="467" y="320" on="1"/>
        <pt x="467" y="382" on="0"/>
        <pt x="409" y="432" on="0"/>
        <pt x="364" y="432" on="1"/>
        <pt x="334" y="432" on="0"/>
        <pt x="275" y="410" on="0"/>
        <pt x="253" y="394" on="1"/>
        <pt x="197" y="133" on="1"/>
        <pt x="219" y="120" on="0"/>
        <pt x="270" y="107" on="0"/>
      </contour>
    </TTGlyph>
    <TTGlyph name="b.sc" xMin="43" yMin="0" xMax="668" yMax="596">
      <contour>
        <pt x="43" y="0" on="1"/>
        <pt x="170" y="596" on="1"/>
        <pt x="463" y="596" on="1"/>
        <pt x="569" y="596" on="0"/>
        <pt x="668" y="519" on="0"/>
        <pt x="668" y="453" on="1"/>
        <pt x="668" y="397" on="0"/>
        <pt x="605" y="321" on="0"/>
        <pt x="539" y="301" on="1"/>
        <pt x="579" y="287" on="0"/>
        <pt x="631" y="227" on="0"/>
        <pt x="631" y="180" on="1"/>
        <pt x="631" y="94" on="0"/>
        <pt x="497" y="0" on="0"/>
        <pt x="386" y="0" on="1"/>
      </contour>
      <contour>
        <pt x="262" y="359" on="1"/>
        <pt x="435" y="359" on="1"/>
        <pt x="483" y="359" on="0"/>
        <pt x="529" y="395" on="0"/>
        <pt x="529" y="424" on="1"/>
        <pt x="529" y="451" on="0"/>
        <pt x="492" y="474" on="0"/>
        <pt x="452" y="474" on="1"/>
        <pt x="286" y="474" on="1"/>
      </contour>
      <contour>
        <pt x="239" y="249" on="1"/>
        <pt x="212" y="122" on="1"/>
        <pt x="390" y="122" on="1"/>
        <pt x="441" y="122" on="0"/>
        <pt x="488" y="163" on="0"/>
        <pt x="488" y="193" on="1"/>
        <pt x="488" y="219" on="0"/>
        <pt x="452" y="249" on="0"/>
        <pt x="406" y="249" on="1"/>
      </contour>
    </TTGlyph>
    <TTGlyph name="backslash" xMin="143" yMin="-198" xMax="390" yMax="758">
      <contour>
        <pt x="390" y="-198" on="1"/>
        <pt x="262" y="-198" on="1"/>
        <pt x="143" y="758" on="1"/>
        <pt x="271" y="758" on="1"/>
      </contour>
    </TTGlyph>
    <TTGlyph name="backslash.cap" xMin="161" yMin="-128" xMax="408" yMax="828">
      <component glyphName="backslash" x="18" y="70" flags="0x4"/>
    </TTGlyph>
    <TTGlyph name="bar" xMin="78" yMin="-198" xMax="414" yMax="758">
      <contour>
        <pt x="211" y="-198" on="1"/>
        <pt x="78" y="-198" on="1"/>
        <pt x="281" y="758" on="1"/>
        <pt x="414" y="758" on="1"/>
      </contour>
    </TTGlyph>
    <TTGlyph name="bar.cap" xMin="93" yMin="-128" xMax="429" yMax="828">
      <component glyphName="bar" x="15" y="70" flags="0x4"/>
    </TTGlyph>
    <TTGlyph name="bar.tab" xMin="33" yMin="-128" xMax="369" yMax="828">
      <component glyphName="bar.cap" x="-60" y="0" flags="0x4"/>
    </TTGlyph>
    <TTGlyph name="braceleft" xMin="22" yMin="-212" xMax="577" yMax="772">
      <contour>
        <pt x="22" y="290" on="1"/>
        <pt x="28" y="318" on="1"/>
        <pt x="197" y="441" on="1"/>
        <pt x="203" y="520" on="1"/>
        <pt x="209" y="595" on="0"/>
        <pt x="254" y="693" on="0"/>
        <pt x="319" y="750" on="0"/>
        <pt x="400" y="772" on="0"/>
        <pt x="440" y="772" on="1"/>
        <pt x="483" y="772" on="0"/>
        <pt x="541" y="761" on="0"/>
        <pt x="577" y="748" on="1"/>
        <pt x="552" y="625" on="1"/>
        <pt x="551" y="625" on="1"/>
        <pt x="530" y="635" on="0"/>
        <pt x="477" y="649" on="0"/>
        <pt x="452" y="649" on="1"/>
        <pt x="432" y="649" on="0"/>
        <pt x="394" y="638" on="0"/>
        <pt x="363" y="605" on="0"/>
        <pt x="342" y="545" on="0"/>
        <pt x="338" y="496" on="1"/>
        <pt x="329" y="378" on="1"/>
        <pt x="189" y="283" on="1"/>
        <pt x="284" y="177" on="1"/>
        <pt x="242" y="64" on="1"/>
        <pt x="234" y="42" on="0"/>
        <pt x="224" y="0" on="0"/>
        <pt x="224" y="-16" on="1"/>
        <pt x="223" y="-61" on="0"/>
        <pt x="283" y="-89" on="0"/>
        <pt x="320" y="-89" on="1"/>
        <pt x="336" y="-89" on="0"/>
        <pt x="374" y="-84" on="0"/>
        <pt x="402" y="-79" on="1"/>
        <pt x="403" y="-79" on="1"/>
        <pt x="377" y="-202" on="1"/>
        <pt x="354" y="-207" on="0"/>
        <pt x="298" y="-212" on="0"/>
        <pt x="276" y="-212" on="1"/>
        <pt x="240" y="-212" on="0"/>
        <pt x="170" y="-193" on="0"/>
        <pt x="117" y="-153" on="0"/>
        <pt x="84" y="-90" on="0"/>
        <pt x="84" y="-47" on="1"/>
        <pt x="84" y="-5" on="0"/>
        <pt x="108" y="71" on="0"/>
        <pt x="123" y="111" on="1"/>
        <pt x="139" y="153" on="1"/>
      </contour>
    </TTGlyph>
    <TTGlyph name="braceleft.cap" xMin="37" yMin="-142" xMax="592" yMax="842">
      <component glyphName="braceleft" x="15" y="70" flags="0x4"/>
    </TTGlyph>
    <TTGlyph name="braceright" xMin="-58" yMin="-212" xMax="497" yMax="772">
      <contour>
        <pt x="497" y="270" on="1"/>
        <pt x="491" y="242" on="1"/>
        <pt x="322" y="119" on="1"/>
        <pt x="316" y="40" on="1"/>
        <pt x="310" y="-35" on="0"/>
        <pt x="265" y="-133" on="0"/>
        <pt x="200" y="-190" on="0"/>
        <pt x="119" y="-212" on="0"/>
        <pt x="79" y="-212" on="1"/>
        <pt x="36" y="-212" on="0"/>
        <pt x="-22" y="-201" on="0"/>
        <pt x="-58" y="-188" on="1"/>
        <pt x="-33" y="-65" on="1"/>
        <pt x="-32" y="-65" on="1"/>
        <pt x="-11" y="-75" on="0"/>
        <pt x="42" y="-89" on="0"/>
        <pt x="67" y="-89" on="1"/>
        <pt x="87" y="-89" on="0"/>
        <pt x="125" y="-78" on="0"/>
        <pt x="156" y="-45" on="0"/>
        <pt x="177" y="15" on="0"/>
        <pt x="181" y="64" on="1"/>
        <pt x="190" y="182" on="1"/>
        <pt x="330" y="277" on="1"/>
        <pt x="235" y="383" on="1"/>
        <pt x="277" y="496" on="1"/>
        <pt x="285" y="518" on="0"/>
        <pt x="295" y="560" on="0"/>
        <pt x="295" y="576" on="1"/>
        <pt x="296" y="621" on="0"/>
        <pt x="236" y="649" on="0"/>
        <pt x="199" y="649" on="1"/>
        <pt x="183" y="649" on="0"/>
        <pt x="145" y="644" on="0"/>
        <pt x="117" y="639" on="1"/>
        <pt x="116" y="639" on="1"/>
        <pt x="142" y="762" on="1"/>
        <pt x="165" y="767" on="0"/>
        <pt x="221" y="772" on="0"/>
        <pt x="243" y="772" on="1"/>
        <pt x="279" y="772" on="0"/>
        <pt x="349" y="753" on="0"/>
        <pt x="402" y="713" on="0"/>
        <pt x="435" y="650" on="0"/>
        <pt x="435" y="607" on="1"/>
        <pt x="435" y="565" on="0"/>
        <pt x="411" y="489" on="0"/>
        <pt x="396" y="449" on="1"/>
        <pt x="380" y="407" on="1"/>
      </contour>
    </TTGlyph>
    <TTGlyph name="braceright.cap" xMin="-43" yMin="-142" xMax="512" yMax="842">
      <component glyphName="braceright" x="15" y="70" flags="0x4"/>
    </TTGlyph>
    <TTGlyph name="bracketleft" xMin="-22" yMin="-198" xMax="493" yMax="758">
      <contour>
        <pt x="-22" y="-198" on="1"/>
        <pt x="182" y="758" on="1"/>
        <pt x="493" y="758" on="1"/>
        <pt x="469" y="645" on="1"/>
        <pt x="295" y="645" on="1"/>
        <pt x="140" y="-85" on="1"/>
        <pt x="314" y="-85" on="1"/>
        <pt x="289" y="-198" on="1"/>
      </contour>
    </TTGlyph>
    <TTGlyph name="bracketleft.cap" xMin="-7" yMin="-128" xMax="508" yMax="828">
      <component glyphName="bracketleft" x="15" y="70" flags="0x4"/>
    </TTGlyph>
    <TTGlyph name="bracketright" xMin="-62" yMin="-198" xMax="453" yMax="758">
      <contour>
        <pt x="453" y="758" on="1"/>
        <pt x="249" y="-198" on="1"/>
        <pt x="-62" y="-198" on="1"/>
        <pt x="-38" y="-85" on="1"/>
        <pt x="136" y="-85" on="1"/>
        <pt x="291" y="645" on="1"/>
        <pt x="117" y="645" on="1"/>
        <pt x="142" y="758" on="1"/>
      </contour>
    </TTGlyph>
    <TTGlyph name="bracketright.cap" xMin="-47" yMin="-128" xMax="468" yMax="828">
      <component glyphName="bracketright" x="15" y="70" flags="0x4"/>
    </TTGlyph>
    <TTGlyph name="breve" xMin="152" yMin="602" xMax="536" yMax="802">
      <contour>
        <pt x="169" y="802" on="1"/>
        <pt x="276" y="802" on="1"/>
        <pt x="270" y="786" on="0"/>
        <pt x="265" y="762" on="0"/>
        <pt x="265" y="752" on="1"/>
        <pt x="265" y="723" on="0"/>
        <pt x="304" y="706" on="0"/>
        <pt x="328" y="706" on="1"/>
        <pt x="360" y="706" on="0"/>
        <pt x="417" y="739" on="0"/>
        <pt x="418" y="802" on="1"/>
        <pt x="536" y="802" on="1"/>
        <pt x="536" y="793" on="1"/>
        <pt x="536" y="700" on="0"/>
        <pt x="418" y="602" on="0"/>
        <pt x="322" y="602" on="1"/>
        <pt x="244" y="602" on="0"/>
        <pt x="152" y="665" on="0"/>
        <pt x="152" y="725" on="1"/>
        <pt x="152" y="741" on="0"/>
        <pt x="161" y="780" on="0"/>
      </contour>
    </TTGlyph>
    <TTGlyph name="bullet" xMin="72" yMin="171" xMax="389" yMax="473">
      <contour>
        <pt x="72" y="308" on="1"/>
        <pt x="72" y="341" on="0"/>
        <pt x="95" y="401" on="0"/>
        <pt x="139" y="446" on="0"/>
        <pt x="204" y="473" on="0"/>
        <pt x="245" y="473" on="1"/>
        <pt x="317" y="473" on="0"/>
        <pt x="389" y="393" on="0"/>
        <pt x="389" y="336" on="1"/>
        <pt x="389" y="303" on="0"/>
        <pt x="366" y="243" on="0"/>
        <pt x="322" y="198" on="0"/>
        <pt x="257" y="171" on="0"/>
        <pt x="216" y="171" on="1"/>
        <pt x="144" y="171" on="0"/>
        <pt x="72" y="251" on="0"/>
      </contour>
    </TTGlyph>
    <TTGlyph name="bullet.cap" xMin="78" yMin="199" xMax="395" yMax="501">
      <component glyphName="bullet" x="6" y="28" flags="0x4"/>
    </TTGlyph>
    <TTGlyph name="c" xMin="45" yMin="-16" xMax="532" yMax="556">
      <contour>
        <pt x="189" y="236" on="1"/>
        <pt x="189" y="173" on="0"/>
        <pt x="266" y="105" on="0"/>
        <pt x="326" y="105" on="1"/>
        <pt x="363" y="105" on="0"/>
        <pt x="434" y="128" on="0"/>
        <pt x="469" y="148" on="1"/>
        <pt x="470" y="148" on="1"/>
        <pt x="443" y="18" on="1"/>
        <pt x="406" y="0" on="0"/>
        <pt x="338" y="-16" on="0"/>
        <pt x="298" y="-16" on="1"/>
        <pt x="243" y="-16" on="0"/>
        <pt x="149" y="16" on="0"/>
        <pt x="83" y="78" on="0"/>
        <pt x="45" y="168" on="0"/>
        <pt x="45" y="225" on="1"/>
        <pt x="45" y="291" on="0"/>
        <pt x="90" y="411" on="0"/>
        <pt x="171" y="502" on="0"/>
        <pt x="286" y="556" on="0"/>
        <pt x="357" y="556" on="1"/>
        <pt x="414" y="556" on="0"/>
        <pt x="507" y="523" on="0"/>
        <pt x="532" y="503" on="1"/>
        <pt x="504" y="376" on="1"/>
        <pt x="503" y="376" on="1"/>
        <pt x="478" y="397" on="0"/>
        <pt x="406" y="432" on="0"/>
        <pt x="363" y="432" on="1"/>
        <pt x="284" y="432" on="0"/>
        <pt x="189" y="320" on="0"/>
      </contour>
    </TTGlyph>
    <TTGlyph name="c.sc" xMin="66" yMin="-16" xMax="649" yMax="611">
      <contour>
        <pt x="418" y="611" on="1"/>
        <pt x="496" y="611" on="0"/>
        <pt x="614" y="566" on="0"/>
        <pt x="649" y="540" on="1"/>
        <pt x="621" y="408" on="1"/>
        <pt x="620" y="408" on="1"/>
        <pt x="590" y="433" on="0"/>
        <pt x="491" y="484" on="0"/>
        <pt x="423" y="484" on="1"/>
        <pt x="376" y="484" on="0"/>
        <pt x="297" y="451" on="0"/>
        <pt x="242" y="395" on="0"/>
        <pt x="212" y="319" on="0"/>
        <pt x="212" y="275" on="1"/>
        <pt x="212" y="200" on="0"/>
        <pt x="305" y="111" on="0"/>
        <pt x="387" y="111" on="1"/>
        <pt x="447" y="111" on="0"/>
        <pt x="544" y="146" on="0"/>
        <pt x="579" y="164" on="1"/>
        <pt x="580" y="164" on="1"/>
        <pt x="551" y="26" on="1"/>
        <pt x="523" y="12" on="0"/>
        <pt x="427" y="-16" on="0"/>
        <pt x="361" y="-16" on="1"/>
        <pt x="292" y="-16" on="0"/>
        <pt x="182" y="26" on="0"/>
        <pt x="106" y="101" on="0"/>
        <pt x="66" y="204" on="0"/>
        <pt x="66" y="264" on="1"/>
        <pt x="66" y="335" on="0"/>
        <pt x="115" y="461" on="0"/>
        <pt x="206" y="555" on="0"/>
        <pt x="337" y="611" on="0"/>
      </contour>
    </TTGlyph>
    <TTGlyph name="cacute" xMin="45" yMin="-16" xMax="636" yMax="798">
      <component glyphName="c" x="0" y="0" flags="0x204"/>
      <component glyphName="acute" x="96" y="16" flags="0x4"/>
    </TTGlyph>
    <TTGlyph name="cacute.sc" xMin="66" yMin="-16" xMax="704" yMax="853">
      <component glyphName="c.sc" x="0" y="0" flags="0x204"/>
      <component glyphName="acute" x="164" y="71" flags="0x4"/>
    </TTGlyph>
    <TTGlyph name="caron" xMin="141" yMin="618" xMax="589" yMax="798">
      <contour>
        <pt x="589" y="798" on="1"/>
        <pt x="416" y="618" on="1"/>
        <pt x="238" y="618" on="1"/>
        <pt x="141" y="798" on="1"/>
        <pt x="278" y="798" on="1"/>
        <pt x="321" y="712" on="1"/>
        <pt x="353" y="712" on="1"/>
        <pt x="433" y="798" on="1"/>
      </contour>
    </TTGlyph>
    <TTGlyph name="caron.alt" xMin="260" yMin="581" xMax="447" yMax="758">
      <contour>
        <pt x="260" y="581" on="1"/>
        <pt x="298" y="758" on="1"/>
        <pt x="447" y="758" on="1"/>
        <pt x="444" y="743" on="1"/>
        <pt x="337" y="581" on="1"/>
      </contour>
    </TTGlyph>
    <TTGlyph name="ccaron" xMin="45" yMin="-16" xMax="632" yMax="814">
      <component glyphName="c" x="0" y="0" flags="0x204"/>
      <component glyphName="caron" x="43" y="16" flags="0x4"/>
    </TTGlyph>
    <TTGlyph name="ccaron.sc" xMin="66" yMin="-16" xMax="700" yMax="869">
      <component glyphName="c.sc" x="0" y="0" flags="0x204"/>
      <component glyphName="caron" x="111" y="71" flags="0x4"/>
    </TTGlyph>
    <TTGlyph name="ccedilla" xMin="39" yMin="-182" xMax="532" yMax="556">
      <contour>
        <pt x="189" y="236" on="1"/>
        <pt x="189" y="173" on="0"/>
        <pt x="266" y="105" on="0"/>
        <pt x="326" y="105" on="1"/>
        <pt x="363" y="105" on="0"/>
        <pt x="434" y="128" on="0"/>
        <pt x="469" y="148" on="1"/>
        <pt x="470" y="148" on="1"/>
        <pt x="443" y="18" on="1"/>
        <pt x="414" y="4" on="0"/>
        <pt x="359" y="-12" on="0"/>
        <pt x="330" y="-15" on="1"/>
        <pt x="219" y="-182" on="1"/>
        <pt x="39" y="-182" on="1"/>
        <pt x="41" y="-174" on="1"/>
        <pt x="214" y="-5" on="1"/>
        <pt x="138" y="15" on="0"/>
        <pt x="45" y="134" on="0"/>
        <pt x="45" y="225" on="1"/>
        <pt x="45" y="291" on="0"/>
        <pt x="90" y="411" on="0"/>
        <pt x="171" y="502" on="0"/>
        <pt x="286" y="556" on="0"/>
        <pt x="357" y="556" on="1"/>
        <pt x="414" y="556" on="0"/>
        <pt x="507" y="523" on="0"/>
        <pt x="532" y="503" on="1"/>
        <pt x="504" y="376" on="1"/>
        <pt x="503" y="376" on="1"/>
        <pt x="478" y="397" on="0"/>
        <pt x="406" y="432" on="0"/>
        <pt x="363" y="432" on="1"/>
        <pt x="284" y="432" on="0"/>
        <pt x="189" y="320" on="0"/>
      </contour>
    </TTGlyph>
    <TTGlyph name="ccedilla.sc" xMin="66" yMin="-182" xMax="649" yMax="611">
      <contour>
        <pt x="418" y="611" on="1"/>
        <pt x="496" y="611" on="0"/>
        <pt x="614" y="566" on="0"/>
        <pt x="649" y="540" on="1"/>
        <pt x="621" y="408" on="1"/>
        <pt x="620" y="408" on="1"/>
        <pt x="590" y="433" on="0"/>
        <pt x="491" y="484" on="0"/>
        <pt x="423" y="484" on="1"/>
        <pt x="376" y="484" on="0"/>
        <pt x="297" y="451" on="0"/>
        <pt x="242" y="395" on="0"/>
        <pt x="212" y="319" on="0"/>
        <pt x="212" y="275" on="1"/>
        <pt x="212" y="200" on="0"/>
        <pt x="305" y="111" on="0"/>
        <pt x="387" y="111" on="1"/>
        <pt x="447" y="111" on="0"/>
        <pt x="544" y="146" on="0"/>
        <pt x="579" y="164" on="1"/>
        <pt x="580" y="164" on="1"/>
        <pt x="551" y="26" on="1"/>
        <pt x="526" y="13" on="0"/>
        <pt x="444" y="-12" on="0"/>
        <pt x="390" y="-15" on="1"/>
        <pt x="279" y="-182" on="1"/>
        <pt x="99" y="-182" on="1"/>
        <pt x="101" y="-174" on="1"/>
        <pt x="273" y="-6" on="1"/>
        <pt x="175" y="18" on="0"/>
        <pt x="66" y="165" on="0"/>
        <pt x="66" y="264" on="1"/>
        <pt x="66" y="335" on="0"/>
        <pt x="115" y="461" on="0"/>
        <pt x="206" y="555" on="0"/>
        <pt x="337" y="611" on="0"/>
      </contour>
    </TTGlyph>
    <TTGlyph name="cdotaccent" xMin="45" yMin="-16" xMax="532" yMax="791">
      <component glyphName="c" x="0" y="0" flags="0x204"/>
      <component glyphName="dotaccent" x="43" y="16" flags="0x4"/>
    </TTGlyph>
    <TTGlyph name="cdotaccent.sc" xMin="66" yMin="-16" xMax="649" yMax="846">
      <component glyphName="c.sc" x="0" y="0" flags="0x204"/>
      <component glyphName="dotaccent" x="110" y="71" flags="0x4"/>
    </TTGlyph>
    <TTGlyph name="cedilla" xMin="-9" yMin="-182" xMax="292" yMax="0">
      <contour>
        <pt x="292" y="0" on="1"/>
        <pt x="171" y="-182" on="1"/>
        <pt x="-9" y="-182" on="1"/>
        <pt x="-7" y="-174" on="1"/>
        <pt x="171" y="0" on="1"/>
      </contour>
    </TTGlyph>
    <TTGlyph name="cent" xMin="57" yMin="-40" xMax="524" yMax="718">
      <contour>
        <pt x="175" y="-40" on="1"/>
        <pt x="206" y="108" on="1"/>
        <pt x="140" y="131" on="0"/>
        <pt x="59" y="239" on="0"/>
        <pt x="58" y="317" on="1"/>
        <pt x="58" y="370" on="0"/>
        <pt x="92" y="467" on="0"/>
        <pt x="155" y="543" on="0"/>
        <pt x="247" y="596" on="0"/>
        <pt x="303" y="604" on="1"/>
        <pt x="327" y="718" on="1"/>
        <pt x="456" y="718" on="1"/>
        <pt x="431" y="599" on="1"/>
        <pt x="460" y="592" on="0"/>
        <pt x="508" y="571" on="0"/>
        <pt x="524" y="560" on="1"/>
        <pt x="498" y="438" on="1"/>
        <pt x="497" y="438" on="1"/>
        <pt x="471" y="457" on="0"/>
        <pt x="397" y="487" on="0"/>
        <pt x="357" y="487" on="1"/>
        <pt x="283" y="487" on="0"/>
        <pt x="196" y="396" on="0"/>
        <pt x="197" y="330" on="1"/>
        <pt x="198" y="273" on="0"/>
        <pt x="271" y="215" on="0"/>
        <pt x="328" y="215" on="1"/>
        <pt x="363" y="215" on="0"/>
        <pt x="434" y="235" on="0"/>
        <pt x="469" y="251" on="1"/>
        <pt x="470" y="251" on="1"/>
        <pt x="443" y="123" on="1"/>
        <pt x="419" y="113" on="0"/>
        <pt x="363" y="97" on="0"/>
        <pt x="332" y="94" on="1"/>
        <pt x="307" y="-25" on="1"/>
      </contour>
    </TTGlyph>
    <TTGlyph name="cent.tab" xMin="147" yMin="-40" xMax="634" yMax="718">
      <contour>
        <pt x="275" y="-40" on="1"/>
        <pt x="306" y="107" on="1"/>
        <pt x="235" y="129" on="0"/>
        <pt x="149" y="240" on="0"/>
        <pt x="148" y="320" on="1"/>
        <pt x="148" y="373" on="0"/>
        <pt x="183" y="469" on="0"/>
        <pt x="249" y="545" on="0"/>
        <pt x="344" y="597" on="0"/>
        <pt x="403" y="605" on="1"/>
        <pt x="427" y="718" on="1"/>
        <pt x="556" y="718" on="1"/>
        <pt x="531" y="600" on="1"/>
        <pt x="563" y="593" on="0"/>
        <pt x="616" y="570" on="0"/>
        <pt x="634" y="558" on="1"/>
        <pt x="608" y="436" on="1"/>
        <pt x="607" y="436" on="1"/>
        <pt x="579" y="455" on="0"/>
        <pt x="500" y="487" on="0"/>
        <pt x="457" y="487" on="1"/>
        <pt x="379" y="487" on="0"/>
        <pt x="286" y="397" on="0"/>
        <pt x="287" y="332" on="1"/>
        <pt x="288" y="274" on="0"/>
        <pt x="367" y="215" on="0"/>
        <pt x="428" y="215" on="1"/>
        <pt x="465" y="215" on="0"/>
        <pt x="542" y="233" on="0"/>
        <pt x="579" y="249" on="1"/>
        <pt x="580" y="249" on="1"/>
        <pt x="553" y="121" on="1"/>
        <pt x="527" y="111" on="0"/>
        <pt x="466" y="96" on="0"/>
        <pt x="432" y="94" on="1"/>
        <pt x="407" y="-25" on="1"/>
      </contour>
    </TTGlyph>
    <TTGlyph name="circle.checked" xMin="126" yMin="-46" xMax="952" yMax="746">
      <contour>
        <pt x="539" y="-46" on="1"/>
        <pt x="445" y="-46" on="0"/>
        <pt x="291" y="11" on="0"/>
        <pt x="184" y="113" on="0"/>
        <pt x="126" y="260" on="0"/>
        <pt x="126" y="350" on="1"/>
        <pt x="126" y="439" on="0"/>
        <pt x="184" y="586" on="0"/>
        <pt x="291" y="689" on="0"/>
        <pt x="445" y="746" on="0"/>
        <pt x="539" y="746" on="1"/>
        <pt x="634" y="746" on="0"/>
        <pt x="787" y="689" on="0"/>
        <pt x="894" y="587" on="0"/>
        <pt x="952" y="440" on="0"/>
        <pt x="952" y="350" on="1"/>
        <pt x="952" y="261" on="0"/>
        <pt x="894" y="114" on="0"/>
        <pt x="787" y="11" on="0"/>
        <pt x="633" y="-46" on="0"/>
      </contour>
      <contour>
        <pt x="539" y="82" on="1"/>
        <pt x="666" y="82" on="0"/>
        <pt x="807" y="227" on="0"/>
        <pt x="807" y="350" on="1"/>
        <pt x="807" y="473" on="0"/>
        <pt x="666" y="618" on="0"/>
        <pt x="539" y="618" on="1"/>
        <pt x="412" y="618" on="0"/>
        <pt x="271" y="473" on="0"/>
        <pt x="271" y="350" on="1"/>
        <pt x="271" y="227" on="0"/>
        <pt x="412" y="82" on="0"/>
      </contour>
      <contour>
        <pt x="539" y="219" on="1"/>
        <pt x="478" y="219" on="0"/>
        <pt x="408" y="290" on="0"/>
        <pt x="408" y="350" on="1"/>
        <pt x="408" y="410" on="0"/>
        <pt x="478" y="481" on="0"/>
        <pt x="539" y="481" on="1"/>
        <pt x="601" y="481" on="0"/>
        <pt x="670" y="410" on="0"/>
        <pt x="670" y="350" on="1"/>
        <pt x="670" y="290" on="0"/>
        <pt x="601" y="219" on="0"/>
      </contour>
    </TTGlyph>
    <TTGlyph name="circle.half" xMin="126" yMin="-46" xMax="952" yMax="746">
      <contour>
        <pt x="539" y="-46" on="1"/>
        <pt x="445" y="-46" on="0"/>
        <pt x="291" y="11" on="0"/>
        <pt x="184" y="113" on="0"/>
        <pt x="126" y="260" on="0"/>
        <pt x="126" y="350" on="1"/>
        <pt x="126" y="439" on="0"/>
        <pt x="184" y="586" on="0"/>
        <pt x="291" y="689" on="0"/>
        <pt x="445" y="746" on="0"/>
        <pt x="539" y="746" on="1"/>
        <pt x="634" y="746" on="0"/>
        <pt x="787" y="689" on="0"/>
        <pt x="894" y="587" on="0"/>
        <pt x="952" y="440" on="0"/>
        <pt x="952" y="350" on="1"/>
        <pt x="952" y="261" on="0"/>
        <pt x="894" y="114" on="0"/>
        <pt x="787" y="11" on="0"/>
        <pt x="633" y="-46" on="0"/>
      </contour>
      <contour>
        <pt x="534" y="77" on="1"/>
        <pt x="663" y="77" on="0"/>
        <pt x="809" y="227" on="0"/>
        <pt x="809" y="350" on="1"/>
        <pt x="809" y="473" on="0"/>
        <pt x="663" y="623" on="0"/>
        <pt x="534" y="623" on="1"/>
      </contour>
    </TTGlyph>
    <TTGlyph name="circle.open" xMin="126" yMin="-46" xMax="952" yMax="746">
      <contour>
        <pt x="539" y="-46" on="1"/>
        <pt x="445" y="-46" on="0"/>
        <pt x="291" y="11" on="0"/>
        <pt x="184" y="113" on="0"/>
        <pt x="126" y="260" on="0"/>
        <pt x="126" y="350" on="1"/>
        <pt x="126" y="439" on="0"/>
        <pt x="184" y="586" on="0"/>
        <pt x="291" y="689" on="0"/>
        <pt x="445" y="746" on="0"/>
        <pt x="539" y="746" on="1"/>
        <pt x="634" y="746" on="0"/>
        <pt x="787" y="689" on="0"/>
        <pt x="894" y="587" on="0"/>
        <pt x="952" y="440" on="0"/>
        <pt x="952" y="350" on="1"/>
        <pt x="952" y="261" on="0"/>
        <pt x="894" y="114" on="0"/>
        <pt x="787" y="11" on="0"/>
        <pt x="633" y="-46" on="0"/>
      </contour>
      <contour>
        <pt x="539" y="82" on="1"/>
        <pt x="666" y="82" on="0"/>
        <pt x="807" y="227" on="0"/>
        <pt x="807" y="350" on="1"/>
        <pt x="807" y="473" on="0"/>
        <pt x="666" y="618" on="0"/>
        <pt x="539" y="618" on="1"/>
        <pt x="412" y="618" on="0"/>
        <pt x="271" y="473" on="0"/>
        <pt x="271" y="350" on="1"/>
        <pt x="271" y="227" on="0"/>
        <pt x="412" y="82" on="0"/>
      </contour>
    </TTGlyph>
    <TTGlyph name="circle.solid" xMin="126" yMin="-46" xMax="952" yMax="746">
      <contour>
        <pt x="539" y="-46" on="1"/>
        <pt x="445" y="-46" on="0"/>
        <pt x="291" y="11" on="0"/>
        <pt x="184" y="113" on="0"/>
        <pt x="126" y="260" on="0"/>
        <pt x="126" y="350" on="1"/>
        <pt x="126" y="439" on="0"/>
        <pt x="184" y="586" on="0"/>
        <pt x="291" y="689" on="0"/>
        <pt x="445" y="746" on="0"/>
        <pt x="539" y="746" on="1"/>
        <pt x="634" y="746" on="0"/>
        <pt x="787" y="689" on="0"/>
        <pt x="894" y="587" on="0"/>
        <pt x="952" y="440" on="0"/>
        <pt x="952" y="350" on="1"/>
        <pt x="952" y="261" on="0"/>
        <pt x="894" y="114" on="0"/>
        <pt x="787" y="11" on="0"/>
        <pt x="633" y="-46" on="0"/>
      </contour>
    </TTGlyph>
    <TTGlyph name="circumflex" xMin="103" yMin="618" xMax="551" yMax="798">
      <contour>
        <pt x="103" y="618" on="1"/>
        <pt x="276" y="798" on="1"/>
        <pt x="454" y="798" on="1"/>
        <pt x="551" y="618" on="1"/>
        <pt x="414" y="618" on="1"/>
        <pt x="369" y="704" on="1"/>
        <pt x="337" y="704" on="1"/>
        <pt x="258" y="618" on="1"/>
      </contour>
    </TTGlyph>
    <TTGlyph name="colon" xMin="55" yMin="-11" xMax="349" yMax="540">
      <component glyphName="period" x="1" y="0" flags="0x4"/>
      <component glyphName="period" x="76" y="356" flags="0x4"/>
    </TTGlyph>
    <TTGlyph name="colon.fig" xMin="73" yMin="74" xMax="367" yMax="625">
      <component glyphName="colon" x="18" y="85" flags="0x4"/>
    </TTGlyph>
    <TTGlyph name="colon.tab" xMin="36" yMin="-11" xMax="330" yMax="540">
      <component glyphName="colon" x="-19" y="0" flags="0x4"/>
    </TTGlyph>
    <TTGlyph name="colonmonetary" xMin="53" yMin="-110" xMax="784" yMax="805">
      <contour>
        <pt x="166" y="-110" on="1"/>
        <pt x="53" y="-110" on="1"/>
        <pt x="140" y="81" on="1"/>
        <pt x="101" y="121" on="0"/>
        <pt x="59" y="237" on="0"/>
        <pt x="59" y="306" on="1"/>
        <pt x="59" y="385" on="0"/>
        <pt x="110" y="531" on="0"/>
        <pt x="205" y="642" on="0"/>
        <pt x="343" y="710" on="0"/>
        <pt x="429" y="712" on="1"/>
        <pt x="471" y="805" on="1"/>
        <pt x="586" y="805" on="1"/>
        <pt x="539" y="700" on="1"/>
        <pt x="558" y="695" on="0"/>
        <pt x="594" y="681" on="0"/>
        <pt x="610" y="674" on="1"/>
        <pt x="669" y="805" on="1"/>
        <pt x="784" y="805" on="1"/>
        <pt x="471" y="117" on="1"/>
        <pt x="506" y="124" on="0"/>
        <pt x="568" y="148" on="0"/>
        <pt x="591" y="160" on="1"/>
        <pt x="592" y="160" on="1"/>
        <pt x="565" y="30" on="1"/>
        <pt x="539" y="16" on="0"/>
        <pt x="458" y="-5" on="0"/>
        <pt x="414" y="-8" on="1"/>
        <pt x="368" y="-110" on="1"/>
        <pt x="255" y="-110" on="1"/>
        <pt x="304" y="-4" on="1"/>
        <pt x="282" y="0" on="0"/>
        <pt x="243" y="12" on="0"/>
        <pt x="225" y="20" on="1"/>
      </contour>
      <contour>
        <pt x="197" y="310" on="1"/>
        <pt x="197" y="286" on="0"/>
        <pt x="204" y="243" on="0"/>
        <pt x="210" y="225" on="1"/>
        <pt x="373" y="581" on="1"/>
        <pt x="330" y="569" on="0"/>
        <pt x="264" y="515" on="0"/>
        <pt x="219" y="443" on="0"/>
        <pt x="197" y="355" on="0"/>
      </contour>
      <contour>
        <pt x="276" y="140" on="1"/>
        <pt x="294" y="128" on="0"/>
        <pt x="338" y="113" on="0"/>
        <pt x="363" y="111" on="1"/>
        <pt x="564" y="552" on="1"/>
        <pt x="545" y="561" on="0"/>
        <pt x="501" y="575" on="0"/>
        <pt x="477" y="579" on="1"/>
      </contour>
    </TTGlyph>
    <TTGlyph name="comma" xMin="-17" yMin="-139" xMax="291" yMax="186">
      <contour>
        <pt x="85" y="186" on="1"/>
        <pt x="291" y="186" on="1"/>
        <pt x="291" y="171" on="1"/>
        <pt x="68" y="-139" on="1"/>
        <pt x="-17" y="-139" on="1"/>
      </contour>
    </TTGlyph>
    <TTGlyph name="comma.tab" xMin="-23" yMin="-139" xMax="285" yMax="186">
      <component glyphName="comma" x="-6" y="0" flags="0x4"/>
    </TTGlyph>
    <TTGlyph name="copyright" xMin="74" yMin="-46" xMax="934" yMax="746">
      <contour>
        <pt x="504" y="-46" on="1"/>
        <pt x="407" y="-46" on="0"/>
        <pt x="247" y="11" on="0"/>
        <pt x="135" y="114" on="0"/>
        <pt x="74" y="261" on="0"/>
        <pt x="74" y="350" on="1"/>
        <pt x="74" y="439" on="0"/>
        <pt x="135" y="586" on="0"/>
        <pt x="247" y="689" on="0"/>
        <pt x="407" y="746" on="0"/>
        <pt x="504" y="746" on="1"/>
        <pt x="601" y="746" on="0"/>
        <pt x="761" y="689" on="0"/>
        <pt x="873" y="586" on="0"/>
        <pt x="934" y="439" on="0"/>
        <pt x="934" y="350" on="1"/>
        <pt x="934" y="261" on="0"/>
        <pt x="873" y="114" on="0"/>
        <pt x="761" y="11" on="0"/>
        <pt x="601" y="-46" on="0"/>
      </contour>
      <contour>
        <pt x="504" y="52" on="1"/>
        <pt x="576" y="52" on="0"/>
        <pt x="693" y="92" on="0"/>
        <pt x="775" y="168" on="0"/>
        <pt x="820" y="279" on="0"/>
        <pt x="820" y="350" on="1"/>
        <pt x="820" y="421" on="0"/>
        <pt x="775" y="532" on="0"/>
        <pt x="693" y="608" on="0"/>
        <pt x="576" y="648" on="0"/>
        <pt x="504" y="648" on="1"/>
        <pt x="432" y="648" on="0"/>
        <pt x="315" y="608" on="0"/>
        <pt x="233" y="532" on="0"/>
        <pt x="188" y="421" on="0"/>
        <pt x="188" y="350" on="1"/>
        <pt x="188" y="279" on="0"/>
        <pt x="233" y="168" on="0"/>
        <pt x="315" y="92" on="0"/>
        <pt x="432" y="52" on="0"/>
      </contour>
      <contour>
        <pt x="521" y="165" on="1"/>
        <pt x="469" y="165" on="0"/>
        <pt x="393" y="195" on="0"/>
        <pt x="343" y="246" on="0"/>
        <pt x="319" y="315" on="0"/>
        <pt x="319" y="353" on="1"/>
        <pt x="319" y="391" on="0"/>
        <pt x="346" y="459" on="0"/>
        <pt x="398" y="511" on="0"/>
        <pt x="476" y="541" on="0"/>
        <pt x="526" y="541" on="1"/>
        <pt x="571" y="541" on="0"/>
        <pt x="640" y="516" on="0"/>
        <pt x="663" y="499" on="1"/>
        <pt x="663" y="400" on="1"/>
        <pt x="662" y="400" on="1"/>
        <pt x="631" y="421" on="0"/>
        <pt x="573" y="447" on="0"/>
        <pt x="537" y="447" on="1"/>
        <pt x="487" y="447" on="0"/>
        <pt x="430" y="392" on="0"/>
        <pt x="430" y="353" on="1"/>
        <pt x="430" y="312" on="0"/>
        <pt x="478" y="258" on="0"/>
        <pt x="535" y="258" on="1"/>
        <pt x="575" y="258" on="0"/>
        <pt x="633" y="285" on="0"/>
        <pt x="662" y="305" on="1"/>
        <pt x="663" y="305" on="1"/>
        <pt x="663" y="205" on="1"/>
        <pt x="644" y="193" on="0"/>
        <pt x="570" y="165" on="0"/>
      </contour>
    </TTGlyph>
    <TTGlyph name="d" xMin="42" yMin="-11" xMax="673" yMax="758">
      <contour>
        <pt x="233" y="-11" on="1"/>
        <pt x="194" y="-11" on="0"/>
        <pt x="124" y="16" on="0"/>
        <pt x="73" y="69" on="0"/>
        <pt x="42" y="152" on="0"/>
        <pt x="42" y="207" on="1"/>
        <pt x="42" y="279" on="0"/>
        <pt x="90" y="406" on="0"/>
        <pt x="173" y="501" on="0"/>
        <pt x="286" y="556" on="0"/>
        <pt x="350" y="556" on="1"/>
        <pt x="390" y="556" on="0"/>
        <pt x="454" y="538" on="0"/>
        <pt x="479" y="523" on="1"/>
        <pt x="529" y="758" on="1"/>
        <pt x="673" y="758" on="1"/>
        <pt x="512" y="0" on="1"/>
        <pt x="370" y="0" on="1"/>
        <pt x="382" y="55" on="1"/>
        <pt x="354" y="27" on="0"/>
        <pt x="281" y="-11" on="0"/>
      </contour>
      <contour>
        <pt x="288" y="109" on="1"/>
        <pt x="319" y="109" on="0"/>
        <pt x="378" y="133" on="0"/>
        <pt x="400" y="152" on="1"/>
        <pt x="453" y="401" on="1"/>
        <pt x="435" y="415" on="0"/>
        <pt x="385" y="434" on="0"/>
        <pt x="355" y="434" on="1"/>
        <pt x="315" y="434" on="0"/>
        <pt x="251" y="398" on="0"/>
        <pt x="208" y="339" on="0"/>
        <pt x="185" y="262" on="0"/>
        <pt x="185" y="221" on="1"/>
        <pt x="185" y="159" on="0"/>
        <pt x="243" y="109" on="0"/>
      </contour>
    </TTGlyph>
    <TTGlyph name="d.sc" xMin="43" yMin="0" xMax="695" yMax="596">
      <contour>
        <pt x="43" y="0" on="1"/>
        <pt x="170" y="596" on="1"/>
        <pt x="390" y="596" on="1"/>
        <pt x="469" y="596" on="0"/>
        <pt x="584" y="559" on="0"/>
        <pt x="659" y="493" on="0"/>
        <pt x="695" y="401" on="0"/>
        <pt x="695" y="347" on="1"/>
        <pt x="695" y="287" on="0"/>
        <pt x="656" y="163" on="0"/>
        <pt x="566" y="63" on="0"/>
        <pt x="414" y="0" on="0"/>
        <pt x="302" y="0" on="1"/>
      </contour>
      <contour>
        <pt x="550" y="337" on="1"/>
        <pt x="550" y="403" on="0"/>
        <pt x="468" y="472" on="0"/>
        <pt x="382" y="472" on="1"/>
        <pt x="287" y="472" on="1"/>
        <pt x="213" y="124" on="1"/>
        <pt x="322" y="124" on="1"/>
        <pt x="385" y="124" on="0"/>
        <pt x="473" y="160" on="0"/>
        <pt x="526" y="219" on="0"/>
        <pt x="550" y="296" on="0"/>
      </contour>
    </TTGlyph>
    <TTGlyph name="dagger" xMin="101" yMin="168" xMax="514" yMax="700">
      <contour>
        <pt x="177" y="168" on="1"/>
        <pt x="240" y="466" on="1"/>
        <pt x="101" y="466" on="1"/>
        <pt x="131" y="570" on="1"/>
        <pt x="262" y="570" on="1"/>
        <pt x="290" y="700" on="1"/>
        <pt x="412" y="700" on="1"/>
        <pt x="384" y="570" on="1"/>
        <pt x="514" y="570" on="1"/>
        <pt x="492" y="466" on="1"/>
        <pt x="362" y="466" on="1"/>
        <pt x="299" y="168" on="1"/>
      </contour>
    </TTGlyph>
    <TTGlyph name="daggerdbl" xMin="68" yMin="126" xMax="514" yMax="700">
      <contour>
        <pt x="169" y="126" on="1"/>
        <pt x="197" y="256" on="1"/>
        <pt x="68" y="256" on="1"/>
        <pt x="90" y="360" on="1"/>
        <pt x="219" y="360" on="1"/>
        <pt x="241" y="466" on="1"/>
        <pt x="101" y="466" on="1"/>
        <pt x="131" y="570" on="1"/>
        <pt x="263" y="570" on="1"/>
        <pt x="291" y="700" on="1"/>
        <pt x="413" y="700" on="1"/>
        <pt x="385" y="570" on="1"/>
        <pt x="514" y="570" on="1"/>
        <pt x="492" y="466" on="1"/>
        <pt x="363" y="466" on="1"/>
        <pt x="341" y="360" on="1"/>
        <pt x="481" y="360" on="1"/>
        <pt x="451" y="256" on="1"/>
        <pt x="319" y="256" on="1"/>
        <pt x="291" y="126" on="1"/>
      </contour>
    </TTGlyph>
    <TTGlyph name="dcaron" xMin="42" yMin="-11" xMax="895" yMax="758">
      <component glyphName="d" x="0" y="0" flags="0x204"/>
      <component glyphName="caron.alt" x="448" y="0" flags="0x4"/>
    </TTGlyph>
    <TTGlyph name="dcaron.sc" xMin="43" yMin="0" xMax="695" yMax="854">
      <component glyphName="d.sc" x="0" y="0" flags="0x204"/>
      <component glyphName="caron" x="103" y="56" flags="0x4"/>
    </TTGlyph>
    <TTGlyph name="dcroat" xMin="40" yMin="-11" xMax="727" yMax="758">
      <contour>
        <pt x="231" y="-11" on="1"/>
        <pt x="192" y="-12" on="0"/>
        <pt x="122" y="15" on="0"/>
        <pt x="71" y="68" on="0"/>
        <pt x="40" y="149" on="0"/>
        <pt x="40" y="202" on="1"/>
        <pt x="40" y="271" on="0"/>
        <pt x="88" y="390" on="0"/>
        <pt x="171" y="475" on="0"/>
        <pt x="284" y="524" on="0"/>
        <pt x="348" y="524" on="1"/>
        <pt x="386" y="524" on="0"/>
        <pt x="447" y="508" on="0"/>
        <pt x="471" y="495" on="1"/>
        <pt x="490" y="585" on="1"/>
        <pt x="314" y="585" on="1"/>
        <pt x="334" y="679" on="1"/>
        <pt x="510" y="679" on="1"/>
        <pt x="527" y="758" on="1"/>
        <pt x="671" y="758" on="1"/>
        <pt x="654" y="679" on="1"/>
        <pt x="727" y="679" on="1"/>
        <pt x="721" y="585" on="1"/>
        <pt x="634" y="585" on="1"/>
        <pt x="510" y="0" on="1"/>
        <pt x="368" y="0" on="1"/>
        <pt x="380" y="56" on="1"/>
        <pt x="353" y="28" on="0"/>
        <pt x="279" y="-10" on="0"/>
      </contour>
      <contour>
        <pt x="286" y="109" on="1"/>
        <pt x="317" y="109" on="0"/>
        <pt x="376" y="133" on="0"/>
        <pt x="398" y="152" on="1"/>
        <pt x="445" y="373" on="1"/>
        <pt x="428" y="386" on="0"/>
        <pt x="380" y="402" on="0"/>
        <pt x="353" y="402" on="1"/>
        <pt x="313" y="402" on="0"/>
        <pt x="249" y="373" on="0"/>
        <pt x="207" y="323" on="0"/>
        <pt x="184" y="256" on="0"/>
        <pt x="184" y="218" on="1"/>
        <pt x="184" y="160" on="0"/>
        <pt x="241" y="109" on="0"/>
      </contour>
    </TTGlyph>
    <TTGlyph name="dcroat.sc" xMin="35" yMin="0" xMax="725" yMax="596">
      <component glyphName="eth.sc" x="0" y="0" flags="0x204"/>
    </TTGlyph>
    <TTGlyph name="degree" xMin="114" yMin="268" xMax="579" yMax="708">
      <contour>
        <pt x="361" y="708" on="1"/>
        <pt x="414" y="708" on="0"/>
        <pt x="496" y="677" on="0"/>
        <pt x="551" y="622" on="0"/>
        <pt x="579" y="548" on="0"/>
        <pt x="579" y="506" on="1"/>
        <pt x="579" y="460" on="0"/>
        <pt x="547" y="373" on="0"/>
        <pt x="485" y="308" on="0"/>
        <pt x="392" y="268" on="0"/>
        <pt x="332" y="268" on="1"/>
        <pt x="279" y="268" on="0"/>
        <pt x="197" y="299" on="0"/>
        <pt x="142" y="354" on="0"/>
        <pt x="114" y="428" on="0"/>
        <pt x="114" y="470" on="1"/>
        <pt x="114" y="516" on="0"/>
        <pt x="146" y="603" on="0"/>
        <pt x="208" y="668" on="0"/>
        <pt x="301" y="708" on="0"/>
      </contour>
      <contour>
        <pt x="337" y="379" on="1"/>
        <pt x="392" y="379" on="0"/>
        <pt x="451" y="450" on="0"/>
        <pt x="451" y="499" on="1"/>
        <pt x="451" y="542" on="0"/>
        <pt x="403" y="597" on="0"/>
        <pt x="356" y="597" on="1"/>
        <pt x="301" y="597" on="0"/>
        <pt x="242" y="526" on="0"/>
        <pt x="242" y="477" on="1"/>
        <pt x="242" y="434" on="0"/>
        <pt x="290" y="379" on="0"/>
      </contour>
    </TTGlyph>
    <TTGlyph name="degree.tab" xMin="133" yMin="268" xMax="598" yMax="708">
      <component glyphName="degree" x="19" y="0" flags="0x4"/>
    </TTGlyph>
    <TTGlyph name="dieresis" xMin="127" yMin="612" xMax="557" yMax="769">
      <contour>
        <pt x="303" y="698" on="1"/>
        <pt x="303" y="664" on="0"/>
        <pt x="251" y="612" on="0"/>
        <pt x="206" y="612" on="1"/>
        <pt x="168" y="612" on="0"/>
        <pt x="127" y="654" on="0"/>
        <pt x="127" y="684" on="1"/>
        <pt x="127" y="718" on="0"/>
        <pt x="179" y="769" on="0"/>
        <pt x="223" y="769" on="1"/>
        <pt x="262" y="769" on="0"/>
        <pt x="303" y="728" on="0"/>
      </contour>
      <contour>
        <pt x="557" y="698" on="1"/>
        <pt x="557" y="664" on="0"/>
        <pt x="505" y="612" on="0"/>
        <pt x="460" y="612" on="1"/>
        <pt x="422" y="612" on="0"/>
        <pt x="381" y="654" on="0"/>
        <pt x="381" y="684" on="1"/>
        <pt x="381" y="718" on="0"/>
        <pt x="433" y="769" on="0"/>
        <pt x="477" y="769" on="1"/>
        <pt x="516" y="769" on="0"/>
        <pt x="557" y="728" on="0"/>
      </contour>
    </TTGlyph>
    <TTGlyph name="divide" xMin="102" yMin="54" xMax="693" yMax="650">
      <contour>
        <pt x="446" y="650" on="1"/>
        <pt x="488" y="650" on="0"/>
        <pt x="535" y="605" on="0"/>
        <pt x="535" y="572" on="1"/>
        <pt x="535" y="534" on="0"/>
        <pt x="479" y="479" on="0"/>
        <pt x="433" y="479" on="1"/>
        <pt x="391" y="479" on="0"/>
        <pt x="344" y="524" on="0"/>
        <pt x="344" y="557" on="1"/>
        <pt x="344" y="595" on="0"/>
        <pt x="400" y="650" on="0"/>
      </contour>
      <contour>
        <pt x="693" y="415" on="1"/>
        <pt x="666" y="289" on="1"/>
        <pt x="102" y="289" on="1"/>
        <pt x="129" y="415" on="1"/>
      </contour>
      <contour>
        <pt x="260" y="132" on="1"/>
        <pt x="260" y="170" on="0"/>
        <pt x="316" y="225" on="0"/>
        <pt x="362" y="225" on="1"/>
        <pt x="404" y="225" on="0"/>
        <pt x="451" y="180" on="0"/>
        <pt x="451" y="147" on="1"/>
        <pt x="451" y="109" on="0"/>
        <pt x="395" y="54" on="0"/>
        <pt x="349" y="54" on="1"/>
        <pt x="307" y="54" on="0"/>
        <pt x="260" y="99" on="0"/>
      </contour>
    </TTGlyph>
    <TTGlyph name="divide.tab" xMin="86" yMin="54" xMax="677" yMax="650">
      <component glyphName="divide" x="-16" y="0" flags="0x4"/>
    </TTGlyph>
    <TTGlyph name="dollar" xMin="49" yMin="-120" xMax="646" yMax="805">
      <contour>
        <pt x="78" y="223" on="1"/>
        <pt x="103" y="205" on="0"/>
        <pt x="169" y="172" on="0"/>
        <pt x="242" y="146" on="0"/>
        <pt x="318" y="131" on="0"/>
        <pt x="354" y="131" on="1"/>
        <pt x="414" y="131" on="0"/>
        <pt x="464" y="174" on="0"/>
        <pt x="464" y="205" on="1"/>
        <pt x="464" y="234" on="0"/>
        <pt x="403" y="269" on="0"/>
        <pt x="324" y="295" on="1"/>
        <pt x="285" y="308" on="0"/>
        <pt x="213" y="337" on="0"/>
        <pt x="160" y="379" on="0"/>
        <pt x="128" y="440" on="0"/>
        <pt x="128" y="484" on="1"/>
        <pt x="128" y="524" on="0"/>
        <pt x="158" y="599" on="0"/>
        <pt x="218" y="656" on="0"/>
        <pt x="309" y="692" on="0"/>
        <pt x="370" y="694" on="1"/>
        <pt x="394" y="805" on="1"/>
        <pt x="525" y="805" on="1"/>
        <pt x="498" y="679" on="1"/>
        <pt x="544" y="667" on="0"/>
        <pt x="621" y="630" on="0"/>
        <pt x="646" y="613" on="1"/>
        <pt x="618" y="483" on="1"/>
        <pt x="617" y="483" on="1"/>
        <pt x="570" y="517" on="0"/>
        <pt x="444" y="569" on="0"/>
        <pt x="379" y="569" on="1"/>
        <pt x="322" y="569" on="0"/>
        <pt x="267" y="530" on="0"/>
        <pt x="267" y="498" on="1"/>
        <pt x="267" y="471" on="0"/>
        <pt x="327" y="436" on="0"/>
        <pt x="403" y="411" on="1"/>
        <pt x="442" y="398" on="0"/>
        <pt x="515" y="368" on="0"/>
        <pt x="571" y="324" on="0"/>
        <pt x="605" y="260" on="0"/>
        <pt x="605" y="214" on="1"/>
        <pt x="605" y="174" on="0"/>
        <pt x="577" y="100" on="0"/>
        <pt x="518" y="44" on="0"/>
        <pt x="426" y="9" on="0"/>
        <pt x="364" y="6" on="1"/>
        <pt x="340" y="-105" on="1"/>
        <pt x="206" y="-120" on="1"/>
        <pt x="235" y="17" on="1"/>
        <pt x="179" y="29" on="0"/>
        <pt x="84" y="71" on="0"/>
        <pt x="49" y="93" on="1"/>
        <pt x="77" y="223" on="1"/>
      </contour>
    </TTGlyph>
    <TTGlyph name="dollar.tab" xMin="69" yMin="-120" xMax="676" yMax="805">
      <contour>
        <pt x="98" y="224" on="1"/>
        <pt x="124" y="206" on="0"/>
        <pt x="191" y="172" on="0"/>
        <pt x="264" y="146" on="0"/>
        <pt x="342" y="131" on="0"/>
        <pt x="379" y="131" on="1"/>
        <pt x="442" y="131" on="0"/>
        <pt x="494" y="173" on="0"/>
        <pt x="494" y="204" on="1"/>
        <pt x="494" y="233" on="0"/>
        <pt x="431" y="269" on="0"/>
        <pt x="349" y="295" on="1"/>
        <pt x="309" y="308" on="0"/>
        <pt x="235" y="337" on="0"/>
        <pt x="181" y="380" on="0"/>
        <pt x="148" y="441" on="0"/>
        <pt x="148" y="485" on="1"/>
        <pt x="148" y="525" on="0"/>
        <pt x="179" y="599" on="0"/>
        <pt x="240" y="656" on="0"/>
        <pt x="333" y="692" on="0"/>
        <pt x="395" y="694" on="1"/>
        <pt x="419" y="805" on="1"/>
        <pt x="550" y="805" on="1"/>
        <pt x="523" y="679" on="1"/>
        <pt x="572" y="667" on="0"/>
        <pt x="650" y="629" on="0"/>
        <pt x="676" y="612" on="1"/>
        <pt x="648" y="482" on="1"/>
        <pt x="647" y="482" on="1"/>
        <pt x="599" y="516" on="0"/>
        <pt x="470" y="569" on="0"/>
        <pt x="404" y="569" on="1"/>
        <pt x="344" y="569" on="0"/>
        <pt x="287" y="530" on="0"/>
        <pt x="287" y="499" on="1"/>
        <pt x="287" y="472" on="0"/>
        <pt x="349" y="436" on="0"/>
        <pt x="428" y="411" on="1"/>
        <pt x="468" y="398" on="0"/>
        <pt x="543" y="368" on="0"/>
        <pt x="600" y="324" on="0"/>
        <pt x="635" y="260" on="0"/>
        <pt x="635" y="213" on="1"/>
        <pt x="635" y="173" on="0"/>
        <pt x="606" y="100" on="0"/>
        <pt x="546" y="44" on="0"/>
        <pt x="452" y="9" on="0"/>
        <pt x="389" y="6" on="1"/>
        <pt x="365" y="-105" on="1"/>
        <pt x="231" y="-120" on="1"/>
        <pt x="260" y="17" on="1"/>
        <pt x="203" y="29" on="0"/>
        <pt x="106" y="71" on="0"/>
        <pt x="69" y="94" on="1"/>
        <pt x="97" y="224" on="1"/>
      </contour>
    </TTGlyph>
    <TTGlyph name="dotaccent" xMin="249" yMin="612" xMax="434" yMax="775">
      <contour>
        <pt x="249" y="686" on="1"/>
        <pt x="249" y="721" on="0"/>
        <pt x="301" y="775" on="0"/>
        <pt x="349" y="775" on="1"/>
        <pt x="391" y="775" on="0"/>
        <pt x="434" y="732" on="0"/>
        <pt x="434" y="701" on="1"/>
        <pt x="434" y="666" on="0"/>
        <pt x="380" y="612" on="0"/>
        <pt x="334" y="612" on="1"/>
        <pt x="291" y="612" on="0"/>
        <pt x="249" y="655" on="0"/>
      </contour>
    </TTGlyph>
    <TTGlyph name="dotlessi" xMin="27" yMin="0" xMax="286" yMax="540">
      <contour>
        <pt x="142" y="540" on="1"/>
        <pt x="286" y="540" on="1"/>
        <pt x="171" y="0" on="1"/>
        <pt x="27" y="0" on="1"/>
      </contour>
    </TTGlyph>
    <TTGlyph name="dotlessi.sc" xMin="43" yMin="0" xMax="314" yMax="596">
      <component glyphName="i.sc" x="0" y="0" flags="0x204"/>
    </TTGlyph>
    <TTGlyph name="dotmath" xMin="110" yMin="252" xMax="329" yMax="447">
      <component glyphName="period" x="56" y="263" flags="0x4"/>
    </TTGlyph>
    <TTGlyph name="dotmath.tab" xMin="91" yMin="252" xMax="310" yMax="447">
      <component glyphName="dotmath" x="-19" y="0" flags="0x4"/>
    </TTGlyph>
    <TTGlyph name="e" xMin="46" yMin="-16" xMax="563" yMax="556">
      <contour>
        <pt x="327" y="104" on="1"/>
        <pt x="385" y="104" on="0"/>
        <pt x="480" y="138" on="0"/>
        <pt x="517" y="162" on="1"/>
        <pt x="518" y="162" on="1"/>
        <pt x="491" y="32" on="1"/>
        <pt x="463" y="15" on="0"/>
        <pt x="372" y="-16" on="0"/>
        <pt x="308" y="-16" on="1"/>
        <pt x="186" y="-16" on="0"/>
        <pt x="46" y="116" on="0"/>
        <pt x="46" y="231" on="1"/>
        <pt x="46" y="296" on="0"/>
        <pt x="91" y="415" on="0"/>
        <pt x="172" y="503" on="0"/>
        <pt x="284" y="556" on="0"/>
        <pt x="351" y="556" on="1"/>
        <pt x="445" y="556" on="0"/>
        <pt x="563" y="443" on="0"/>
        <pt x="563" y="343" on="1"/>
        <pt x="563" y="318" on="0"/>
        <pt x="554" y="261" on="0"/>
        <pt x="545" y="230" on="1"/>
        <pt x="185" y="230" on="1"/>
        <pt x="186" y="158" on="0"/>
        <pt x="267" y="104" on="0"/>
      </contour>
      <contour>
        <pt x="338" y="438" on="1"/>
        <pt x="289" y="437" on="0"/>
        <pt x="214" y="374" on="0"/>
        <pt x="198" y="323" on="1"/>
        <pt x="430" y="323" on="1"/>
        <pt x="431" y="330" on="0"/>
        <pt x="432" y="343" on="0"/>
        <pt x="432" y="349" on="1"/>
        <pt x="432" y="391" on="0"/>
        <pt x="386" y="439" on="0"/>
      </contour>
    </TTGlyph>
    <TTGlyph name="e.sc" xMin="43" yMin="0" xMax="643" yMax="596">
      <contour>
        <pt x="43" y="0" on="1"/>
        <pt x="170" y="596" on="1"/>
        <pt x="643" y="596" on="1"/>
        <pt x="631" y="474" on="1"/>
        <pt x="285" y="474" on="1"/>
        <pt x="261" y="360" on="1"/>
        <pt x="537" y="360" on="1"/>
        <pt x="511" y="242" on="1"/>
        <pt x="236" y="242" on="1"/>
        <pt x="211" y="123" on="1"/>
        <pt x="571" y="123" on="1"/>
        <pt x="536" y="0" on="1"/>
      </contour>
    </TTGlyph>
    <TTGlyph name="eacute" xMin="46" yMin="-16" xMax="637" yMax="798">
      <component glyphName="e" x="0" y="0" flags="0x204"/>
      <component glyphName="acute" x="97" y="16" flags="0x4"/>
    </TTGlyph>
    <TTGlyph name="eacute.sc" xMin="43" yMin="0" xMax="689" yMax="838">
      <component glyphName="e.sc" x="0" y="0" flags="0x204"/>
      <component glyphName="acute" x="149" y="56" flags="0x4"/>
    </TTGlyph>
    <TTGlyph name="ebreve" xMin="46" yMin="-16" xMax="580" yMax="818">
      <component glyphName="e" x="0" y="0" flags="0x204"/>
      <component glyphName="breve" x="44" y="16" flags="0x4"/>
    </TTGlyph>
    <TTGlyph name="ebreve.sc" xMin="43" yMin="0" xMax="643" yMax="858">
      <component glyphName="e.sc" x="0" y="0" flags="0x204"/>
      <component glyphName="breve" x="96" y="56" flags="0x4"/>
    </TTGlyph>
    <TTGlyph name="ecaron" xMin="46" yMin="-16" xMax="633" yMax="814">
      <component glyphName="e" x="0" y="0" flags="0x204"/>
      <component glyphName="caron" x="44" y="16" flags="0x4"/>
    </TTGlyph>
    <TTGlyph name="ecaron.sc" xMin="43" yMin="0" xMax="685" yMax="854">
      <component glyphName="e.sc" x="0" y="0" flags="0x204"/>
      <component glyphName="caron" x="96" y="56" flags="0x4"/>
    </TTGlyph>
    <TTGlyph name="ecircumflex" xMin="46" yMin="-16" xMax="595" yMax="814">
      <component glyphName="e" x="0" y="0" flags="0x204"/>
      <component glyphName="circumflex" x="44" y="16" flags="0x4"/>
    </TTGlyph>
    <TTGlyph name="ecircumflex.sc" xMin="43" yMin="0" xMax="647" yMax="854">
      <component glyphName="e.sc" x="0" y="0" flags="0x204"/>
      <component glyphName="circumflex" x="96" y="56" flags="0x4"/>
    </TTGlyph>
    <TTGlyph name="edieresis" xMin="46" yMin="-16" xMax="601" yMax="785">
      <component glyphName="e" x="0" y="0" flags="0x204"/>
      <component glyphName="dieresis" x="44" y="16" flags="0x4"/>
    </TTGlyph>
    <TTGlyph name="edieresis.sc" xMin="43" yMin="0" xMax="653" yMax="825">
      <component glyphName="e.sc" x="0" y="0" flags="0x204"/>
      <component glyphName="dieresis" x="96" y="56" flags="0x4"/>
    </TTGlyph>
    <TTGlyph name="edotaccent" xMin="46" yMin="-16" xMax="563" yMax="791">
      <component glyphName="e" x="0" y="0" flags="0x204"/>
      <component glyphName="dotaccent" x="44" y="16" flags="0x4"/>
    </TTGlyph>
    <TTGlyph name="edotaccent.sc" xMin="43" yMin="0" xMax="643" yMax="831">
      <component glyphName="e.sc" x="0" y="0" flags="0x204"/>
      <component glyphName="dotaccent" x="96" y="56" flags="0x4"/>
    </TTGlyph>
    <TTGlyph name="egrave" xMin="46" yMin="-16" xMax="563" yMax="798">
      <component glyphName="e" x="0" y="0" flags="0x204"/>
      <component glyphName="grave" x="-12" y="16" flags="0x4"/>
    </TTGlyph>
    <TTGlyph name="egrave.sc" xMin="43" yMin="0" xMax="643" yMax="838">
      <component glyphName="e.sc" x="0" y="0" flags="0x204"/>
      <component glyphName="grave" x="40" y="56" flags="0x4"/>
    </TTGlyph>
    <TTGlyph name="eight" xMin="43" yMin="-24" xMax="707" yMax="720">
      <contour>
        <pt x="333" y="-24" on="1"/>
        <pt x="189" y="-24" on="0"/>
        <pt x="43" y="82" on="0"/>
        <pt x="43" y="166" on="1"/>
        <pt x="43" y="239" on="0"/>
        <pt x="143" y="343" on="0"/>
        <pt x="229" y="362" on="1"/>
        <pt x="183" y="382" on="0"/>
        <pt x="127" y="454" on="0"/>
        <pt x="127" y="503" on="1"/>
        <pt x="127" y="543" on="0"/>
        <pt x="162" y="621" on="0"/>
        <pt x="236" y="682" on="0"/>
        <pt x="352" y="720" on="0"/>
        <pt x="433" y="720" on="1"/>
        <pt x="502" y="720" on="0"/>
        <pt x="605" y="689" on="0"/>
        <pt x="673" y="636" on="0"/>
        <pt x="707" y="565" on="0"/>
        <pt x="707" y="525" on="1"/>
        <pt x="707" y="457" on="0"/>
        <pt x="612" y="362" on="0"/>
        <pt x="540" y="344" on="1"/>
        <pt x="596" y="320" on="0"/>
        <pt x="656" y="245" on="0"/>
        <pt x="656" y="191" on="1"/>
        <pt x="656" y="149" on="0"/>
        <pt x="618" y="71" on="0"/>
        <pt x="539" y="12" on="0"/>
        <pt x="416" y="-24" on="0"/>
      </contour>
      <contour>
        <pt x="405" y="405" on="1"/>
        <pt x="470" y="405" on="0"/>
        <pt x="557" y="462" on="0"/>
        <pt x="557" y="511" on="1"/>
        <pt x="557" y="554" on="0"/>
        <pt x="491" y="600" on="0"/>
        <pt x="429" y="600" on="1"/>
        <pt x="364" y="600" on="0"/>
        <pt x="277" y="543" on="0"/>
        <pt x="277" y="494" on="1"/>
        <pt x="277" y="451" on="0"/>
        <pt x="343" y="405" on="0"/>
      </contour>
      <contour>
        <pt x="361" y="298" on="1"/>
        <pt x="286" y="298" on="0"/>
        <pt x="196" y="239" on="0"/>
        <pt x="196" y="190" on="1"/>
        <pt x="196" y="147" on="0"/>
        <pt x="267" y="96" on="0"/>
        <pt x="339" y="96" on="1"/>
        <pt x="414" y="96" on="0"/>
        <pt x="504" y="155" on="0"/>
        <pt x="504" y="204" on="1"/>
        <pt x="504" y="247" on="0"/>
        <pt x="433" y="298" on="0"/>
      </contour>
    </TTGlyph>
    <TTGlyph name="eight.den" xMin="-14" yMin="-12" xMax="391" yMax="420">
      <component glyphName="eight.small" x="-10" y="0" flags="0x4"/>
    </TTGlyph>
    <TTGlyph name="eight.den_tab" xMin="-32" yMin="-12" xMax="373" yMax="420">
      <component glyphName="eight.small" x="-28" y="0" flags="0x4"/>
    </TTGlyph>
    <TTGlyph name="eight.inf" xMin="-26" yMin="-210" xMax="379" yMax="222">
      <component glyphName="eight.small" x="-22" y="-198" flags="0x4"/>
    </TTGlyph>
    <TTGlyph name="eight.num" xMin="68" yMin="279" xMax="473" yMax="711">
      <component glyphName="eight.small" x="72" y="291" flags="0x4"/>
    </TTGlyph>
    <TTGlyph name="eight.num_tab" xMin="50" yMin="279" xMax="455" yMax="711">
      <component glyphName="eight.small" x="54" y="291" flags="0x4"/>
    </TTGlyph>
    <TTGlyph name="eight.osf" xMin="44" yMin="-24" xMax="657" yMax="720">
      <contour>
        <pt x="406" y="720" on="1"/>
        <pt x="472" y="720" on="0"/>
        <pt x="567" y="688" on="0"/>
        <pt x="628" y="635" on="0"/>
        <pt x="657" y="565" on="0"/>
        <pt x="657" y="528" on="1"/>
        <pt x="657" y="456" on="0"/>
        <pt x="571" y="361" on="0"/>
        <pt x="506" y="344" on="1"/>
        <pt x="559" y="319" on="0"/>
        <pt x="611" y="240" on="0"/>
        <pt x="611" y="188" on="1"/>
        <pt x="611" y="147" on="0"/>
        <pt x="576" y="71" on="0"/>
        <pt x="504" y="12" on="0"/>
        <pt x="391" y="-24" on="0"/>
        <pt x="314" y="-24" on="1"/>
        <pt x="180" y="-24" on="0"/>
        <pt x="44" y="78" on="0"/>
        <pt x="44" y="168" on="1"/>
        <pt x="44" y="241" on="0"/>
        <pt x="138" y="342" on="0"/>
        <pt x="216" y="362" on="1"/>
        <pt x="176" y="384" on="0"/>
        <pt x="125" y="451" on="0"/>
        <pt x="125" y="506" on="1"/>
        <pt x="125" y="545" on="0"/>
        <pt x="159" y="622" on="0"/>
        <pt x="228" y="683" on="0"/>
        <pt x="334" y="720" on="0"/>
      </contour>
      <contour>
        <pt x="401" y="603" on="1"/>
        <pt x="344" y="603" on="0"/>
        <pt x="267" y="545" on="0"/>
        <pt x="267" y="496" on="1"/>
        <pt x="267" y="453" on="0"/>
        <pt x="327" y="406" on="0"/>
        <pt x="381" y="406" on="1"/>
        <pt x="438" y="406" on="0"/>
        <pt x="515" y="464" on="0"/>
        <pt x="515" y="513" on="1"/>
        <pt x="515" y="556" on="0"/>
        <pt x="455" y="603" on="0"/>
      </contour>
      <contour>
        <pt x="316" y="93" on="1"/>
        <pt x="382" y="93" on="0"/>
        <pt x="465" y="153" on="0"/>
        <pt x="465" y="204" on="1"/>
        <pt x="465" y="245" on="0"/>
        <pt x="402" y="297" on="0"/>
        <pt x="339" y="297" on="1"/>
        <pt x="273" y="297" on="0"/>
        <pt x="190" y="237" on="0"/>
        <pt x="190" y="186" on="1"/>
        <pt x="190" y="145" on="0"/>
        <pt x="253" y="93" on="0"/>
      </contour>
    </TTGlyph>
    <TTGlyph name="eight.small" xMin="-4" yMin="-12" xMax="401" yMax="420">
      <contour>
        <pt x="175" y="-12" on="1"/>
        <pt x="86" y="-12" on="0"/>
        <pt x="-4" y="48" on="0"/>
        <pt x="-4" y="98" on="1"/>
        <pt x="-4" y="139" on="0"/>
        <pt x="54" y="202" on="0"/>
        <pt x="104" y="212" on="1"/>
        <pt x="78" y="223" on="0"/>
        <pt x="46" y="265" on="0"/>
        <pt x="46" y="294" on="1"/>
        <pt x="46" y="342" on="0"/>
        <pt x="134" y="420" on="0"/>
        <pt x="233" y="420" on="1"/>
        <pt x="319" y="420" on="0"/>
        <pt x="401" y="354" on="0"/>
        <pt x="401" y="306" on="1"/>
        <pt x="401" y="266" on="0"/>
        <pt x="346" y="211" on="0"/>
        <pt x="305" y="202" on="1"/>
        <pt x="337" y="189" on="0"/>
        <pt x="372" y="145" on="0"/>
        <pt x="372" y="114" on="1"/>
        <pt x="372" y="64" on="0"/>
        <pt x="278" y="-12" on="0"/>
      </contour>
      <contour>
        <pt x="218" y="242" on="1"/>
        <pt x="254" y="242" on="0"/>
        <pt x="296" y="269" on="0"/>
        <pt x="296" y="291" on="1"/>
        <pt x="296" y="311" on="0"/>
        <pt x="262" y="334" on="0"/>
        <pt x="229" y="334" on="1"/>
        <pt x="193" y="334" on="0"/>
        <pt x="151" y="307" on="0"/>
        <pt x="151" y="285" on="1"/>
        <pt x="151" y="265" on="0"/>
        <pt x="185" y="242" on="0"/>
      </contour>
      <contour>
        <pt x="189" y="170" on="1"/>
        <pt x="148" y="170" on="0"/>
        <pt x="105" y="142" on="0"/>
        <pt x="105" y="118" on="1"/>
        <pt x="105" y="97" on="0"/>
        <pt x="142" y="73" on="0"/>
        <pt x="179" y="73" on="1"/>
        <pt x="220" y="73" on="0"/>
        <pt x="263" y="101" on="0"/>
        <pt x="263" y="125" on="1"/>
        <pt x="263" y="146" on="0"/>
        <pt x="226" y="170" on="0"/>
      </contour>
    </TTGlyph>
    <TTGlyph name="eight.sup" xMin="90" yMin="337" xMax="495" yMax="769">
      <component glyphName="eight.small" x="94" y="349" flags="0x4"/>
    </TTGlyph>
    <TTGlyph name="eight.tab" xMin="45" yMin="-24" xMax="705" yMax="720">
      <contour>
        <pt x="333" y="-24" on="1"/>
        <pt x="190" y="-24" on="0"/>
        <pt x="45" y="82" on="0"/>
        <pt x="45" y="166" on="1"/>
        <pt x="45" y="239" on="0"/>
        <pt x="145" y="343" on="0"/>
        <pt x="231" y="362" on="1"/>
        <pt x="185" y="382" on="0"/>
        <pt x="129" y="454" on="0"/>
        <pt x="129" y="503" on="1"/>
        <pt x="129" y="543" on="0"/>
        <pt x="164" y="621" on="0"/>
        <pt x="237" y="682" on="0"/>
        <pt x="353" y="720" on="0"/>
        <pt x="433" y="720" on="1"/>
        <pt x="501" y="720" on="0"/>
        <pt x="604" y="689" on="0"/>
        <pt x="671" y="636" on="0"/>
        <pt x="705" y="565" on="0"/>
        <pt x="705" y="525" on="1"/>
        <pt x="705" y="457" on="0"/>
        <pt x="610" y="362" on="0"/>
        <pt x="538" y="344" on="1"/>
        <pt x="594" y="320" on="0"/>
        <pt x="654" y="245" on="0"/>
        <pt x="654" y="191" on="1"/>
        <pt x="654" y="149" on="0"/>
        <pt x="616" y="71" on="0"/>
        <pt x="538" y="12" on="0"/>
        <pt x="416" y="-24" on="0"/>
      </contour>
      <contour>
        <pt x="405" y="405" on="1"/>
        <pt x="469" y="405" on="0"/>
        <pt x="555" y="462" on="0"/>
        <pt x="555" y="511" on="1"/>
        <pt x="555" y="554" on="0"/>
        <pt x="490" y="600" on="0"/>
        <pt x="429" y="600" on="1"/>
        <pt x="365" y="600" on="0"/>
        <pt x="279" y="543" on="0"/>
        <pt x="279" y="494" on="1"/>
        <pt x="279" y="451" on="0"/>
        <pt x="344" y="405" on="0"/>
      </contour>
      <contour>
        <pt x="361" y="298" on="1"/>
        <pt x="287" y="298" on="0"/>
        <pt x="198" y="239" on="0"/>
        <pt x="198" y="190" on="1"/>
        <pt x="198" y="147" on="0"/>
        <pt x="268" y="96" on="0"/>
        <pt x="339" y="96" on="1"/>
        <pt x="413" y="96" on="0"/>
        <pt x="502" y="155" on="0"/>
        <pt x="502" y="204" on="1"/>
        <pt x="502" y="247" on="0"/>
        <pt x="432" y="298" on="0"/>
      </contour>
    </TTGlyph>
    <TTGlyph name="ellipsis" xMin="54" yMin="-11" xMax="1071" yMax="184">
      <contour>
        <pt x="54" y="78" on="1"/>
        <pt x="54" y="121" on="0"/>
        <pt x="119" y="184" on="0"/>
        <pt x="174" y="184" on="1"/>
        <pt x="222" y="184" on="0"/>
        <pt x="273" y="132" on="0"/>
        <pt x="273" y="95" on="1"/>
        <pt x="273" y="52" on="0"/>
        <pt x="208" y="-11" on="0"/>
        <pt x="153" y="-11" on="1"/>
        <pt x="105" y="-11" on="0"/>
        <pt x="54" y="41" on="0"/>
      </contour>
      <contour>
        <pt x="453" y="78" on="1"/>
        <pt x="453" y="121" on="0"/>
        <pt x="518" y="184" on="0"/>
        <pt x="573" y="184" on="1"/>
        <pt x="621" y="184" on="0"/>
        <pt x="672" y="132" on="0"/>
        <pt x="672" y="95" on="1"/>
        <pt x="672" y="52" on="0"/>
        <pt x="607" y="-11" on="0"/>
        <pt x="552" y="-11" on="1"/>
        <pt x="504" y="-11" on="0"/>
        <pt x="453" y="41" on="0"/>
      </contour>
      <contour>
        <pt x="852" y="78" on="1"/>
        <pt x="852" y="121" on="0"/>
        <pt x="917" y="184" on="0"/>
        <pt x="972" y="184" on="1"/>
        <pt x="1020" y="184" on="0"/>
        <pt x="1071" y="132" on="0"/>
        <pt x="1071" y="95" on="1"/>
        <pt x="1071" y="52" on="0"/>
        <pt x="1006" y="-11" on="0"/>
        <pt x="951" y="-11" on="1"/>
        <pt x="903" y="-11" on="0"/>
        <pt x="852" y="41" on="0"/>
      </contour>
    </TTGlyph>
    <TTGlyph name="emacron" xMin="46" yMin="-16" xMax="586" yMax="760">
      <component glyphName="e" x="0" y="0" flags="0x204"/>
      <component glyphName="macron" x="44" y="16" flags="0x4"/>
    </TTGlyph>
    <TTGlyph name="emacron.sc" xMin="43" yMin="0" xMax="643" yMax="800">
      <component glyphName="e.sc" x="0" y="0" flags="0x204"/>
      <component glyphName="macron" x="96" y="56" flags="0x4"/>
    </TTGlyph>
    <TTGlyph name="emdash" xMin="77" yMin="255" xMax="800" yMax="389">
      <contour>
        <pt x="77" y="255" on="1"/>
        <pt x="106" y="389" on="1"/>
        <pt x="800" y="389" on="1"/>
        <pt x="771" y="255" on="1"/>
      </contour>
    </TTGlyph>
    <TTGlyph name="emdash.cap" xMin="83" yMin="283" xMax="806" yMax="417">
      <component glyphName="emdash" x="6" y="28" flags="0x4"/>
    </TTGlyph>
    <TTGlyph name="endash" xMin="77" yMin="255" xMax="650" yMax="389">
      <contour>
        <pt x="77" y="255" on="1"/>
        <pt x="106" y="389" on="1"/>
        <pt x="650" y="389" on="1"/>
        <pt x="621" y="255" on="1"/>
      </contour>
    </TTGlyph>
    <TTGlyph name="endash.cap" xMin="83" yMin="283" xMax="656" yMax="417">
      <component glyphName="endash" x="6" y="28" flags="0x4"/>
    </TTGlyph>
    <TTGlyph name="endash.tab" xMin="85" yMin="283" xMax="678" yMax="417">
      <contour>
        <pt x="85" y="283" on="1"/>
        <pt x="114" y="417" on="1"/>
        <pt x="678" y="417" on="1"/>
        <pt x="649" y="283" on="1"/>
      </contour>
    </TTGlyph>
    <TTGlyph name="eogonek" xMin="46" yMin="-288" xMax="563" yMax="556">
      <contour>
        <pt x="327" y="104" on="1"/>
        <pt x="385" y="104" on="0"/>
        <pt x="480" y="138" on="0"/>
        <pt x="517" y="162" on="1"/>
        <pt x="518" y="162" on="1"/>
        <pt x="491" y="32" on="1"/>
        <pt x="399" y="-47" on="1"/>
        <pt x="351" y="-88" on="0"/>
        <pt x="313" y="-133" on="0"/>
        <pt x="313" y="-150" on="1"/>
        <pt x="313" y="-163" on="0"/>
        <pt x="335" y="-179" on="0"/>
        <pt x="361" y="-179" on="1"/>
        <pt x="378" y="-179" on="0"/>
        <pt x="419" y="-171" on="0"/>
        <pt x="445" y="-161" on="1"/>
        <pt x="422" y="-266" on="1"/>
        <pt x="398" y="-277" on="0"/>
        <pt x="348" y="-288" on="0"/>
        <pt x="320" y="-288" on="1"/>
        <pt x="252" y="-288" on="0"/>
        <pt x="177" y="-224" on="0"/>
        <pt x="177" y="-180" on="1"/>
        <pt x="177" y="-134" on="0"/>
        <pt x="248" y="-56" on="0"/>
        <pt x="302" y="-16" on="1"/>
        <pt x="183" y="-15" on="0"/>
        <pt x="46" y="118" on="0"/>
        <pt x="46" y="231" on="1"/>
        <pt x="46" y="296" on="0"/>
        <pt x="91" y="415" on="0"/>
        <pt x="172" y="503" on="0"/>
        <pt x="284" y="556" on="0"/>
        <pt x="351" y="556" on="1"/>
        <pt x="445" y="556" on="0"/>
        <pt x="563" y="443" on="0"/>
        <pt x="563" y="343" on="1"/>
        <pt x="563" y="318" on="0"/>
        <pt x="554" y="261" on="0"/>
        <pt x="545" y="230" on="1"/>
        <pt x="185" y="230" on="1"/>
        <pt x="186" y="158" on="0"/>
        <pt x="267" y="104" on="0"/>
      </contour>
      <contour>
        <pt x="338" y="438" on="1"/>
        <pt x="289" y="437" on="0"/>
        <pt x="214" y="374" on="0"/>
        <pt x="198" y="323" on="1"/>
        <pt x="430" y="323" on="1"/>
        <pt x="431" y="330" on="0"/>
        <pt x="432" y="343" on="0"/>
        <pt x="432" y="349" on="1"/>
        <pt x="432" y="391" on="0"/>
        <pt x="386" y="439" on="0"/>
      </contour>
    </TTGlyph>
    <TTGlyph name="eogonek.sc" xMin="43" yMin="-289" xMax="643" yMax="596">
      <contour>
        <pt x="43" y="0" on="1"/>
        <pt x="170" y="596" on="1"/>
        <pt x="643" y="596" on="1"/>
        <pt x="631" y="474" on="1"/>
        <pt x="285" y="474" on="1"/>
        <pt x="261" y="360" on="1"/>
        <pt x="537" y="360" on="1"/>
        <pt x="511" y="242" on="1"/>
        <pt x="236" y="242" on="1"/>
        <pt x="211" y="123" on="1"/>
        <pt x="571" y="123" on="1"/>
        <pt x="536" y="0" on="1"/>
        <pt x="470" y="-52" on="1"/>
        <pt x="421" y="-90" on="0"/>
        <pt x="382" y="-133" on="0"/>
        <pt x="382" y="-151" on="1"/>
        <pt x="382" y="-164" on="0"/>
        <pt x="403" y="-180" on="0"/>
        <pt x="429" y="-180" on="1"/>
        <pt x="446" y="-180" on="0"/>
        <pt x="487" y="-172" on="0"/>
        <pt x="513" y="-162" on="1"/>
        <pt x="490" y="-267" on="1"/>
        <pt x="466" y="-278" on="0"/>
        <pt x="416" y="-289" on="0"/>
        <pt x="388" y="-289" on="1"/>
        <pt x="320" y="-289" on="0"/>
        <pt x="246" y="-226" on="0"/>
        <pt x="246" y="-181" on="1"/>
        <pt x="246" y="-132" on="0"/>
        <pt x="324" y="-45" on="0"/>
        <pt x="385" y="0" on="1"/>
      </contour>
    </TTGlyph>
    <TTGlyph name="equal" xMin="90" yMin="155" xMax="697" yMax="549">
      <contour>
        <pt x="147" y="423" on="1"/>
        <pt x="174" y="549" on="1"/>
        <pt x="697" y="549" on="1"/>
        <pt x="670" y="423" on="1"/>
      </contour>
      <contour>
        <pt x="90" y="155" on="1"/>
        <pt x="117" y="281" on="1"/>
        <pt x="640" y="281" on="1"/>
        <pt x="613" y="155" on="1"/>
      </contour>
    </TTGlyph>
    <TTGlyph name="equal.tab" xMin="78" yMin="155" xMax="685" yMax="549">
      <component glyphName="equal" x="-12" y="0" flags="0x4"/>
    </TTGlyph>
    <TTGlyph name="eth" xMin="43" yMin="-16" xMax="630" yMax="758">
      <contour>
        <pt x="591" y="339" on="1"/>
        <pt x="591" y="269" on="0"/>
        <pt x="552" y="140" on="0"/>
        <pt x="477" y="43" on="0"/>
        <pt x="366" y="-16" on="0"/>
        <pt x="294" y="-16" on="1"/>
        <pt x="182" y="-16" on="0"/>
        <pt x="43" y="109" on="0"/>
        <pt x="43" y="216" on="1"/>
        <pt x="43" y="273" on="0"/>
        <pt x="79" y="378" on="0"/>
        <pt x="146" y="458" on="0"/>
        <pt x="243" y="505" on="0"/>
        <pt x="303" y="505" on="1"/>
        <pt x="357" y="505" on="0"/>
        <pt x="432" y="467" on="0"/>
        <pt x="455" y="436" on="1"/>
        <pt x="446" y="474" on="0"/>
        <pt x="410" y="548" on="0"/>
        <pt x="378" y="588" on="1"/>
        <pt x="194" y="530" on="1"/>
        <pt x="215" y="629" on="1"/>
        <pt x="310" y="659" on="1"/>
        <pt x="287" y="680" on="0"/>
        <pt x="229" y="726" on="0"/>
        <pt x="195" y="751" on="1"/>
        <pt x="197" y="758" on="1"/>
        <pt x="356" y="758" on="1"/>
        <pt x="377" y="745" on="0"/>
        <pt x="416" y="713" on="0"/>
        <pt x="434" y="697" on="1"/>
        <pt x="630" y="758" on="1"/>
        <pt x="609" y="660" on="1"/>
        <pt x="499" y="626" on="1"/>
        <pt x="542" y="567" on="0"/>
        <pt x="591" y="423" on="0"/>
      </contour>
      <contour>
        <pt x="184" y="229" on="1"/>
        <pt x="184" y="172" on="0"/>
        <pt x="246" y="104" on="0"/>
        <pt x="300" y="104" on="1"/>
        <pt x="338" y="104" on="0"/>
        <pt x="395" y="142" on="0"/>
        <pt x="433" y="203" on="0"/>
        <pt x="453" y="283" on="0"/>
        <pt x="453" y="324" on="1"/>
        <pt x="435" y="362" on="0"/>
        <pt x="371" y="396" on="0"/>
        <pt x="331" y="396" on="1"/>
        <pt x="295" y="396" on="0"/>
        <pt x="240" y="367" on="0"/>
        <pt x="203" y="320" on="0"/>
        <pt x="184" y="260" on="0"/>
      </contour>
    </TTGlyph>
    <TTGlyph name="eth.sc" xMin="35" yMin="0" xMax="725" yMax="596">
      <contour>
        <pt x="73" y="0" on="1"/>
        <pt x="125" y="246" on="1"/>
        <pt x="35" y="246" on="1"/>
        <pt x="65" y="351" on="1"/>
        <pt x="148" y="351" on="1"/>
        <pt x="200" y="596" on="1"/>
        <pt x="420" y="596" on="1"/>
        <pt x="499" y="596" on="0"/>
        <pt x="614" y="559" on="0"/>
        <pt x="689" y="493" on="0"/>
        <pt x="725" y="401" on="0"/>
        <pt x="725" y="347" on="1"/>
        <pt x="725" y="287" on="0"/>
        <pt x="686" y="163" on="0"/>
        <pt x="596" y="63" on="0"/>
        <pt x="444" y="0" on="0"/>
        <pt x="332" y="0" on="1"/>
      </contour>
      <contour>
        <pt x="580" y="337" on="1"/>
        <pt x="580" y="403" on="0"/>
        <pt x="498" y="472" on="0"/>
        <pt x="412" y="472" on="1"/>
        <pt x="317" y="472" on="1"/>
        <pt x="291" y="351" on="1"/>
        <pt x="459" y="351" on="1"/>
        <pt x="437" y="246" on="1"/>
        <pt x="269" y="246" on="1"/>
        <pt x="243" y="124" on="1"/>
        <pt x="352" y="124" on="1"/>
        <pt x="415" y="124" on="0"/>
        <pt x="503" y="160" on="0"/>
        <pt x="556" y="219" on="0"/>
        <pt x="580" y="296" on="0"/>
      </contour>
    </TTGlyph>
    <TTGlyph name="exclam" xMin="54" yMin="-11" xMax="393" yMax="700">
      <contour>
        <pt x="148" y="270" on="1"/>
        <pt x="196" y="697" on="1"/>
        <pt x="196" y="700" on="1"/>
        <pt x="393" y="700" on="1"/>
        <pt x="393" y="697" on="1"/>
        <pt x="259" y="270" on="1"/>
      </contour>
      <contour>
        <pt x="54" y="78" on="1"/>
        <pt x="54" y="121" on="0"/>
        <pt x="119" y="184" on="0"/>
        <pt x="174" y="184" on="1"/>
        <pt x="222" y="184" on="0"/>
        <pt x="273" y="132" on="0"/>
        <pt x="273" y="95" on="1"/>
        <pt x="273" y="52" on="0"/>
        <pt x="208" y="-11" on="0"/>
        <pt x="153" y="-11" on="1"/>
        <pt x="105" y="-11" on="0"/>
        <pt x="54" y="41" on="0"/>
      </contour>
    </TTGlyph>
    <TTGlyph name="exclamdown" xMin="13" yMin="-155" xMax="352" yMax="556">
      <contour>
        <pt x="352" y="467" on="1"/>
        <pt x="352" y="424" on="0"/>
        <pt x="287" y="361" on="0"/>
        <pt x="232" y="361" on="1"/>
        <pt x="184" y="361" on="0"/>
        <pt x="133" y="413" on="0"/>
        <pt x="133" y="450" on="1"/>
        <pt x="133" y="493" on="0"/>
        <pt x="198" y="556" on="0"/>
        <pt x="253" y="556" on="1"/>
        <pt x="301" y="556" on="0"/>
        <pt x="352" y="504" on="0"/>
      </contour>
      <contour>
        <pt x="258" y="275" on="1"/>
        <pt x="210" y="-152" on="1"/>
        <pt x="210" y="-155" on="1"/>
        <pt x="13" y="-155" on="1"/>
        <pt x="13" y="-152" on="1"/>
        <pt x="147" y="275" on="1"/>
      </contour>
    </TTGlyph>
    <TTGlyph name="exclamdown.cap" xMin="46" yMin="0" xMax="385" yMax="711">
      <contour>
        <pt x="385" y="622" on="1"/>
        <pt x="385" y="579" on="0"/>
        <pt x="320" y="516" on="0"/>
        <pt x="265" y="516" on="1"/>
        <pt x="217" y="516" on="0"/>
        <pt x="166" y="568" on="0"/>
        <pt x="166" y="605" on="1"/>
        <pt x="166" y="648" on="0"/>
        <pt x="231" y="711" on="0"/>
        <pt x="286" y="711" on="1"/>
        <pt x="334" y="711" on="0"/>
        <pt x="385" y="659" on="0"/>
      </contour>
      <contour>
        <pt x="291" y="430" on="1"/>
        <pt x="243" y="3" on="1"/>
        <pt x="243" y="0" on="1"/>
        <pt x="46" y="0" on="1"/>
        <pt x="46" y="3" on="1"/>
        <pt x="180" y="430" on="1"/>
      </contour>
    </TTGlyph>
    <TTGlyph name="f" xMin="61" yMin="0" xMax="510" yMax="774">
      <contour>
        <pt x="338" y="568" on="1"/>
        <pt x="332" y="540" on="1"/>
        <pt x="474" y="540" on="1"/>
        <pt x="448" y="422" on="1"/>
        <pt x="307" y="422" on="1"/>
        <pt x="217" y="0" on="1"/>
        <pt x="75" y="0" on="1"/>
        <pt x="165" y="422" on="1"/>
        <pt x="61" y="422" on="1"/>
        <pt x="110" y="540" on="1"/>
        <pt x="190" y="540" on="1"/>
        <pt x="197" y="573" on="1"/>
        <pt x="221" y="686" on="0"/>
        <pt x="335" y="774" on="0"/>
        <pt x="410" y="774" on="1"/>
        <pt x="438" y="774" on="0"/>
        <pt x="488" y="762" on="0"/>
        <pt x="510" y="750" on="1"/>
        <pt x="481" y="636" on="1"/>
        <pt x="480" y="636" on="1"/>
        <pt x="470" y="642" on="0"/>
        <pt x="438" y="652" on="0"/>
        <pt x="420" y="652" on="1"/>
        <pt x="386" y="652" on="0"/>
        <pt x="348" y="612" on="0"/>
      </contour>
    </TTGlyph>
    <TTGlyph name="f.sc" xMin="43" yMin="0" xMax="625" yMax="596">
      <contour>
        <pt x="286" y="472" on="1"/>
        <pt x="258" y="342" on="1"/>
        <pt x="530" y="342" on="1"/>
        <pt x="503" y="218" on="1"/>
        <pt x="232" y="218" on="1"/>
        <pt x="185" y="0" on="1"/>
        <pt x="43" y="0" on="1"/>
        <pt x="170" y="596" on="1"/>
        <pt x="625" y="596" on="1"/>
        <pt x="613" y="472" on="1"/>
      </contour>
    </TTGlyph>
    <TTGlyph name="five" xMin="28" yMin="-16" xMax="647" yMax="700">
      <contour>
        <pt x="28" y="49" on="1"/>
        <pt x="57" y="180" on="1"/>
        <pt x="58" y="180" on="1"/>
        <pt x="108" y="155" on="0"/>
        <pt x="228" y="114" on="0"/>
        <pt x="301" y="113" on="1"/>
        <pt x="387" y="112" on="0"/>
        <pt x="462" y="172" on="0"/>
        <pt x="462" y="215" on="1"/>
        <pt x="462" y="261" on="0"/>
        <pt x="362" y="310" on="0"/>
        <pt x="228" y="310" on="1"/>
        <pt x="100" y="310" on="1"/>
        <pt x="192" y="700" on="1"/>
        <pt x="647" y="700" on="1"/>
        <pt x="633" y="571" on="1"/>
        <pt x="299" y="571" on="1"/>
        <pt x="266" y="436" on="1"/>
        <pt x="363" y="436" on="0"/>
        <pt x="495" y="405" on="0"/>
        <pt x="576" y="349" on="0"/>
        <pt x="611" y="271" on="0"/>
        <pt x="611" y="224" on="1"/>
        <pt x="611" y="174" on="0"/>
        <pt x="572" y="86" on="0"/>
        <pt x="495" y="21" on="0"/>
        <pt x="377" y="-16" on="0"/>
        <pt x="299" y="-16" on="1"/>
        <pt x="218" y="-16" on="0"/>
        <pt x="75" y="23" on="0"/>
      </contour>
    </TTGlyph>
    <TTGlyph name="five.den" xMin="0" yMin="-12" xMax="383" yMax="409">
      <component glyphName="five.small" x="-10" y="0" flags="0x4"/>
    </TTGlyph>
    <TTGlyph name="five.den_tab" xMin="-18" yMin="-12" xMax="365" yMax="409">
      <component glyphName="five.small" x="-28" y="0" flags="0x4"/>
    </TTGlyph>
    <TTGlyph name="five.inf" xMin="-12" yMin="-210" xMax="371" yMax="211">
      <component glyphName="five.small" x="-22" y="-198" flags="0x4"/>
    </TTGlyph>
    <TTGlyph name="five.num" xMin="82" yMin="279" xMax="465" yMax="700">
      <component glyphName="five.small" x="72" y="291" flags="0x4"/>
    </TTGlyph>
    <TTGlyph name="five.num_tab" xMin="64" yMin="279" xMax="447" yMax="700">
      <component glyphName="five.small" x="54" y="291" flags="0x4"/>
    </TTGlyph>
    <TTGlyph name="five.osf" xMin="-8" yMin="-120" xMax="566" yMax="596">
      <contour>
        <pt x="-8" y="-63" on="1"/>
        <pt x="19" y="59" on="1"/>
        <pt x="20" y="59" on="1"/>
        <pt x="65" y="37" on="0"/>
        <pt x="180" y="2" on="0"/>
        <pt x="240" y="2" on="1"/>
        <pt x="317" y="2" on="0"/>
        <pt x="377" y="62" on="0"/>
        <pt x="377" y="105" on="1"/>
        <pt x="377" y="149" on="0"/>
        <pt x="268" y="206" on="0"/>
        <pt x="126" y="211" on="1"/>
        <pt x="70" y="213" on="1"/>
        <pt x="159" y="596" on="1"/>
        <pt x="566" y="596" on="1"/>
        <pt x="553" y="471" on="1"/>
        <pt x="265" y="471" on="1"/>
        <pt x="230" y="325" on="1"/>
        <pt x="371" y="313" on="0"/>
        <pt x="521" y="208" on="0"/>
        <pt x="521" y="114" on="1"/>
        <pt x="521" y="65" on="0"/>
        <pt x="486" y="-21" on="0"/>
        <pt x="416" y="-84" on="0"/>
        <pt x="310" y="-120" on="0"/>
        <pt x="239" y="-120" on="1"/>
        <pt x="168" y="-120" on="0"/>
        <pt x="35" y="-85" on="0"/>
      </contour>
    </TTGlyph>
    <TTGlyph name="five.small" xMin="10" yMin="-12" xMax="393" yMax="409">
      <contour>
        <pt x="177" y="-12" on="1"/>
        <pt x="128" y="-12" on="0"/>
        <pt x="44" y="10" on="0"/>
        <pt x="10" y="26" on="1"/>
        <pt x="31" y="119" on="1"/>
        <pt x="63" y="104" on="0"/>
        <pt x="137" y="83" on="0"/>
        <pt x="179" y="83" on="1"/>
        <pt x="223" y="82" on="0"/>
        <pt x="254" y="109" on="0"/>
        <pt x="254" y="127" on="1"/>
        <pt x="254" y="149" on="0"/>
        <pt x="190" y="168" on="0"/>
        <pt x="103" y="168" on="1"/>
        <pt x="51" y="168" on="1"/>
        <pt x="106" y="409" on="1"/>
        <pt x="393" y="409" on="1"/>
        <pt x="383" y="314" on="1"/>
        <pt x="186" y="314" on="1"/>
        <pt x="171" y="252" on="1"/>
        <pt x="269" y="250" on="0"/>
        <pt x="368" y="191" on="0"/>
        <pt x="368" y="131" on="1"/>
        <pt x="368" y="68" on="0"/>
        <pt x="271" y="-12" on="0"/>
      </contour>
    </TTGlyph>
    <TTGlyph name="five.sup" xMin="104" yMin="337" xMax="487" yMax="758">
      <component glyphName="five.small" x="94" y="349" flags="0x4"/>
    </TTGlyph>
    <TTGlyph name="five.tab" xMin="47" yMin="-16" xMax="678" yMax="700">
      <contour>
        <pt x="323" y="-16" on="1"/>
        <pt x="239" y="-16" on="0"/>
        <pt x="94" y="23" on="0"/>
        <pt x="47" y="49" on="1"/>
        <pt x="76" y="180" on="1"/>
        <pt x="77" y="180" on="1"/>
        <pt x="127" y="155" on="0"/>
        <pt x="248" y="114" on="0"/>
        <pt x="323" y="113" on="1"/>
        <pt x="411" y="112" on="0"/>
        <pt x="488" y="172" on="0"/>
        <pt x="488" y="215" on="1"/>
        <pt x="488" y="261" on="0"/>
        <pt x="381" y="310" on="0"/>
        <pt x="243" y="310" on="1"/>
        <pt x="115" y="310" on="1"/>
        <pt x="207" y="700" on="1"/>
        <pt x="678" y="700" on="1"/>
        <pt x="664" y="571" on="1"/>
        <pt x="314" y="571" on="1"/>
        <pt x="281" y="436" on="1"/>
        <pt x="380" y="436" on="0"/>
        <pt x="516" y="405" on="0"/>
        <pt x="600" y="349" on="0"/>
        <pt x="637" y="271" on="0"/>
        <pt x="637" y="224" on="1"/>
        <pt x="637" y="174" on="0"/>
        <pt x="598" y="86" on="0"/>
        <pt x="520" y="21" on="0"/>
        <pt x="401" y="-16" on="0"/>
      </contour>
    </TTGlyph>
    <TTGlyph name="fiveeighths" xMin="82" yMin="-12" xMax="1062" yMax="700">
      <component glyphName="five.num" x="0" y="0" flags="0x4"/>
      <component glyphName="fraction" x="429" y="0" flags="0x4"/>
      <component glyphName="eight.den" x="671" y="0" flags="0x4"/>
    </TTGlyph>
    <TTGlyph name="fiveeighths.tab" xMin="64" yMin="-12" xMax="1025" yMax="700">
      <component glyphName="five.num_tab" x="0" y="0" flags="0x4"/>
      <component glyphName="fraction.tab" x="433" y="0" flags="0x4"/>
      <component glyphName="eight.den_tab" x="652" y="0" flags="0x4"/>
    </TTGlyph>
    <TTGlyph name="four" xMin="7" yMin="0" xMax="706" yMax="700">
      <contour>
        <pt x="384" y="0" on="1"/>
        <pt x="417" y="156" on="1"/>
        <pt x="7" y="156" on="1"/>
        <pt x="43" y="271" on="1"/>
        <pt x="362" y="700" on="1"/>
        <pt x="673" y="700" on="1"/>
        <pt x="584" y="281" on="1"/>
        <pt x="706" y="281" on="1"/>
        <pt x="672" y="156" on="1"/>
        <pt x="557" y="156" on="1"/>
        <pt x="524" y="0" on="1"/>
      </contour>
      <contour>
        <pt x="220" y="281" on="1"/>
        <pt x="444" y="281" on="1"/>
        <pt x="506" y="571" on="1"/>
        <pt x="427" y="571" on="1"/>
      </contour>
    </TTGlyph>
    <TTGlyph name="four.den" xMin="-30" yMin="0" xMax="394" yMax="409">
      <component glyphName="four.small" x="-10" y="0" flags="0x4"/>
    </TTGlyph>
    <TTGlyph name="four.den_tab" xMin="-48" yMin="0" xMax="376" yMax="409">
      <component glyphName="four.small" x="-28" y="0" flags="0x4"/>
    </TTGlyph>
    <TTGlyph name="four.inf" xMin="-42" yMin="-198" xMax="382" yMax="211">
      <component glyphName="four.small" x="-22" y="-198" flags="0x4"/>
    </TTGlyph>
    <TTGlyph name="four.num" xMin="52" yMin="291" xMax="476" yMax="700">
      <component glyphName="four.small" x="72" y="291" flags="0x4"/>
    </TTGlyph>
    <TTGlyph name="four.num_tab" xMin="34" yMin="291" xMax="458" yMax="700">
      <component glyphName="four.small" x="54" y="291" flags="0x4"/>
    </TTGlyph>
    <TTGlyph name="four.osf" xMin="-1" yMin="-104" xMax="642" yMax="596">
      <contour>
        <pt x="335" y="-104" on="1"/>
        <pt x="367" y="46" on="1"/>
        <pt x="-1" y="46" on="1"/>
        <pt x="24" y="161" on="1"/>
        <pt x="322" y="596" on="1"/>
        <pt x="620" y="596" on="1"/>
        <pt x="528" y="166" on="1"/>
        <pt x="642" y="166" on="1"/>
        <pt x="608" y="46" on="1"/>
        <pt x="503" y="46" on="1"/>
        <pt x="471" y="-104" on="1"/>
      </contour>
      <contour>
        <pt x="181" y="166" on="1"/>
        <pt x="393" y="166" on="1"/>
        <pt x="457" y="467" on="1"/>
        <pt x="382" y="467" on="1"/>
      </contour>
    </TTGlyph>
    <TTGlyph name="four.small" xMin="-20" yMin="0" xMax="404" yMax="409">
      <contour>
        <pt x="194" y="0" on="1"/>
        <pt x="211" y="79" on="1"/>
        <pt x="-20" y="79" on="1"/>
        <pt x="-2" y="164" on="1"/>
        <pt x="154" y="409" on="1"/>
        <pt x="388" y="409" on="1"/>
        <pt x="337" y="171" on="1"/>
        <pt x="404" y="171" on="1"/>
        <pt x="378" y="79" on="1"/>
        <pt x="318" y="79" on="1"/>
        <pt x="301" y="0" on="1"/>
      </contour>
      <contour>
        <pt x="117" y="169" on="1"/>
        <pt x="232" y="169" on="1"/>
        <pt x="264" y="318" on="1"/>
        <pt x="209" y="318" on="1"/>
      </contour>
    </TTGlyph>
    <TTGlyph name="four.sup" xMin="74" yMin="349" xMax="498" yMax="758">
      <component glyphName="four.small" x="94" y="349" flags="0x4"/>
    </TTGlyph>
    <TTGlyph name="four.tab" xMin="15" yMin="0" xMax="691" yMax="700">
      <contour>
        <pt x="383" y="0" on="1"/>
        <pt x="414" y="145" on="1"/>
        <pt x="15" y="145" on="1"/>
        <pt x="40" y="260" on="1"/>
        <pt x="343" y="700" on="1"/>
        <pt x="672" y="700" on="1"/>
        <pt x="580" y="270" on="1"/>
        <pt x="691" y="270" on="1"/>
        <pt x="661" y="145" on="1"/>
        <pt x="554" y="145" on="1"/>
        <pt x="523" y="0" on="1"/>
      </contour>
      <contour>
        <pt x="208" y="270" on="1"/>
        <pt x="441" y="270" on="1"/>
        <pt x="505" y="571" on="1"/>
        <pt x="414" y="571" on="1"/>
      </contour>
    </TTGlyph>
    <TTGlyph name="fraction" xMin="-246" yMin="0" xMax="528" yMax="700">
      <contour>
        <pt x="-246" y="1" on="1"/>
        <pt x="398" y="700" on="1"/>
        <pt x="528" y="700" on="1"/>
        <pt x="528" y="699" on="1"/>
        <pt x="-116" y="0" on="1"/>
        <pt x="-246" y="0" on="1"/>
      </contour>
    </TTGlyph>
    <TTGlyph name="fraction.tab" xMin="-276" yMin="0" xMax="498" yMax="700">
      <contour>
        <pt x="-276" y="1" on="1"/>
        <pt x="368" y="700" on="1"/>
        <pt x="498" y="700" on="1"/>
        <pt x="498" y="699" on="1"/>
        <pt x="-146" y="0" on="1"/>
        <pt x="-276" y="0" on="1"/>
      </contour>
    </TTGlyph>
    <TTGlyph name="g" xMin="-35" yMin="-213" xMax="647" yMax="635">
      <contour>
        <pt x="241" y="-213" on="1"/>
        <pt x="114" y="-213" on="0"/>
        <pt x="-35" y="-136" on="0"/>
        <pt x="-35" y="-69" on="1"/>
        <pt x="-35" y="-28" on="0"/>
        <pt x="28" y="39" on="0"/>
        <pt x="85" y="61" on="1"/>
        <pt x="147" y="204" on="1"/>
        <pt x="110" y="229" on="0"/>
        <pt x="71" y="301" on="0"/>
        <pt x="71" y="343" on="1"/>
        <pt x="71" y="383" on="0"/>
        <pt x="102" y="459" on="0"/>
        <pt x="164" y="519" on="0"/>
        <pt x="260" y="556" on="0"/>
        <pt x="324" y="556" on="1"/>
        <pt x="349" y="556" on="0"/>
        <pt x="393" y="550" on="0"/>
        <pt x="412" y="545" on="1"/>
        <pt x="477" y="635" on="1"/>
        <pt x="647" y="635" on="1"/>
        <pt x="647" y="634" on="1"/>
        <pt x="501" y="496" on="1"/>
        <pt x="529" y="473" on="0"/>
        <pt x="555" y="410" on="0"/>
        <pt x="555" y="373" on="1"/>
        <pt x="555" y="335" on="0"/>
        <pt x="524" y="260" on="0"/>
        <pt x="462" y="201" on="0"/>
        <pt x="366" y="164" on="0"/>
        <pt x="302" y="164" on="1"/>
        <pt x="286" y="164" on="0"/>
        <pt x="255" y="167" on="0"/>
        <pt x="241" y="169" on="1"/>
        <pt x="215" y="112" on="1"/>
        <pt x="383" y="96" on="0"/>
        <pt x="524" y="15" on="0"/>
        <pt x="524" y="-48" on="1"/>
        <pt x="524" y="-77" on="0"/>
        <pt x="494" y="-136" on="0"/>
        <pt x="428" y="-183" on="0"/>
        <pt x="319" y="-213" on="0"/>
      </contour>
      <contour>
        <pt x="309" y="266" on="1"/>
        <pt x="369" y="266" on="0"/>
        <pt x="422" y="330" on="0"/>
        <pt x="422" y="369" on="1"/>
        <pt x="422" y="409" on="0"/>
        <pt x="368" y="454" on="0"/>
        <pt x="322" y="454" on="1"/>
        <pt x="262" y="454" on="0"/>
        <pt x="209" y="390" on="0"/>
        <pt x="209" y="351" on="1"/>
        <pt x="209" y="311" on="0"/>
        <pt x="263" y="266" on="0"/>
      </contour>
      <contour>
        <pt x="265" y="-111" on="1"/>
        <pt x="329" y="-110" on="0"/>
        <pt x="393" y="-79" on="0"/>
        <pt x="393" y="-60" on="1"/>
        <pt x="393" y="-33" on="0"/>
        <pt x="252" y="4" on="0"/>
        <pt x="128" y="11" on="1"/>
        <pt x="112" y="1" on="0"/>
        <pt x="90" y="-29" on="0"/>
        <pt x="90" y="-43" on="1"/>
        <pt x="90" y="-61" on="0"/>
        <pt x="120" y="-88" on="0"/>
        <pt x="168" y="-104" on="0"/>
        <pt x="232" y="-111" on="0"/>
      </contour>
    </TTGlyph>
    <TTGlyph name="g.sc" xMin="65" yMin="-16" xMax="702" yMax="610">
      <contour>
        <pt x="424" y="483" on="1"/>
        <pt x="373" y="483" on="0"/>
        <pt x="294" y="450" on="0"/>
        <pt x="239" y="394" on="0"/>
        <pt x="211" y="317" on="0"/>
        <pt x="211" y="273" on="1"/>
        <pt x="211" y="198" on="0"/>
        <pt x="295" y="112" on="0"/>
        <pt x="379" y="112" on="1"/>
        <pt x="442" y="112" on="0"/>
        <pt x="538" y="174" on="0"/>
        <pt x="548" y="233" on="1"/>
        <pt x="356" y="233" on="1"/>
        <pt x="381" y="349" on="1"/>
        <pt x="702" y="349" on="1"/>
        <pt x="697" y="252" on="0"/>
        <pt x="648" y="119" on="0"/>
        <pt x="601" y="72" on="1"/>
        <pt x="558" y="29" on="0"/>
        <pt x="435" y="-16" on="0"/>
        <pt x="370" y="-16" on="1"/>
        <pt x="230" y="-16" on="0"/>
        <pt x="65" y="135" on="0"/>
        <pt x="65" y="261" on="1"/>
        <pt x="65" y="330" on="0"/>
        <pt x="113" y="457" on="0"/>
        <pt x="204" y="553" on="0"/>
        <pt x="338" y="610" on="0"/>
        <pt x="424" y="610" on="1"/>
        <pt x="501" y="610" on="0"/>
        <pt x="625" y="566" on="0"/>
        <pt x="663" y="538" on="1"/>
        <pt x="634" y="405" on="1"/>
        <pt x="633" y="405" on="1"/>
        <pt x="593" y="436" on="0"/>
        <pt x="487" y="483" on="0"/>
      </contour>
    </TTGlyph>
    <TTGlyph name="gbreve" xMin="-35" yMin="-213" xMax="647" yMax="822">
      <component glyphName="g" x="0" y="0" flags="0x204"/>
      <component glyphName="breve" x="11" y="20" flags="0x4"/>
    </TTGlyph>
    <TTGlyph name="gbreve.sc" xMin="65" yMin="-16" xMax="702" yMax="872">
      <component glyphName="g.sc" x="0" y="0" flags="0x204"/>
      <component glyphName="breve" x="115" y="70" flags="0x4"/>
    </TTGlyph>
    <TTGlyph name="gdotaccent" xMin="-35" yMin="-213" xMax="647" yMax="795">
      <component glyphName="g" x="0" y="0" flags="0x204"/>
      <component glyphName="dotaccent" x="10" y="20" flags="0x4"/>
    </TTGlyph>
    <TTGlyph name="gdotaccent.sc" xMin="65" yMin="-16" xMax="702" yMax="845">
      <component glyphName="g.sc" x="0" y="0" flags="0x204"/>
      <component glyphName="dotaccent" x="114" y="70" flags="0x4"/>
    </TTGlyph>
</ttFont>
